<?xml version="1.0" encoding="utf-8"?>
<!-- Generator: Adobe Illustrator 23.0.1, SVG Export Plug-In . SVG Version: 6.00 Build 0)  -->
<svg version="1.1" id="Layer_1" xmlns="http://www.w3.org/2000/svg" xmlns:xlink="http://www.w3.org/1999/xlink" x="0px" y="0px"
	 viewBox="0 0 4175.3 629" style="enable-background:new 0 0 4175.3 629;" xml:space="preserve">
<style type="text/css">
	.st0{fill:#FFFFFF;}
	.st1{fill:#A0D1C6;}
	.st2{fill:#A1CFC6;}
</style>
<g id="OcY684_7_">
	<g>
		<path class="st0" d="M303.8,82.8c-0.4-0.3-0.4-0.7-0.2-1.1c0.6-1,1.2-2.1,1.8-3.1c-2.7-2.3-4-5.3-3.6-8.8c0.3-2.6,1.5-4.7,3.4-6.4
			c3.9-3.4,9.9-3,13.5,0.8c3.6,3.9,3.7,10.4-1,14.4c0.6,1,1.2,2.1,1.8,3.1c0.3,0.6,0.3,0.7-0.2,1.1c-0.1,0-0.1,0-0.2,0
			c-0.2-0.2-0.4-0.4-0.5-0.6c-0.6-1-1.2-2-1.7-3c-3.5,2-7,2-10.5,0c-0.6,1-1.2,2-1.8,3.1c-0.1,0.2-0.3,0.4-0.5,0.5
			C304,82.8,303.9,82.8,303.8,82.8z M311.5,79.6c4.8,0,8.8-3.9,8.8-8.7c0-4.8-3.9-8.7-8.7-8.7c-4.8,0-8.8,3.9-8.8,8.6
			C302.8,75.7,306.7,79.6,311.5,79.6z"/>
		<path class="st0" d="M321.7,61.2c-0.2,0.5-0.3,1-0.5,1.5c-0.2,0.5-0.5,0.5-0.9,0.3c-2-1.1-4-2.3-5.9-3.4c-0.4-0.3-0.5-0.5-0.2-1
			c0.6-1,1.6-1.6,2.7-1.8c0.1,0,0.2-0.1,0.3-0.1c0.2,0,0.5,0,0.7,0c0.1,0,0.2,0.1,0.3,0.1c1.7,0.3,2.7,1.3,3.3,2.8
			c0.1,0.3,0.1,0.5,0.2,0.8C321.7,60.6,321.7,60.9,321.7,61.2z M315.3,58.8c1.7,1,3.4,2,5.1,2.9c0.5-1.3,0-2.8-1.2-3.6
			C317.9,57.4,316.4,57.7,315.3,58.8z"/>
		<path class="st0" d="M305.9,56.6c0.7,0.3,1.5,0.5,2.1,0.9c0.4,0.2,0.7,0.7,1,1c0.3,0.3,0.2,0.7-0.2,0.9c-2,1.2-4,2.3-6,3.5
			c-0.4,0.2-0.7,0.1-0.8-0.3c-0.2-0.5-0.4-1.1-0.5-1.6c0-0.2,0-0.5,0-0.7c0-0.1,0.1-0.2,0.1-0.3c0.3-1.7,1.3-2.8,2.9-3.3
			c0.3-0.1,0.6-0.1,0.8-0.2C305.4,56.6,305.7,56.6,305.9,56.6z M307.8,58.8c-0.9-1.1-2.5-1.4-3.8-0.7c-1.2,0.7-1.8,2.3-1.3,3.6
			C304.4,60.8,306.1,59.8,307.8,58.8z"/>
		<path class="st0" d="M312.7,67.8c0,1.1,0,2.2,0,3.3c0,0.4-0.1,0.7-0.5,0.9c-1.3,0.9-2.7,1.9-4,2.8c-0.3,0.2-0.7,0.4-0.9,0
			c-0.3-0.4,0-0.7,0.3-0.9c1.2-0.9,2.4-1.7,3.6-2.6c0.3-0.2,0.4-0.4,0.4-0.7c0-2,0-4,0-6.1c0-0.1,0-0.2,0-0.4c0-0.4,0.2-0.6,0.5-0.6
			c0.4,0,0.6,0.3,0.6,0.6c0,0.8,0,1.6,0,2.5C312.7,67.1,312.7,67.5,312.7,67.8z"/>
	</g>
</g>
<g>
	<rect x="14.1" y="17.6" class="st1" width="4130.4" height="584.5"/>
	<g>
		<g>
			<g>
				<path class="st0" d="M3020,597.9c-72.5,0.4,43.5,0.4,0,0.4l-159.3,0.7C2991.1,598.2,2802.7,597.3,3020,597.9z"/>
				<path class="st0" d="M2773.8,601.3l-29,0.5c-43.5-0.1-130.5-0.5-72.5-0.8C2701.3,601.2,2730.3,601.3,2773.8,601.3z"/>
				<path class="st2" d="M2947.5,610.7l-57.9-0.2c29.1,0,43.4-0.6,87-0.5L2947.5,610.7z"/>
				<path class="st2" d="M7.6,190.8c0.1-6.5,0.2-16,0.3-31.5c0.6,6.6,1,25.9,1.4,86.8c-0.2,54.3,0.1,179-0.6,158.4l0-13.8
					c-0.5,3-1.5,68.6-1.3,137.8c0.4,15.3,1.2-42,1.8,24.3c0,17.4,0,35.5,0.1,54.2c19.3,0,38.9,0,58.4,0c17.9,0,35.7,0.1,53,0.1
					c34.6,0.1,67.1,0.3,94.1,0.5l63.4-1.2c81.9,0.2,103.2,0.7,161.5,1.1l-43,0.5c30.9,0.4,4.9,1.4,110.3,1.4
					c70.5-0.6,84.4-0.6,177.3-1c111.2,1,306.5,0.1,438.6,0.4c129.5-1.8,395.7,0.9,494.7-1.4c213.9,0.5,236.8-1,350.2-2
					c165.5,1.2-215.9,1.6-127.9,2.7c241.5,0.4,505.1-0.3,751.9-0.1c62.1-0.8-45.1-1.7,83.8-1.9c-42.6,0.5,4.8,1.4,50.6,1.4
					c-50-0.1,1.2-0.4,6.8-0.7l-36.3-0.2c-26-2,173.5,0.2,259-0.8c39.2,0.7-45.8,0-52.4,0.6c0.9,0.4,10.8,0.9,35.3,1.3
					s63.4,0.8,122.5,0.9c232.7-1.1,396,0.9,653.9,0.5c-11.5-0.7,60.8-0.4,102.3-0.5c-52.4,0.6,50.5,1.4,100.5,1.5
					c61-0.4,70-1.8,165.8-1.7l-64.5-1.4c-36.1-0.2-166.4,0.4-231.3,0.7c-40.9-1.5-323.1,0.7-293.4-1.4l40.5,0.3
					c148.5,0.8,224.1-1.3,364-2.1c112.7,0.6,150.6,1.6,225.8,2.5c9.2,0,17.8,0.1,25.2,0.1c0-20.7,0-38,0-52.9
					c-0.1-13.4-0.1-24.8-0.1-35.2c-0.2-20.8-0.3-37.7-0.5-59.4c-0.3-78.9,0.3-118.1,0.7-162.7c-0.1-27.6-0.3,12.6-0.4-15.1
					c0.2-36.2,0.4-76.5,0.4-104.2c-1.3-13.4-1.3,137.9-1.7,228.2c-0.2-23.4-0.5-28.9-0.4-60.9c-0.1-27.6,0.2-22.1,0.3-26.4
					l-0.1-55.5c-0.4-1.3-1.1,10.2-1.2-63.2l0.8-43.5c0.3-145.6-1.6-215.7-1.7-28.2l0.8,16.3l-1.2,179.6c-0.8,29.3-0.6-84.6-1.4-86.9
					c-1-26-1.4,128.3-1.7,196.3c0.6,70.4,0.8-43.4,0.9-93.2l1.4,100.5c0.1,27.6-0.2,68.1-0.6,66.8c-0.4,31-1.5-4.8-1.4,50.6
					c0,17.8,0,31.6,0,41.9c-9.8,0-16.9,0.1-22,0.1c-5.5,0-8.9,0.1-10.9,0.2c-4,0.1-2.7,0.3-2.3,0.5c0.3,0.2-0.4,0.3-8.5,0.5
					s-23.8,0.2-53.2,0.2c6.7,0.3,19.6,0.5,36.8,0.7c8.6,0.1,18.2,0.2,28.6,0.3c10.7,0.1,22.2,0.2,34.3,0.2
					c0.2-40.8,0.4-88,0.7-130.7c0.2-42.4,0.4-80.3,0.6-102.9l0-59.6c0.7-25.3,0.2,96.8,0.6,6.5c0.3,42.3,0.3,89.8,0.2,138.7
					c-0.1,24.4-0.2,49.2-0.2,73.9c-0.1,25.5-0.2,50.8-0.4,75.6c-37.6-0.3-73.7-0.5-106.6-0.7c-32.2-0.3-61.2-0.5-85.4-0.7
					c-1.8-0.9-122.9-1.7-27.5-2.8c-50-0.1-75.2-0.8-144.7-0.6c-188,1.5-269.3-0.3-435.6,0.1c22.3,0.2-11,0.5-16.2,0.8
					c-232.2-0.6,71.8-3.8-247.1-3c-55.4,0.1-84.4,0.6-67.5,1.1c40.3,0.3,79.5,0.9,144.6,0.6c-1.1,0.4,104.1,0.4,42.1,1.2
					c-145.8-0.3-214.6,1.2-332.7,0.8l-38.6,0.6c-45.7,0-157.9,0.7-220.5,0.2c-181.8-0.4,13.3-1.3,19.9-1.9l-150.2-0.4
					c-174.1,1.5-286.6-2.1-434.3-0.3l15.1-0.4c84.4-0.6-27.1-1.6-86.8-1.6l-46.9,0.4c-74.2,1.7-295.3,0.6-443.5,1.1
					c-31.8,0-44.5-0.4-16.8-0.5l-162.7-0.7c-46.5,1.6-119.2,0-216.2,0.3c-66.5,0.7-86.9,1.4-175.6,1.8
					c-225.2-1.2-359.1,0.5-560.9-0.9c-31.3,1.2-156,1.5-59.6,2.9c-96-0.4-187.2-0.8-277.3-1.2c0.2-53,0.5-105.6,0.7-158.7
					c0.2-53.5,0.3-107.5,0.5-162.7c-0.2-14.1-0.4-29.4-0.6-43.2C13.7,186,8.7-27.5,7.6,190.8z"/>
				<path class="st2" d="M4152.2,276.9l0,91.6l0.3-12.7C4153,320.8,4152.1,322.8,4152.2,276.9z"/>
				<path class="st0" d="M1573.6,27.3c87-0.5,188.4-1.5,130.4-2.1c-115.8-0.1-202.8,0.8-318.6,0.2c0,0.1,0.6,0.1,1.6,0.2
					c1.1,0.1,2.6,0.1,4.7,0.2c4,0.1,9.9,0.2,17,0.3c14.3,0.1,33.7,0.3,54.5,0.5C1504.9,26.8,1551.9,27,1573.6,27.3z"/>
				<path class="st2" d="M2727.2,597.3l-133.2,0.1l29.5,0.8C2732,598.6,2653.6,597.3,2727.2,597.3z"/>
				<path class="st0" d="M2022.6,17.2c0-0.2,7.3-0.5,7.3-0.6c0,0-0.4-0.1-1.6-0.1c-1.1,0-2.9,0-5.6-0.1c-5.4,0-14.4,0-28.9,0.1
					l-87,0.8C1921.3,17.1,2051.6,18,2022.6,17.2z"/>
				<path class="st0" d="M2326.9,15.3l-14.5-1.5c-43.5,0.2-72.4,0.8-115.8,0.6C2254.4,14.7,2254.4,15.4,2326.9,15.3z"/>
				<path class="st0" d="M1704,15.1c159.4,1.5,173.9-1.8,304.3,0.1c188.3-0.4,130.3-1.7,86.9-2.9c-72.5,0,0,1.7-115.9,2.2
					c-72.5-0.2-159.4-0.5-173.8-1.3C1617.1,13,1805.5,14.6,1704,15.1z"/>
				<polygon class="st0" points="2326.9,11.9 2240,11.9 2283.4,12.9 				"/>
				<polygon class="st0" points="1704,10.8 1631.6,11.4 1762,11.5 				"/>
				<path class="st0" d="M1877.9,7.9h-58.2c-43.4,0.4-72.2,0.8-28.8,1.2C1863.4,9,1848.9,8.3,1877.9,7.9z"/>
				<path class="st2" d="M392,18c180,2.2,415.1,4,670.8,5c48.7-0.5,99.6-0.9,156.9-1.3l159.9,1.1c159.3,0,347.5-0.4,448.1-2
					c29.1,0.4,29.2,0.4,58.3,0.7c57.6-0.5,173.9,0,231.3-0.9c72.7,0.5,73.1,1.2,117,1.9c158.9-0.7,362.7,1.2,521.3,0
					c73.8,2.1,231.2-1.2,319.2,0.7c174.2,0.7,362.1-0.1,404.7-1.5c0.2,0.4-57.2,1.3,15.6,1.8c7.1,0,17.9-0.1,27-0.2
					c4.5,0,8.6-0.1,11.5-0.1c1.5,0,2.7,0,3.5,0c0.4,0,0.7,0,0.9,0c0.2,0,0.3,0,0.3,0c14.4,0,145.1,0.6,188.2,0
					c17.7-0.2,23.1-0.4,19-0.6c-171-1.6,205.9-5.9,338.2-8.1c20-0.1,40.6-0.3,60.6-0.4c-73.4-0.3-153.8-0.6-249.3-0.5
					c29.2,0.6-115.8,0.5-43,1.1c14.6,0,28.9-0.1,43.4-0.1l101.9,0.7c-86.8,0.5-289.9-0.2-347.3,1c-101.5-0.4-131.1-1.3-189.4-2
					c-159.3-0.1-348.2-1.1-478-0.1c-159.3,0.2-188.8-0.8-232.8-1.7c-72.2,0.5-202.9-0.1-231.3,0.7c-130.8-0.7-175.2-2.2-233.7-3.3
					c-101.8-0.6-101.4,0.1-173.4,0.7c-203-0.2,42-2.4-189.8-2.4c-43.5-0.1-94.1,0.1-133.7,0.4c-19.8,0.2-36.9,0.3-49,0.5
					c-6.1,0.1-10.9,0.2-14.2,0.3c-3.3,0.1-5,0.2-5,0.3C1618.2,9,1488.4,9.8,1415.4,9c-158.1,2.3-362.6-1-549.8,1.1
					c-208-0.2-369.7,1-565.7,1.7C253.9,14,281.9,16.1,392,18z"/>
			</g>
		</g>
	</g>
</g>
</svg>
