<?xml version="1.0" encoding="utf-8"?>
<!-- Generator: Adobe Illustrator 23.0.1, SVG Export Plug-In . SVG Version: 6.00 Build 0)  -->
<svg version="1.1" id="Layer_1" xmlns="http://www.w3.org/2000/svg" xmlns:xlink="http://www.w3.org/1999/xlink" x="0px" y="0px"
	 viewBox="0 0 9026.9 1761" style="enable-background:new 0 0 9026.9 1761;" xml:space="preserve">
<style type="text/css">
	.st0{fill:#A1D1C7;}
	.st1{fill:#FFFFFF;}
</style>
<g>
	<polygon class="st0" points="9002.4,1594 94,1565.2 108.4,123.7 9016.8,8.4 	"/>
	<g>
		<g>
			<g>
				<path class="st1" d="M6824.9,35.7C6664.5,37.9,6921,34.5,6824.9,35.7l-352.2,4.8C6761.1,36.6,6344.7,41.8,6824.9,35.7z"/>
				<path class="st1" d="M6280.7,43.6l-64.1,0.9c-96.1,1.2-288.4,3.6-160.2,1.9C6120.6,45.6,6184.6,44.8,6280.7,43.6z"/>
				<path class="st0" d="M6664.6,41l-127.9,1.6c64.2-0.9,95.9-1.3,192.2-2.6L6664.6,41z"/>
				<path class="st0" d="M101.7,960.5c-0.2,14.3-0.4,35.3-0.8,69.6c0-14.6,0.3-57.3,1.6-191.9c1.3-120,3.9-395.6,3.7-350.1
					l-0.3,30.5c0.2-6.7,1.9-151.7,3.4-304.5c0.2-33.7-1.2,92.9,0.1-53.8c0.1-11.4,0.2-22.9,0.3-35.5c174.5-2.2,376.7-4.8,514.7-6.5
					l140-2.1c181-2.2,228-2.8,357-4.3l-95,1.4c68.2-0.8,10.9,0.2,243.9-2.8c155.8-2.1,186.6-2.5,391.8-5.3
					c245.9-3.2,677.5-8.7,969.5-12.4c286.1-4.2,874.7-11.1,1093.5-14.5c472.8-6,523.3-7,774-10.5c365.7-4.4-477.1,6.6-282.8,4.3
					c533.8-6.9,1116.3-14.5,1662-21.5c137.3-2-99.8,0.9,185.3-2.9c-94.2,1.3,10.6,0.2,111.9-1.1c-110.6,1.4,2.6-0.1,15.1-0.4
					l-80.2,1c-57.4,0.3,383.4-4.9,572.6-7.6c86.5-1-101.3,1.3-115.9,1.7c2,0.1,24-0.1,78-0.7c54.1-0.7,140.2-1.7,270.7-3.3
					c514.3-6.6,875.3-11.3,1445.3-18.6c-25.5,0.1,134.4-1.8,226.2-3.1c-115.8,1.7,111.6-1.1,222.2-2.5c89.2-1.3,127.6-1.9,205.8-3
					c-0.3,38.6-0.8,87.4-1.4,157.2l1.6-142.5c0-3.9,0.1-8.3,0.1-15.1c-93.1,1.2-357.8,4.8-493.5,6.6c-90.4,0.8-714.1,9.4-648.5,8
					l89.5-1.1c328.3-4.1,495.4-6.7,804.5-10.9c107.2-1.3,183.6-2.2,248.5-3c-0.9,87-1.6,154.5-2.6,248.7
					c-1.7,199.7-2.2,254.3-3.1,358.3c-1.7,174.4-2.5,261-3.5,359.6c-0.5,61,0.3-27.9-0.2,33.3c-0.8,80-1.6,169.1-2.2,230.2
					c0.1,29.7,3.1-304.8,5-504.4c-0.4,51.8-0.5,64-1.1,134.6c-0.5,61-0.5,48.8-0.6,58.4l-1.1,122.7c0.1,2.9,0.5-22.6-1,139.8
					l-1.1,96.1c-3,321.8-3.9,476.9-0.1,62.4l0.1-36.1l3.9-396.9c0.8-64.7-1.6,187-1.4,192c-0.3,57.4,2.9-283.6,4.4-433.8
					c1.3-155.7-1.1,96-2.1,206.1l1.7-222.2c0.5-61.1,1.4-150.6,1.5-147.7c0.7-68.5,0.3,10.7,1.4-111.9c3.3-352.8-0.2-20,2.5-314.7
					c-1.1,81.3-5.7,575.3-7.3,732.4l-1.2,131.6c-0.7,56,1.9-214,0-14.3c1.3-140.4,2.8-306.8,4.3-470.5
					c1.6-163.6,3.2-324.5,4.5-454.3c-46.3,0.6-88.3,1.1-125.2,1.5c-4-0.2-271.5,3.1-60.8,0.1c-110.6,1.4-166.3,2.1-319.7,4
					c-415.5,5.4-595.2,7.7-962.9,12.5c49.3-0.6-24.4,0.4-35.8,0.7c-513.2,6.5,158.8-3-546.1,6.3c-122.3,1.6-186.6,2.6-149.1,2.2
					c89.1-1.1,175.7-2.2,319.6-4c-2.5,0.1,230.1-2.9,93-0.9c-322.3,4.3-474.4,6.3-735.3,9.7l-85.3,1.3c-101,1.3-348.9,4.5-487.3,6.4
					c-401.9,5.1,29.5-0.7,44-1.1l-331.9,4.2c-384.9,5.3-633.4,7.7-959.9,12.4l33.3-0.5c186.6-2.6-59.8,0.4-191.9,2.1l-103.7,1.4
					c-163.9,2.5-652.7,8.6-980.3,13c-70.3,0.9-98.5,1.2-37.2,0.4l-359.7,4.5c-102.8,1.7-263.5,3.4-477.9,6.3
					c-147,2.1-192,2.7-388.1,5.5c-497.8,6.4-793.7,10.1-1239.7,15.8c-69.1,1.2-344.8,4.8-131.8,2.4c-239,3-464.7,5.8-689,8.6
					c-2.2,211.8-4.4,422.4-6.7,641.6c-0.3,31.3-0.6,65-0.8,95.5C100,971.1,96.6,1442.9,101.7,960.5z"/>
				<path class="st0" d="M9005.7,1020.9l1.8-202.6l-0.3,28C9006.4,923.7,9006.6,919.5,9005.7,1020.9z"/>
				<path class="st1" d="M3319.4,1578c192.4,0.5,416.4,1,288.2,0.4c-255.9-0.8-448.3-1.4-704.3-2.2c0,0,0.3,0,0.9,0
					c0.6,0,1.5,0,2.7,0c2.4,0,5.9,0,10.3,0.1c8.9,0,21.8,0.1,37.6,0.2c31.5,0.1,74.5,0.3,120.5,0.5
					C3167.5,1577.4,3271.5,1577.9,3319.4,1578z"/>
				<path class="st0" d="M6177.6,43.9l-294.4,3.8l65.1-0.6C6188.2,44.1,6015.1,46,6177.6,43.9z"/>
				<path class="st1" d="M4311.9,1578.7c0,0,0.3,0,0.7,0c0.4,0,1.1,0,1.8,0c1.5,0,3.5,0,5.5,0c2,0,4,0,5.5,0c0.8,0,1.4,0,1.8,0
					c0.4,0,0.7,0,0.7,0s-0.2,0-0.8,0c-0.6,0-1.4,0-2.7,0c-2.5,0-6.5,0-12.4-0.1c-12,0-31.9-0.1-63.9-0.2l-192.4-0.4
					C4088,1578,4376.1,1579.1,4311.9,1578.7z"/>
				<path class="st1" d="M4984.5,1580.4l-32-0.5c-96.1-0.3-160-0.4-256.1-0.7C4824.5,1579.8,4824.5,1579.8,4984.5,1580.4z"/>
				<path class="st1" d="M3607.7,1575.9c352.3,1.5,384.5,0.8,672.6,2.2c416.2,1.3,288,0.5,192-0.1c-160.3-0.5,0,0.4-256.2-0.3
					c-160.2-0.6-352.5-1.3-384.1-1.6C3415.5,1574.8,3832,1576.5,3607.7,1575.9z"/>
				<polygon class="st1" points="4984.5,1579.6 4792.5,1579 4888.5,1579.5 				"/>
				<polygon class="st1" points="3607.7,1574.9 3447.7,1574.5 3735.8,1575.5 				"/>
				<path class="st1" d="M3992.2,1575.4l-128.5-0.4c-95.9-0.2-159.6-0.3-63.7,0.1C3960,1575.5,3928,1575.3,3992.2,1575.4z"/>
				<path class="st0" d="M707.5,1567.3c397.9,1.6,917.6,3.7,1482.8,6.1c107.7,0.3,220.2,0.5,346.9,0.8l353.5,1.4
					c352.2,1.1,768.2,2.4,990.5,2.7c64.4,0.3,64.6,0.3,128.9,0.6c127.4,0.4,384.4,1.1,511.2,1.4c160.6,0.8,161.6,0.8,258.7,1.3
					c351.2,1.1,801.8,2.6,1152.3,3.7c163,1,511,1.3,705.7,2.5c385.1,1.4,800.5,2.6,894.7,2.5c-0.3,0-31.4,0.1-43,0.1
					c-11.5,0-3,0.2,77.5,0.5c31.5,0.1,95.5,0.2,95.6,0.2c31.8,0.1,320.7,1,416,1.3c39.1,0.1,51,0.1,42,0c-377.9-1.6,455,0,747.6,0.4
					c44.2,0.1,89.6,0.2,134,0.3c-162.1-0.6-339.9-1.2-551-1.9c64.6,0.4-256-0.7-95,0c32.2,0.1,63.8,0.2,95.9,0.3l225.3,0.9
					c-191.9-0.6-640.8-1.9-767.7-2.2c-224.3-1-289.8-1.3-418.7-1.9c-352.2-1.1-769.8-2.5-1056.6-3.4c-352.1-1.1-417.4-1.6-514.6-2.1
					c-159.7-0.5-448.4-1.3-511.2-1.5c-289.2-1.1-387.2-1.8-516.6-2.5c-224.9-0.9-224.2-0.7-383.3-1.1c-448.7-1.5,92.9-0.3-419.5-2
					c-96.1-0.3-207.9-0.6-295.6-0.9c-43.8-0.1-81.6-0.2-108.4-0.2c-13.4,0-24,0-31.3,0c-3.6,0-6.4,0-8.3,0c-1.9,0-2.8,0-2.8,0
					c-224.9-0.8-512-1.8-673.4-2.4c-349.5-0.6-801.6-2.8-1215.3-3.7c-459.7-1.3-817.2-2.4-1250.5-3.6
					C402.2,1565.3,464.2,1566,707.5,1567.3z"/>
			</g>
		</g>
	</g>
</g>
</svg>
