<?xml version="1.0" encoding="utf-8"?>
<!-- Generator: Adobe Illustrator 23.0.1, SVG Export Plug-In . SVG Version: 6.00 Build 0)  -->
<svg version="1.1" id="Layer_1" xmlns="http://www.w3.org/2000/svg" xmlns:xlink="http://www.w3.org/1999/xlink" x="0px" y="0px"
	 viewBox="0 0 27 27" style="enable-background:new 0 0 27 27;" xml:space="preserve">
<style type="text/css">
	.st0{fill:#FAC7C3;}
</style>
<g id="GP6d4M_1_">
	<g>
		<path class="st0" d="M27,4.1c0,6.3,0,12.6,0,18.9c0,0.1,0,0.1-0.1,0.2c-0.4,1.9-1.6,3.1-3.4,3.7c-0.2,0.1-0.4,0.1-0.6,0.1
			c-1.7,0-3.5,0-5.2,0c0-0.1,0-0.2,0-0.2c0-3.2,0-6.5,0-9.7c0-0.1,0-0.2,0-0.3c0.1,0,0.2,0,0.3,0c1.3,0,2.6,0,4,0
			c0.2,0,0.3,0,0.3-0.2c0-1.3,0-2.7,0-4c0-0.1,0-0.2,0-0.3c-1.5,0-3,0-4.5,0c0-0.7,0-1.4,0-2c0-0.6,0.4-1,1.1-1c1,0,2.1,0,3.1,0
			c0.1,0,0.2,0,0.3,0c0-1.5,0-3,0-4.5c-0.1,0-0.2,0-0.2,0c-1.1,0-2.2,0-3.3,0c-1,0-1.9,0.3-2.7,0.8c-1.4,1-2.2,2.3-2.4,3.9
			c-0.1,0.8-0.1,1.6-0.1,2.5c0,0.1,0,0.2,0,0.3c-1.1,0-2.2,0-3.3,0c0,0.1,0,0.1,0,0.2c0,1.4,0,2.7,0,4.1c0,0.2,0.1,0.2,0.2,0.2
			c0.9,0,1.9,0,2.8,0c0.1,0,0.2,0,0.3,0c0,3.4,0,6.8,0,10.2c-3.1,0-6.3,0-9.4,0c-0.1,0-0.1,0-0.2-0.1c-1.9-0.4-3.2-1.6-3.7-3.4
			C0.1,23.3,0,23.1,0,22.9c0-6.3,0-12.6,0-18.9C0,4,0.1,3.9,0.1,3.8c0.4-1.8,1.6-3,3.4-3.6C3.6,0.1,3.8,0.1,4.1,0
			c6.3,0,12.6,0,18.9,0c0.1,0,0.1,0,0.2,0c1.9,0.4,3.2,1.6,3.8,3.5C26.9,3.7,27,3.9,27,4.1z"/>
	</g>
</g>
</svg>
