<?xml version="1.0" encoding="utf-8"?>
<!-- Generator: Adobe Illustrator 23.0.1, SVG Export Plug-In . SVG Version: 6.00 Build 0)  -->
<svg version="1.1" id="Layer_1" xmlns="http://www.w3.org/2000/svg" xmlns:xlink="http://www.w3.org/1999/xlink" x="0px" y="0px"
	 viewBox="0 0 300.6 222.7" style="enable-background:new 0 0 300.6 222.7;" xml:space="preserve">
<style type="text/css">
	.st0{clip-path:url(#XMLID_3_);}
	.st1{clip-path:url(#XMLID_4_);}
	.st2{fill:#FFFFFF;}
	.st3{fill:#F9C553;}
	.st4{fill:#010101;}
	.st5{fill:#FAC8C4;}
	.st6{fill:#E2472F;}
	.st7{fill:#A1D1C7;}
	.st8{fill:#A1D1C7;stroke:#A1D1C7;stroke-width:0.5;stroke-miterlimit:10;}
	.st9{fill:#F3F0EE;}
</style>
<g>
	<defs>
		<path id="XMLID_10_" d="M10.9,4.7l1.7,24.5c0.1,1.9,0.1,3.8-0.1,5.7c-1.5,16.6-8.7,102.9-2.9,139.1c4.9,30.9,2.4,40.2,1,42.8
			c-0.2,0.4,0.1,1,0.6,1l222.3,3.1l52,1.9l5-71.8c0.4-5.6,0.4-11.2,0.1-16.8l-3.2-52.5c-0.7-11.1,0.1-22.3,2.5-33.2l1.5-6.8
			c1.5-7,1.3-14.2-0.5-21.2l-4.5-17.2L10.9,4.7z"/>
	</defs>
	<use xlink:href="#XMLID_10_"  style="overflow:visible;fill:#FFFFFF;"/>
	<clipPath id="XMLID_3_">
		<use xlink:href="#XMLID_10_"  style="overflow:visible;"/>
	</clipPath>
	<g class="st0">
		<g>
			<defs>
				<rect id="XMLID_12_" x="3" width="302.9" height="217.1"/>
			</defs>
			<use xlink:href="#XMLID_12_"  style="overflow:visible;fill:#368C86;"/>
			<clipPath id="XMLID_4_">
				<use xlink:href="#XMLID_12_"  style="overflow:visible;"/>
			</clipPath>
			<g id="Pj8NTx.tif_1_" class="st1">
				<g>
					<path class="st2" d="M40.6,109c0-0.6,0-1.4,0-2.1c0-0.7,0-1.3,0.2-2c0.2-1,0.5-2,0.9-3c0.1-0.3,0.4-0.5,0.7-0.8
						c0.2-0.2,0.7,0.1,0.8,0.4c0.2,0.7,0.4,1.5,0.5,2.2c0.1,1.3,0.1,2.7-0.3,4c-0.3,0.8-0.7,1.6-1.5,2
						C41.2,109.9,40.9,109.7,40.6,109z"/>
					<path class="st2" d="M78.7,92.5c0.1,0.5,0.3,1.1,0.5,1.7c0.1,0.5,0.3,1-0.2,1.3c-0.5,0.4-0.9-0.1-1.2-0.4
						c-0.6-0.7-1.2-1.4-1.6-2.2c-0.5-1.1-0.9-2.2-1.2-3.4c-0.2-0.7-0.1-1.5-0.1-2.3c0-0.1,0.1-0.3,0.1-0.4c0.3-0.5,0.6-0.5,0.9,0
						c0.5,0.9,0.9,1.8,1.4,2.7C77.8,90.5,78.2,91.4,78.7,92.5z"/>
					<path class="st2" d="M74.1,69.6c0.4,1.1,0.9,2.2,1.3,3.3c0.3,0.8,0.5,1.6,0.7,2.4c0.1,0.7,0.1,1.5,0.1,2.2
						c0,0.3-0.2,0.6-0.3,0.8c-0.2,0.3-0.5,0.3-0.8,0.1c-0.5-0.4-0.9-0.8-1.1-1.5c-0.2-1.1-0.5-2.1-0.6-3.2c-0.2-1.3-0.2-2.7-0.2-4
						c0-0.1,0-0.3,0-0.4c0.1-0.2,0.3-0.4,0.5-0.6c0.2,0.2,0.4,0.3,0.5,0.5c0.1,0.1,0.1,0.2,0.1,0.3C74.2,69.5,74.2,69.6,74.1,69.6z"
						/>
					<path class="st2" d="M37.6,54.9c0.5,1.8,0.9,3.6,1.4,5.4c0.1,0.4,0,0.8-0.1,1.2c-0.1,0.2-0.3,0.6-0.5,0.6
						c-0.2,0.1-0.5-0.1-0.8-0.3c-0.6-0.5-0.8-1.2-1-1.9c-0.4-1.2-0.8-2.4-1.1-3.7c-0.2-0.7-0.2-1.4-0.1-2.1c0-0.4,0.6-1,1-1
						c0.1,0,0.3,0.1,0.3,0.2c0.2,0.3,0.3,0.5,0.4,0.8c0.1,0.3,0.2,0.5,0.3,0.8C37.5,54.9,37.6,54.9,37.6,54.9z"/>
					<path class="st2" d="M49,59.2c0.1,0.2,0.2,0.4,0.2,0.6c0,0.2,0,0.5-0.1,0.6c-0.1,0.1-0.4,0.2-0.6,0.1c-0.4-0.2-0.8-0.4-1.1-0.7
						c-0.9-1.1-1.9-2.2-2.7-3.3c-0.6-0.9-1.1-1.9-1.6-2.9C43,53.2,43,52.9,43,52.7c0-0.3,0.2-0.4,0.5-0.3c1,0.1,1.5,0.8,2,1.5
						c0.2,0.3,0.5,0.4,0.7,0.7C47.3,56,48.3,57.5,49,59.2z"/>
					<path class="st2" d="M58.3,92.3c0.1,0.4,0.3,0.8,0.3,1.3c0,0.3,0,0.7-0.2,0.8c-0.2,0.1-0.6,0.1-0.9,0c-1-0.4-1.6-1.3-2-2.3
						c-0.5-1.1-0.9-2.3-1.4-3.4c-0.2-0.5-0.4-1-0.6-1.6c0-0.2,0-0.4,0.1-0.5c0.1-0.2,0.3-0.5,0.5-0.5c0.1,0,0.4,0.2,0.5,0.4
						c1.1,1.6,2.2,3.3,3.2,5C58,91.6,58.1,92,58.3,92.3z"/>
					<path class="st2" d="M62,102.6c0-0.6,0.1-1.1,0.1-1.7c0-0.2,0.1-0.4,0.1-0.6c0-0.8,0.1-1.5,0.5-2.3c0.3-0.8,0.6-1.6,1-2.3
						c0.2-0.4,0.5-0.7,0.9-1.1c0.2-0.2,0.5-0.2,0.6,0.1c0.1,0.1,0.1,0.3,0.2,0.4c0.1,1.4,0.1,2.7-0.4,4c-0.4,1.1-1,2.1-1.5,3.1
						c-0.1,0.2-0.3,0.3-0.5,0.5c-0.5,0.4-0.6,0.4-0.8-0.2C62.1,102.6,62.1,102.6,62,102.6z"/>
					<path class="st2" d="M41.6,87.6c-0.1-0.2-0.2-0.5-0.2-0.7c-0.2-2-0.3-4,0.1-6c0.1-0.6,0.4-1.2,0.7-1.7c0.1-0.2,0.4-0.3,0.5-0.3
						c0.2,0,0.4,0.3,0.4,0.5c0.1,0.9,0.3,1.9,0.3,2.8c0,1.5-0.1,3.1-0.3,4.6c-0.1,0.5-0.6,1-0.9,1.5c0,0-0.3-0.1-0.5-0.2
						C41.7,87.9,41.7,87.7,41.6,87.6C41.6,87.6,41.6,87.6,41.6,87.6z"/>
					<path class="st2" d="M49.5,98.7c-0.1-0.6-0.3-1.2-0.4-1.8c0-0.3,0-0.7,0.1-1.1c0.1-0.4,0.5-0.5,0.8-0.2
						c0.2,0.2,0.4,0.5,0.6,0.8c0.7,1.2,1.5,2.4,2.2,3.7c0.4,0.7,0.6,1.5,0.8,2.3c0,0.1,0,0.3,0,0.4c0,0.4-0.3,0.6-0.7,0.4
						c-0.8-0.5-1.5-1.1-1.9-1.9c-0.3-0.7-0.8-1.2-1.2-1.9C49.8,99.3,49.7,99,49.5,98.7C49.6,98.7,49.6,98.7,49.5,98.7z"/>
					<path class="st2" d="M79.1,86.8c-0.3-1.6-0.6-3.2-0.9-4.8c0-0.1,0-0.3,0.1-0.4c0.2-0.5,0.4-0.6,0.8-0.2
						c0.3,0.4,0.6,0.9,0.9,1.4c0.4,0.8,0.7,1.7,1.1,2.5c0.3,0.6,0.5,1.2,0.8,1.8c0.2,0.5,0.3,1,0.4,1.5c0.1,0.3,0.1,0.7-0.3,0.8
						c-0.2,0.1-0.6,0-0.8-0.2c-0.7-0.7-1.6-1.4-1.8-2.5C79.2,86.8,79.2,86.8,79.1,86.8z"/>
					<path class="st2" d="M62.2,69.7c0.5,1.9,0.7,3.9,0.4,5.8c-0.1,0.5-0.2,1-0.3,1.5c-0.1,0.4-0.4,0.6-0.7,0.5
						c-0.3,0-0.6-0.2-0.7-0.4c-0.6-0.8-0.4-1.8-0.4-2.7c-0.1-1.5,0.2-3,0.7-4.5c0.1-0.2,0.2-0.5,0.3-0.6c0.1-0.1,0.2-0.2,0.4-0.3
						c0.1,0.1,0.2,0.2,0.3,0.4C62.2,69.5,62.2,69.6,62.2,69.7z"/>
					<path class="st2" d="M71.3,80.8c0.3,0.9,0.6,1.8,0.9,2.7c0.2,0.5-0.1,0.8-0.7,0.7c-0.8-0.2-1.2-0.7-1.5-1.3
						c-0.6-1.2-1.2-2.4-1.6-3.6c-0.3-0.7-0.3-1.6-0.4-2.3c0-0.2,0.2-0.4,0.4-0.5c0.3-0.1,0.6-0.1,0.7,0.2
						C69.9,78,70.7,79.4,71.3,80.8C71.4,80.8,71.3,80.8,71.3,80.8z"/>
					<path class="st2" d="M51.9,72c-0.4-1.4-0.8-2.8-1.2-4.1c-0.1-0.4,0-0.7,0.4-0.9c0.3-0.2,0.5-0.2,0.7,0.1c0.3,0.5,0.6,1,0.9,1.6
						c0.6,1.4,1.3,2.8,1.9,4.2c0.3,0.7,0.3,1.4,0.4,2.1c0.1,0.5-0.1,0.5-0.5,0.4c-0.6-0.2-1-0.6-1.3-1.2
						C52.7,73.4,52.4,72.7,51.9,72C52,71.9,51.9,72,51.9,72z"/>
					<path class="st2" d="M61.5,43c-0.4-1.4-0.7-2.7-1.1-4.1c0-0.2,0-0.5,0.1-0.5c0.3-0.1,0.6-0.1,0.9,0c0.3,0.1,0.5,0.4,0.7,0.7
						c1,1.4,1.7,3,2.1,4.7c0.1,0.6,0.3,1.1,0.1,1.7c-0.2,0.4-0.4,0.4-0.7,0.2c-0.8-0.4-1.2-1-1.5-1.8C61.8,43.7,61.7,43.3,61.5,43
						C61.5,43,61.5,43,61.5,43z"/>
					<path class="st2" d="M32.1,88.8c-0.3-1.2-0.7-2.5-0.5-3.8c0.1-0.8,0.4-1.6,0.7-2.4c0.1-0.3,0.5-0.3,0.7,0.1
						c0.2,0.4,0.3,0.9,0.4,1.3c0.2,1.2,0.5,2.5,0.7,3.7c0.1,0.5-0.1,1-0.2,1.5c-0.1,0.3-0.3,0.5-0.5,0.7c-0.3,0.3-0.6,0.2-0.8-0.2
						C32.4,89.5,32.3,89.1,32.1,88.8z"/>
					<path class="st2" d="M43.6,62.9c0.7,0.8,0.6,1.7,0.6,2.5c0,1.5-0.1,2.9-0.8,4.3c-0.2,0.4-0.4,0.7-0.6,1c-0.3,0.4-0.9,0.3-1-0.2
						c-0.1-0.2-0.1-0.5-0.1-0.7c0.1-1.1,0.1-2.3,0.3-3.4c0.2-1,0.5-1.9,0.9-2.9C43.1,63.3,43.4,63.1,43.6,62.9z"/>
					<path class="st2" d="M28.8,47.3c0.2,0,0.4,0,0.5,0.1c0.2,0.1,0.4,0.3,0.4,0.4c0.1,1.3,0.3,2.6,0.2,3.9c0,1.1-0.2,2.1-0.4,3.2
						c-0.1,0.6-0.6,0.9-1.1,0.7c-0.2-0.1-0.4-0.4-0.4-0.6c0-1,0-1.9,0-2.9c0-1,0.1-2,0.1-3.1C28.2,48.3,28.3,47.7,28.8,47.3z"/>
					<path class="st2" d="M63.8,61.1c-0.3-0.8-0.6-1.5-0.9-2.3c-0.2-0.5-0.2-1-0.3-1.5c0-0.2,0.1-0.4,0.2-0.5c0.1-0.1,0.4,0,0.5,0.1
						c0.2,0.2,0.4,0.5,0.6,0.8c0.3,0.5,0.5,1,0.8,1.5c0.7,1.3,1.4,2.6,1.7,4.1c0.1,0.5,0.2,1-0.3,1.2c-0.5,0.2-0.9-0.2-1.2-0.5
						c-0.2-0.2-0.3-0.4-0.4-0.6c-0.3-0.8-0.6-1.5-0.9-2.3C63.7,61.1,63.8,61.1,63.8,61.1z"/>
					<path class="st2" d="M56.3,58c0.2,0.7,0.5,1.7,0.8,2.7c0.1,0.4,0.1,0.8,0.1,1.2c0,0.4-0.3,0.6-0.7,0.5c-0.6-0.1-1-0.5-1.2-1
						c-0.5-1.5-1-3-1.4-4.5c-0.1-0.4-0.1-1,0-1.4c0.1-0.5,0.5-0.6,0.9-0.3C55.5,55.9,55.8,56.8,56.3,58z"/>
					<path class="st2" d="M64.1,86.1c0.3-0.1,0.5-0.2,0.6-0.2c0.2,0,0.5,0.1,0.6,0.3c1,1.2,1.8,2.5,2.3,4c0.3,0.8,0.5,1.7,0.7,2.5
						c0,0.2-0.1,0.4-0.1,0.6c-0.2-0.1-0.4-0.1-0.6-0.2c-1-0.6-1.5-1.5-1.9-2.5c-0.6-1.4-1.1-2.8-1.7-4.2
						C64.1,86.3,64.1,86.2,64.1,86.1z"/>
					<path class="st2" d="M34.7,76.1c0-0.7,0-1.3,0.1-1.9c0.1-1.4,0.8-2.7,1.3-4c0.1-0.3,0.4-0.5,0.6-0.7c0.1-0.1,0.4-0.2,0.5-0.2
						c0.1,0.1,0.3,0.3,0.3,0.5c0,0.8,0,1.6-0.2,2.4c-0.1,0.9-0.4,1.7-0.6,2.6c-0.1,0.5-0.4,1-0.6,1.5c-0.1,0.2-0.4,0.4-0.5,0.3
						C35.3,76.6,35.1,76.4,34.7,76.1z"/>
					<path class="st2" d="M30.6,66.6c0.6,1.4,1,2.8,1,4.4c0,0.4-0.2,0.8-0.4,1.1c-0.2,0.4-0.6,0.4-0.8,0c-0.2-0.3-0.3-0.6-0.4-0.9
						c-0.6-2-1-4-1.3-6c0-0.2,0-0.4,0.1-0.7c0.1-0.3,0.2-0.2,0.5-0.2c0.7,0.1,0.7,0.7,0.9,1.1C30.3,65.9,30.5,66.2,30.6,66.6z"/>
					<path class="st2" d="M47.1,89.1c0,0.3,0,0.6,0,0.9c-0.2,2.1-0.3,4.2-1.4,6c-0.1,0.2-0.4,0.4-0.6,0.5c-0.2,0-0.5-0.2-0.6-0.4
						c-0.1-0.3-0.2-0.6-0.1-0.9c0.3-1.4,0.5-2.9,1-4.3c0.2-0.7,0.7-1.4,1.2-2C46.6,88.6,46.9,88.6,47.1,89.1z"/>
					<path class="st2" d="M40.3,41c0.7,0.2,0.8,0.8,0.8,1.3c0,1-0.1,2.1-0.2,3.1c-0.1,0.6-0.2,1.2-0.4,1.8c-0.1,0.3-0.2,0.6-0.3,0.8
						c-0.2,0.3-0.5,0.7-0.9,0.6c-0.5-0.1-0.4-0.6-0.5-0.9c-0.1-1.6,0.1-3.2,0.6-4.8C39.6,42.2,40,41.6,40.3,41z"/>
					<path class="st2" d="M55.8,80.4c-0.1-0.1-0.1-0.3-0.2-0.4c-0.1-0.3-0.2-0.7,0.1-0.9c0.3-0.2,0.7-0.1,1,0.2
						c0.6,0.7,1.2,1.4,1.7,2.2c0.7,0.9,1.5,1.9,2.2,2.8c0.2,0.3,0.3,0.6,0.5,0.9c0,0.1,0,0.4-0.1,0.4c-0.1,0.1-0.4,0.1-0.5,0
						c-0.5-0.3-1.1-0.6-1.5-1c-0.9-1-1.8-2.1-2.7-3.2C56.1,81.2,56,80.8,55.8,80.4C55.8,80.4,55.8,80.4,55.8,80.4z"/>
					<path class="st2" d="M47,85.9c-0.1-0.1-0.3-0.2-0.4-0.3c-0.6-0.7-0.2-1.5,0-2.3c0.2-1,0.4-2,0.7-2.9c0.2-0.7,0.6-1.4,1-2
						c0.2-0.3,0.7-0.2,0.8,0.2c0.1,0.3,0.1,0.7,0.1,1.1c-0.3,1.5-0.6,3-0.9,4.4c-0.1,0.5-0.4,0.9-0.6,1.3
						C47.5,85.6,47.3,85.7,47,85.9z"/>
					<path class="st2" d="M70.2,98.6c-0.3-1.1-0.4-2.2,0-3.2c0.4-1.1,0.8-2.1,1.3-3.2c0.1-0.2,0.3-0.3,0.5-0.5
						c0.1,0.2,0.4,0.4,0.4,0.6c0.2,1.7,0.1,3.4-0.6,5c-0.2,0.5-0.3,1-0.6,1.5c-0.1,0.2-0.3,0.3-0.5,0.5c-0.1-0.2-0.3-0.3-0.4-0.5
						C70.2,98.7,70.2,98.7,70.2,98.6z"/>
					<path class="st2" d="M39.6,90.8c0.4,1.8,0.4,3.4,0.2,5c0,0.3-0.1,0.7-0.2,1c-0.1,0.6-0.4,0.9-0.8,0.9c-0.3,0-0.7-0.6-0.8-1
						c0-0.3,0-0.5,0-0.8c0.1-1.3,0.2-2.6,0.3-3.9c0-0.3,0.1-0.6,0.1-0.9c0-0.4,0.3-0.6,0.6-0.6C39.3,90.5,39.5,90.8,39.6,90.8z"/>
					<path class="st2" d="M64.5,67.9c-0.1-0.2-0.2-0.5-0.1-0.7c0-0.2,0.1-0.4,0.3-0.5c0.1-0.1,0.4,0,0.5,0.1c1.6,1.6,2.9,3.4,4,5.4
						c0.2,0.3,0.4,0.7,0.1,1c-0.4,0.3-0.7,0-1-0.3C66.8,71.5,65.5,69.9,64.5,67.9z"/>
				</g>
			</g>
			<g class="st1">
				<circle class="st3" cx="63.2" cy="-2.5" r="2.2"/>
				<circle class="st3" cx="76.9" cy="1.7" r="2.2"/>
				<circle class="st3" cx="91.8" cy="5.6" r="2.2"/>
				<circle class="st3" cx="105" cy="9.1" r="2.2"/>
				<circle class="st3" cx="118.1" cy="12.7" r="2.2"/>
				<circle class="st3" cx="132.6" cy="15.8" r="2.2"/>
				<circle class="st3" cx="144.1" cy="18.3" r="2.2"/>
				<circle class="st3" cx="158" cy="21.4" r="2.2"/>
				<circle class="st3" cx="172.5" cy="24.5" r="2.2"/>
				<circle class="st3" cx="186.5" cy="27" r="2.2"/>
				<circle class="st3" cx="196.9" cy="28.6" r="2.2"/>
				<circle class="st3" cx="209.7" cy="30.8" r="2.2"/>
				<circle class="st3" cx="222" cy="32.2" r="2.2"/>
				<circle class="st3" cx="235.6" cy="33.9" r="2.2"/>
				<circle class="st3" cx="246.1" cy="34.9" r="2.2"/>
				<circle class="st3" cx="256" cy="35.8" r="2.2"/>
				<circle class="st3" cx="266.7" cy="36.3" r="2.2"/>
				<circle class="st3" cx="276" cy="37" r="2.2"/>
				<circle class="st3" cx="286.8" cy="36.9" r="2.2"/>
				<circle class="st3" cx="295" cy="36.8" r="2.2"/>
				<circle class="st3" cx="304.6" cy="36.3" r="2.2"/>
				<circle class="st3" cx="314.2" cy="35.9" r="2.2"/>
				<circle class="st3" cx="324.5" cy="35" r="2.2"/>
				<circle class="st3" cx="334.8" cy="34.1" r="2.2"/>
				<circle class="st3" cx="346" cy="32.1" r="2.2"/>
				<circle class="st3" cx="356" cy="29.8" r="2.2"/>
				<circle class="st3" cx="366.1" cy="27" r="2.2"/>
				<g>
					<g>
						<g>
							<g>
								<g>
									<path class="st4" d="M403.4,5.8c0.1-0.1,0-0.1-0.4,0.2l-0.2,0.3L403.4,5.8z"/>
									<path class="st4" d="M400.5,7.8c-0.5,0.4-1,0.9-0.6,0.7c0.4-0.4,0.6-0.5,1.1-1c0.4-0.3,0.8-0.5,0.7-0.5
										c0.1-0.1,0.7-0.5,0.9-0.7C401.9,6.8,401.2,7.3,400.5,7.8C400.3,8,400.5,7.9,400.5,7.8z"/>
									<path class="st4" d="M353.6,28.1l0.3-0.1C353.8,28.1,353.7,28.1,353.6,28.1z"/>
									<path class="st4" d="M322.2,33.2c0.2,0,0.3,0,0.4,0C322.3,33.1,322.1,33.2,322.2,33.2z"/>
									<path class="st4" d="M316.7,33.6c0.1,0,0.2,0,0.3,0C316.9,33.5,316.8,33.6,316.7,33.6z"/>
									<path class="st4" d="M353.6,28.1l-0.8,0.2C352.7,28.3,353.2,28.2,353.6,28.1z"/>
									<path class="st4" d="M394.8,12c0.1-0.1,0.3-0.2,0.4-0.3L394.8,12L394.8,12z"/>
									<polygon class="st4" points="367.1,24.3 367.4,24.2 367.6,24.1 									"/>
									<path class="st4" d="M377.2,20.5c-0.2,0.1-0.3,0.2-0.4,0.2c0.1-0.1,0.3-0.2,0.5-0.2C377.3,20.5,377.3,20.5,377.2,20.5z"/>
									<path class="st4" d="M392.5,13l0.3-0.2C392.7,12.9,392.6,13,392.5,13z"/>
									<path class="st4" d="M359.7,26.5c0,0-0.1,0-0.1,0C359.6,26.5,359.7,26.5,359.7,26.5z"/>
									<path class="st4" d="M62.8-4.6C62.8-4.6,62.8-4.6,62.8-4.6C62.8-4.6,62.7-4.6,62.8-4.6z"/>
									<path class="st4" d="M51-8.7l0.2,0.1c0,0,0,0,0,0L51-8.7z"/>
									<path class="st4" d="M306.8,34.1C306.8,34.1,306.8,34.1,306.8,34.1C307.1,34.1,307,34.1,306.8,34.1z"/>
									<path class="st4" d="M215.6,29.1c1,0.2-1.7-0.1-0.1,0.1C215.4,29.1,216.9,29.3,215.6,29.1z"/>
									<path class="st4" d="M394.5,12.2c-0.1,0.1-0.2,0.2-0.4,0.2C394.3,12.3,394.4,12.2,394.5,12.2z"/>
									<path class="st4" d="M215.5,29.2L215.5,29.2l0.2,0C215.6,29.2,215.6,29.2,215.5,29.2z"/>
									<path class="st4" d="M283.9,34.5c0,0,0.1,0,0.2,0C284.1,34.5,284,34.5,283.9,34.5z"/>
									<path class="st4" d="M301,34.4l-0.4,0C300.7,34.4,300.8,34.4,301,34.4z"/>
									<path class="st4" d="M275,34.4c-0.2,0-0.3,0-0.6,0c0,0,0.1,0,0.1,0C274.6,34.4,274.7,34.4,275,34.4z"/>
									<path class="st4" d="M265.8,34c0.1,0,0.1,0,0.2,0c0.1,0,0.2,0,0.3,0L265.8,34z"/>
									<path class="st4" d="M89.8,3.2c-0.2-0.1-0.3-0.1-0.4-0.2C89.5,3.1,88.2,2.8,89.8,3.2z"/>
									<path class="st4" d="M394.7,12c0,0-0.1,0.1-0.2,0.2C394.6,12.1,394.7,12.1,394.7,12C394.8,12,394.8,12,394.7,12z"/>
									<path class="st4" d="M274.6,34.9l-1.5-0.1C273.5,34.9,274.1,34.9,274.6,34.9z"/>
									<path class="st4" d="M154.2,18.9l-0.3-0.1C154,18.9,154.2,18.9,154.2,18.9z"/>
									<path class="st4" d="M268.8,34.7c-0.3,0-0.5-0.1-0.8-0.1c-0.1,0-0.1,0-0.2,0L268.8,34.7z"/>
									<path class="st4" d="M89.4,3.1L89.4,3.1L89.4,3.1z"/>
									<path class="st4" d="M80,0.6c1.3,0.4,0.7,0.1,1,0.1c1.6,0.4,0.7,0.3,1.3,0.5c1,0.3,1.8,0.4,2.6,0.6c0.1,0,0.2,0.1,0,0
										C85.9,2.1,88,2.7,89.3,3c0.1,0,0.1,0.1,0.2,0.1c-0.2-0.1-0.2-0.2-0.2-0.2c0.6,0.2,1.1,0.3,1.3,0.4
										c-0.4-0.1-0.4-0.1-0.6-0.1l0.6,0.1c0.5,0.2-0.9-0.2-0.9-0.1c1.2,0.3,2.7,0.6,3.6,0.9c0.2,0.1-2.2-0.6-1-0.2L91,3.5
										c1.1,0.4-0.9-0.3,0.1,0.2c1.9,0.6,2.2,0.6,4.1,1.1c0.4,0.1-0.1-0.1,0.3,0c2.8,0.7,2.1,0.8,4.1,1.2c0.5,0.1,0.8,0,2.2,0.5
										l-0.5,0c1.9,0.5,1.1,0.2,3,0.7c-0.4-0.1-1.5-0.4-1.2-0.3c1.3,0.4,0.9,0.2,1.9,0.4l0.2,0.1c2,0.5,4.2,1,6.4,1.6
										c-0.1,0-0.5-0.1,0,0.1c2.8,0.7,6,1.5,8.6,2.2l1,0.2c0.2,0.1,0.4,0.1,0.2,0.1c1,0.3,0.1,0,0.6,0.1c0.6,0.1,0.8,0.2,0.4,0.2
										c1.9,0.4,5.3,1.1,7.3,1.7l-0.4-0.1c1.5,0.4,1.8,0.3,3.2,0.7l-0.3,0c3.3,0.8,7,1.6,9.5,2.2c0.5,0,3.3,0.8,3.5,0.7
										c1.9,0.5,1.3,0.4,4,1c0.7,0.2,1.1,0.1,2,0.3l0,0.1l1.2,0.2l0.6,0.2l0.8,0.2c-0.3-0.1-0.7-0.2-0.6-0.2
										c0.7,0.1,1.4,0.3,2.1,0.5s1.1,0.3,1.1,0.3l3.1,0.6c-0.1,0-0.6-0.1-1-0.1c1.7,0.3,0.3,0.1,1.8,0.4c-0.2-0.1,0.1,0,0.2,0
										c0.7,0.2,2.4,0.5,3.7,0.8l-0.3,0c2.3,0.5,4.8,0.9,7.4,1.4c-0.9-0.2-0.7-0.3,0.1-0.1l0.3,0.1c0.5,0-0.8-0.2,0.2-0.1
										c1,0.2,0.6,0.2,0.1,0.1l1.2,0.2c0.1,0-0.2,0-0.3,0c0.5,0,2,0.5,2.7,0.5l0.1,0c2.6,0.5,3.7,0.7,5.8,1
										c0.1-0.1,0.9,0.1,1.5,0.2c1.5,0.3,3.2,0.7,5.1,1c1.3,0.2,0.4,0,1,0.1c0.1,0.1,1.9,0.4,1,0.3c2.2,0.4,2.8,0.5,5.7,0.9
										c-0.3-0.1-0.6-0.1-0.5-0.1c0.5,0.1,1.2,0.2,1.1,0.2l-0.1,0c3.2,0.4,7.3,1.3,9.8,1.6l-0.1,0l2.6,0.3
										c1.2,0.2-0.7-0.1,0.2,0.1c2.8,0.3,4.5,0.7,6.8,0.9c1.8,0.4,6.4,0.9,8.8,1.2l-0.1-0.1c0.6,0,0.8,0.1,1.2,0.2
										c-0.1,0-0.7-0.1-0.3-0.1c2.7,0.3,5.4,0.6,8.2,1c2.8,0.3,5.6,0.7,8.3,0.9c2,0.2,1.2-0.1,3.7,0.2l-0.7,0
										c4.1,0.3,8.3,0.7,12.3,0.9c-0.2,0-0.2,0-0.6,0c0.4,0.1,1.2,0.1,1.9,0.2c0.7,0,1.2,0.1,1.3,0c0.6,0,0.1,0.1,0.5,0.1
										c0.8,0.1,2.1,0,2.6,0.1c0.1,0-0.2,0-0.4,0c0.6,0,2.6,0.2,2,0.1c1.5,0.1,2.9,0.1,4,0.2c0.8,0,2.6,0.1,2.8,0
										c-0.1,0.1,2.6,0.2,3.6,0.2c-0.3,0,0.8,0.1,0.4,0.1c1.1,0,2.1,0,1.9,0c2,0.2,4,0,5.1,0.2c3.2,0,6.2,0,9.1-0.1
										c-0.1,0.1-3.2,0-3.1,0.1c2.7,0,4.3-0.2,7-0.1c0.7,0-0.4,0.1-0.6,0.1c2.7-0.1,5.3-0.1,7.7-0.2c0,0-0.3,0-0.5,0
										c0.5,0,1.1,0,1.1-0.1l-0.5,0c-0.8,0,1.9-0.2,2-0.3c-0.8,0.2,2.4-0.1,1.1,0.2c0.3,0,0.7-0.1,0.6-0.1c0.5,0,0.6,0,0.1,0.1
										c1.7-0.1,1.1-0.1,2.7-0.2c0,0-0.3,0-0.5,0.1c0.8-0.1,1.6-0.2,2.9-0.2c-0.1,0,0.1,0-0.3,0.1c2.3-0.2,3.8-0.4,6.3-0.5
										c-0.7,0.2,0.8,0,1,0l1.3-0.1l-0.5,0c1.2-0.1,2.2-0.3,3.2-0.3l-0.9,0.1l2.2-0.2l-1.2,0.1c1.2-0.2-0.1-0.1,1.4-0.2
										c-0.3,0,1.2-0.1,1.8-0.1l0,0c0.6-0.1,1.2-0.2,2-0.3c0.2,0-0.2,0.1,0,0.1c0.6-0.1,2.7-0.3,3.4-0.5c-0.2,0.1-0.2,0.1-0.2,0.1
										l0.5-0.1c0.5-0.1,0.6-0.1,0.5,0c1.6-0.2-0.5,0,1.4-0.3c-0.1,0-0.1,0-0.4,0.1c1.9-0.3,3.7-0.5,5.5-0.8
										c0.5,0-1.5,0.3-0.9,0.3c2.5-0.5,5.2-1,7.7-1.4l-0.5,0.1c0.3-0.2,1.8-0.3,3-0.6c-0.3,0.1-0.4,0.2-0.3,0.1
										c1.7-0.3,3.4-0.7,5.9-1.4l-0.3,0.1c1-0.2,2.6-0.6,3.6-0.8c0.3-0.1,0.9-0.3,0.5-0.2c1.6-0.3,3.2-0.8,4.6-1.2
										c1.5-0.4,2.9-0.9,4.3-1.3c-0.3,0.1-0.8,0.3-0.5,0.2l2.4-0.8c-0.2,0-0.3,0.1-0.8,0.2c0.3-0.1,1-0.4,1.6-0.6
										c-1.1,0.4,0,0.1,0.5,0c-0.1,0,0.1-0.1,0-0.1c1.3-0.3,0.2-0.2,1.9-0.7l-0.1,0.1c0.6-0.2,1.2-0.5,1.9-0.7
										c0.3,0-0.7,0.3-0.7,0.3c1-0.4,1.9-0.8,2.7-1.1c-0.4,0.2-1,0.4-1.4,0.6c1-0.3,1.1-0.3,1.8-0.6l-0.1,0l1.6-0.6l-0.4,0.1
										c1.1-0.7,2.4-1,3.9-1.8c-1.5,0.8-0.2,0.2-0.3,0.3c0.4-0.2,1-0.4,0.9-0.3c0.7-0.4,1.3-0.5,2.3-1.1c0.1,0,0.8-0.4,0.7-0.2
										c1-0.5-0.2,0.1-0.2,0c1.5-0.7,3.5-1.6,5.5-2.8c1.8-1,2-1.3,3.6-2.3c0.6-0.3-0.4,0.3-0.4,0.3c0.9-0.5,1.6-0.9,2.4-1.4
										c-0.2,0.1,0,0,0.3-0.1c0.6-0.4,0.4-0.4,1.3-0.9c-0.1,0.1-0.3,0.3-0.6,0.5c0.7-0.5,1.5-1.1,2.2-1.6c0.2-0.1-0.4,0.4-0.7,0.6
										c0.9-0.6,2.3-1.5,2.5-1.8c-0.2,0.1-0.4,0.2-0.6,0.4c0.3-0.2,0.2-0.1,0,0.1c-0.7,0.5-1.1,0.7-1.2,0.7l0.5-0.4
										c-0.7,0.3-2.2,1.5-3.4,2.2l0.4-0.4c-0.4,0.3-0.7,0.6-1.1,0.8c-0.3,0.1-0.5,0.2,0.1-0.2c-0.9,0.4-0.7,0.5-1.5,0.8
										c-0.1,0-0.1,0,0,0l-0.8,0.5c0.1-0.1-0.2,0,0.3-0.3c-1.5,0.8-2.3,1.5-2.9,1.7l0.1-0.1c-2.1,1.1-0.2,0.2-1.7,1.1l-1.1,0.4
										l-0.2,0.2c-0.2,0.1-0.6,0.3-0.6,0.3c-0.8,0.5,0.2,0-0.3,0.2c-1.1,0.5-2.9,1.4-3.2,1.4c-0.4,0.2,1-0.4-0.1,0.1
										c-0.4,0-1.3,0.6-2.3,1c0.3-0.2,1.2-0.6,0.2-0.2c-0.5,0.4-1.9,0.8-2.7,1.2c0,0.1-1.8,0.8-3.2,1.4c-0.1,0-2.7,0.9-4,1.4l0,0
										c-0.2,0.2-1.6,0.7-2.6,1c0-0.1,0.2-0.1,0.7-0.4c-0.3,0.1-0.6,0.2-0.9,0.3c-0.2,0.1-0.5,0.2-1.1,0.4l0.2-0.1
										c-1.3,0.4-2.5,0.9-4.1,1.3c-0.1,0.1,1.3-0.2-0.4,0.3c-0.1,0-0.2,0,0.3-0.2c-0.1,0.1-0.5,0.2-0.8,0.2l0.7-0.2
										c-0.8,0.2-0.4,0.2-1,0.3c0-0.1-0.5,0.1-0.4,0c0.2,0,0.5-0.1,0.7-0.2c-0.7,0.2-1.5,0.4-1.8,0.4c0.1,0,0,0.1-0.5,0.2
										c-1.3,0.3-0.5,0.1-1.2,0.2c-0.3,0.1-1.1,0.3-1.1,0.4c-0.4,0.1-0.5,0.1-0.6,0.1c-0.6,0.2-3.1,0.7-2.3,0.6l0.2,0
										c0,0-0.1,0-0.1,0c0,0,0,0,0,0l0,0c-2.2,0.6-4.5,1-6.7,1.5l0,0c-1.3,0.3-2.9,0.6-3.8,0.8c-0.4,0.1-0.9,0.1-0.8,0.1
										c-1,0.2-1.1,0.2-2.6,0.4c1-0.2-0.4,0,1-0.2c-1.3,0.2-1.6,0.2-3,0.5c0.5-0.1-1,0.1-1.6,0.2c0.3,0,0.6-0.1,0.9-0.1
										c-0.7,0.1-1.3,0.2-1.9,0.3l0.3-0.1c-2.7,0.3-4.8,0.9-6.8,0.9c-0.7,0.1,1.5-0.1,0.8,0c-1.2,0.1-2.5,0.2-2.9,0.2
										c-1.7,0.1-1.6,0.3-3.3,0.5c0.2,0,0.5,0.1-0.9,0.2c-1.2,0.1-1.5,0-0.8-0.1c0.3,0,0.4,0,0.4,0c0.4,0,0.9-0.1,0.4-0.1l-0.2,0
										c-0.6,0-2.3,0.2-1.9,0.1c-0.9,0.1-0.4,0.1,0.3,0c-1.6,0.1-2.5,0.2-4.1,0.3c0.3,0,0.5,0,0.2,0c-2.4,0.1-1.1,0.1-2.7,0.3
										c-0.9,0,0.3-0.1-1.3,0c-1,0-0.2-0.1,0.2-0.1c-1.5,0.2-2.8,0.1-3.6,0.2l0.8-0.1c-0.5,0-0.9,0.1-1.2,0.1l0.5,0
										c-0.5,0-0.9,0-0.8,0c-0.5,0.1,0.4,0.1-0.6,0.2c-0.6,0-1.9,0.1-2.1,0c1.9-0.1-0.2-0.1,1.4-0.2c-0.3,0-0.7,0-1.2,0.1
										c-0.1,0,0.1,0,0.2,0c-1.9,0-0.8,0.1-2.8,0.2c0.2-0.1-0.4-0.1-0.8,0c0.8,0,0.4,0.1-0.3,0.1c-1.2,0-1.3,0.1-2,0.1l0.7,0
										c-0.2,0.1-0.9,0.1-1.7,0.1c-0.1,0,0.8,0,0.5-0.1c-1,0.1-2.2,0-3.5,0.1c-0.6,0-0.1-0.1-0.6-0.1c-1.5,0.1-1.6,0-3.2,0
										c0.5,0.1,0.5,0-0.6,0.1l2.6-0.1l-1.7,0.1c0.8,0,1.6,0,2.1,0c-0.8,0.1-0.7,0-0.3,0.1c-1.1-0.1-2.1,0.1-3.3,0l0-0.1
										c-1.8-0.1-3.3,0.1-5.7,0l0.8,0c-0.3,0.1-1.5,0-2.3,0c0.1,0-0.4-0.1-0.7-0.1c0,0-1.8,0-2,0.1l-1.1-0.1
										c-1.9-0.1-2.2,0.1-4.1,0c0.6,0-0.3-0.1,1-0.1c-0.6,0-1.2,0-1.2,0c-0.4,0-1.7,0-2.3,0c-0.3,0-0.4,0.1-1,0c-0.1,0,0,0,0,0
										c0,0-1.1,0-0.5,0.1c-1.9-0.2-5.3-0.2-7-0.4c-1.4-0.1-3-0.1-4.2-0.2c0.1,0,0,0,0.2,0c-1.7-0.1-1.1,0.1-3-0.1
										c-1-0.1,1,0,0.4,0c-0.3-0.2-2.3-0.1-3.6-0.3l0.3,0c-1-0.1-2.4-0.1-4-0.2c0,0,0.1,0,0,0c-1.1,0-3.2-0.2-4.8-0.3
										c0.5,0,0.7,0,0.4-0.1c-0.7-0.1,0.2,0.1-1.2,0c-0.5-0.1-1.5-0.2-1.6-0.3l1.3,0.1c-0.7-0.1-1.7-0.1-2.4-0.2l0.1,0
										c-2-0.2-2-0.1-4.2-0.3l0.2,0.1c-1.2,0-1-0.2-2.2-0.2l-0.3-0.1c-0.8-0.1-2.7-0.2-4.1-0.3c0.8,0,2.4,0.2,3.5,0.2
										c-0.8-0.1-2.6-0.3-3-0.3c0.3,0,0.7,0,1,0.1c-1,0-2.2-0.1-3.7-0.3c0.3-0.1-4-0.5-5.1-0.8c-2.7-0.2-5.4-0.7-8.5-1.1
										c1.1,0.3-0.9-0.1-0.7,0.1c-0.7-0.1-1-0.1-1.1-0.1l-2.2-0.4c-0.5-0.1,0.7,0.1,0.6,0c-1.6-0.2-0.7-0.2-1.7-0.4
										c0.2,0.1-0.6,0-1.5-0.2l1.3,0.3c-2.3-0.2-1.9-0.4-4.2-0.6l0.7,0.1c-1.2-0.1-4.3-0.6-5.4-0.7c-0.2,0-0.5-0.1,0-0.1
										c-2.8-0.4-6.2-0.8-8.3-1.3l0.2,0c-0.5-0.1-0.9-0.1-1.6-0.2c0,0,0.2,0,0,0c-0.3,0-1.4-0.2-2.1-0.3l0.6,0.1
										c-2.7-0.5-4.2-0.6-6.4-1c0-0.1-2.1-0.5-3.1-0.7l0,0c-3.1-0.6-5.3-0.9-8.3-1.4c-1.8-0.4-6.1-1.2-9-1.9
										c0.4,0.1-0.1,0.1-0.6,0c-0.7-0.2-1.9-0.3-1.8-0.4l0.2,0.1c-0.5-0.2-1.9-0.5-3-0.7l-0.2,0.1c-2.8-0.8-7.5-1.5-9-2
										c-0.7-0.1-1.5-0.3-2.2-0.4l0.1-0.1c-1.9-0.4-2.8-0.6-5.2-1.1L144,16c-1.3-0.3-1.7-0.2-2.9-0.4l-0.3-0.2
										c-2.3-0.5-4.6-1.1-6.9-1.6c0,0,0.1,0,0.5,0.1c-1.1-0.2-4.2-1-3.8-0.8c0-0.1-2.4-0.6-3.6-0.8l0.2,0
										c-1.1-0.2-1.1-0.1-2.6-0.5c-0.3-0.1-0.3-0.1,0.2,0c-1.1-0.3-0.9-0.2-2.3-0.5l0.5,0.1c-1.2-0.3-1.1-0.2-1.8-0.4
										c-0.8-0.2-2.2-0.6-2.4-0.7c-0.2,0-0.8-0.1-1.5-0.3c-0.1,0,0.2,0,0.3,0c-2-0.5-3-0.6-4.3-1.1c0,0-0.1-0.1-0.2-0.1
										c1.6,0.4,2.6,0.7,2.7,0.7c0-0.1-1.3-0.4-0.2-0.2c-1-0.2-2.8-0.5-4-0.9c-0.1,0-0.1,0-0.2-0.1l0.1,0
										c-0.3-0.1-0.5-0.1-0.8-0.2c-0.4-0.1-0.6-0.2-1-0.3c-0.1-0.1-1.4-0.4-2.1-0.6c0,0.1-0.8-0.1,0,0.1c-0.1,0,0.1,0,0.5,0.1
										c0.1,0,0.2,0,0.3,0.1c0,0,0,0,0,0c0.4,0.1,1,0.2,1.6,0.4c-0.5-0.1-1-0.2-1.7-0.4c-0.3,0-0.7-0.1-0.9-0.1
										c-0.8-0.3-2.5-0.8-2.7-0.9c-1.9-0.5-4.6-1.2-5.8-1.4c-0.6-0.1-0.6-0.2-0.8-0.3c0.3,0.1,0.7,0.2,0.9,0.2
										c-1.1-0.3-3.2-0.9-3.5-0.8c-1.4-0.4,0.8,0.1-1.1-0.4l0.3,0c-3.7-1.2-6.1-1.4-10.2-2.8c0.3,0.1,0.4,0.1,0.5,0.2
										C80,0,74.9-1.3,70.4-2.8c-1.3-0.4-1.5-0.4-2.3-0.6l-0.3-0.2l-1.4-0.3c-2-0.5-3.3-1.2-5.8-1.8l0.3,0.1
										c-0.9-0.3-2.8-0.8-2.6-0.8c-0.1,0-0.3,0-0.6-0.2l0,0l-2.2-0.6c-1.7-0.6,0.3-0.1-2.1-0.9c-0.9-0.3-2.6-0.7-2.3-0.6
										C51.4-8.6,52-8.4,52-8.4l-0.8-0.3c-0.2,0.1-0.9,0,1.1,0.7l1.4,0.4l0.4,0.2L53-7.7c0.7,0.3,1.1,0.4,1.6,0.5
										c0.1,0.1,0.3,0.1,0.6,0.2l1.4,0.3c0.2,0.1-0.7-0.1,0.3,0.2c0.7,0.2-0.6-0.3,0.5,0C58-6.1,57.8-6.2,58.6-6
										c0.1,0.1-0.1,0-0.4-0.1c0.7,0.2,1.9,0.6,2.3,0.6c0.7,0.3,2.4,0.7,2.3,0.8c0.2,0,1.3,0.3,1.9,0.5c-1.2-0.2,2.4,0.7,2.1,0.8
										c0.9,0.2,3.2,0.9,4.8,1.3c-0.1,0-0.3-0.1-0.4-0.1c0.9,0.3,1.1,0.4,1.7,0.6c0.1-0.1,1.5,0.3,2.3,0.5
										c1.1,0.4-0.7-0.1-0.4,0.1c0-0.1,1.9,0.5,1.6,0.3c0.8,0.3,0.7,0.2,1.1,0.4C77.7-0.3,78.3,0,79,0.1c1.2,0.4,0.3,0.2,1.6,0.5
										C81.2,0.9,80,0.6,80,0.6z M111.7,8.9L111.7,8.9c-0.3-0.1-0.5-0.1-0.7-0.2C111.1,8.8,111.3,8.8,111.7,8.9z M114.3,9.6
										c-0.3-0.1-0.7-0.2-1.2-0.3c-0.1,0,0,0,0.3,0C113.3,9.3,113.9,9.5,114.3,9.6z M108.8,7.7c0.4,0.1,0.6,0.1,0.6,0.2
										c-0.2,0-0.4-0.1-0.7-0.2c0,0,0,0-0.1,0C108.7,7.7,108.7,7.7,108.8,7.7z"/>
									<path class="st4" d="M108,7.6c-0.1,0-0.1,0-0.2,0C108,7.6,108,7.6,108,7.6c0.1,0,0.2,0.1,0.2,0.1
										C108.2,7.6,108.1,7.6,108,7.6z"/>
									<path class="st4" d="M354,28L354,28C354,28.1,354,28,354,28C354,28,354,28,354,28z"/>
									<polygon class="st4" points="151.2,18.3 151.2,18.3 151,18.3 									"/>
									<path class="st4" d="M368.6,24.1c0,0,0.1,0,0.2,0C368.8,24.1,368.7,24.1,368.6,24.1z"/>
									<path class="st4" d="M374.7,21.9l0.9-0.3C375.2,21.7,375,21.8,374.7,21.9z"/>
									<path class="st4" d="M379.4,20C379.5,20,379.5,20,379.4,20L379.4,20L379.4,20z"/>
									<path class="st4" d="M301.3,34.9c-0.1,0-0.1,0-0.2,0C300.7,34.9,301,34.9,301.3,34.9z"/>
									<path class="st4" d="M325,33.1c-0.3,0-0.5,0.1-0.8,0.1C324.7,33.2,325,33.2,325,33.1z"/>
									<path class="st4" d="M274.8,34.9L274.8,34.9c-0.1,0-0.1,0-0.2,0L274.8,34.9z"/>
									<path class="st4" d="M323.2,33.4c0.4,0,0.8-0.1,1.1-0.1C323.9,33.3,323.5,33.3,323.2,33.4z"/>
									<path class="st4" d="M398.5,9.6l0.2-0.1c0,0,0,0,0,0L398.5,9.6z"/>
									<path class="st4" d="M398.7,9.4l0.2-0.2C398.8,9.3,398.8,9.4,398.7,9.4z"/>
									<path class="st4" d="M399.4,8.9c-0.1,0.1-0.3,0.2-0.4,0.3C399.1,9.1,399.3,9,399.4,8.9z"/>
									<path class="st4" d="M392.9,13.1L392.9,13.1C392.9,13.2,392.9,13.1,392.9,13.1z"/>
									<path class="st4" d="M391.1,14.2c0.4-0.2,1.1-0.6,1.6-0.9l0,0C392.6,13.4,391.5,13.9,391.1,14.2z"/>
									<path class="st4" d="M383.5,17.8c0.5-0.2,1-0.5,1.5-0.7c-0.3,0.1-0.6,0.3,0-0.1C383.2,17.9,385.5,16.9,383.5,17.8z"/>
									<path class="st4" d="M378.7,20C379.6,19.6,378.7,19.9,378.7,20C378.2,20.1,378.1,20.2,378.7,20z"/>
									<path class="st4" d="M342.4,30.4L342.4,30.4C341.8,30.5,342.5,30.4,342.4,30.4z"/>
									<polygon class="st4" points="335.3,31.9 336,31.9 336.3,31.8 									"/>
									<polygon class="st4" points="331,32.1 331.3,32 330.1,32.2 									"/>
									<path class="st4" d="M267.4,34l0.2,0.1C268.1,34.1,268.2,34,267.4,34z"/>
									<path class="st4" d="M240,32c-0.3-0.1-1.1-0.2-1.5-0.2C239,31.9,239.7,32,240,32z"/>
									<polygon class="st4" points="158.5,19.2 159.1,19.3 158,19.1 									"/>
								</g>
							</g>
						</g>
					</g>
				</g>
			</g>
			<g class="st1">
				<path class="st5" d="M107.3,28.9c0,0,3.8,8.2,1.2,15.9c0,0-9.5-8.6-12.9-10.5C95.6,34.3,105.8,30.6,107.3,28.9z"/>
				<path class="st3" d="M124.5,15.1c0,0,5.7,10.1,9.1,12.7c0,0-11.3,0.3-19.6-2.8C114,24.9,123.3,17.2,124.5,15.1z"/>
				<path class="st6" d="M49.4,33.3c0,0-8.6,8.9-10,12.9c0,0-4.1-10.3-3.9-19.3C35.5,27,45.8,32.1,49.4,33.3z"/>
				<path class="st6" d="M137.4-4.3c0,0,10.3,5.7,11.5,11.6c0,0-14.1-1.3-17.7-0.4C131.1,6.9,137.6-3.9,137.4-4.3z"/>
				<path class="st7" d="M70.1,37.2c0,0-5.1,12.9-10.7,14.7c0,0-0.1-12.7-2.2-16.2C57.2,35.7,69.7,37.5,70.1,37.2z"/>
				<path class="st8" d="M145.2-25.2c0,0,6.9,9.1,10.8,10.3c0.1,0,0.1,0.1,0,0.1c-1.3,0.4-9.2,2.7-14.2,0.2
					C141.8-14.6,145.1-23.8,145.2-25.2z"/>
				<g>
					<path class="st9" d="M87.7,35.9c0,0-4.9,10.3-4.2,14.3c0,0.1-0.1,0.1-0.1,0.1c-1-0.9-8.3-6-8-12.8
						C75.4,37.5,83.6,36.9,87.7,35.9z"/>
				</g>
				<g id="XMLID_14_">
					<g>
						<g>
							<g>
								<g>
									<path class="st4" d="M-15.7,4c-0.1,0-0.1,0.1,0.3,0.1l0.2-0.2L-15.7,4z"/>
									<path class="st4" d="M-13.7,4.4c0.4-0.1,0.8-0.2,0.6-0.3c-0.4,0.1-0.4,0.1-0.8,0.2c-0.3,0-0.5-0.1-0.5-0.1
										c-0.1,0-0.5-0.1-0.6,0c0.4,0.2,0.9,0.2,1.4,0.1C-13.5,4.3-13.7,4.4-13.7,4.4z"/>
									<path class="st4" d="M14,14.3l-0.2-0.1C13.9,14.2,13.9,14.3,14,14.3z"/>
									<path class="st4" d="M29.7,23.9c-0.1-0.1-0.2-0.1-0.2-0.1C29.6,23.9,29.7,23.9,29.7,23.9z"/>
									<path class="st4" d="M32.3,25.7c-0.1,0-0.1-0.1-0.2-0.1C32.2,25.6,32.3,25.6,32.3,25.7z"/>
									<path class="st4" d="M14,14.3l0.4,0.3C14.4,14.6,14.2,14.4,14,14.3z"/>
									<path class="st4" d="M-9.6,4.5c-0.1,0-0.2,0-0.3,0L-9.6,4.5C-9.6,4.5-9.6,4.5-9.6,4.5z"/>
									<path class="st4" d="M6.8,10.6l-0.1-0.1c0,0-0.1,0-0.1,0L6.8,10.6z"/>
									<path class="st4" d="M1.1,8.2c0.1,0.1,0.2-0.1,0.3-0.1c-0.1,0-0.2,0-0.3,0C1.1,8.1,1.1,8.1,1.1,8.2z"/>
									<path class="st4" d="M-8.3,5.3l-0.2,0C-8.4,5.3-8.3,5.3-8.3,5.3z"/>
									<path class="st4" d="M10.7,12.7C10.7,12.7,10.7,12.7,10.7,12.7C10.8,12.7,10.7,12.7,10.7,12.7z"/>
									<path class="st4" d="M145.1-27.7C145.1-27.7,145.1-27.7,145.1-27.7C145.1-27.7,145.1-27.7,145.1-27.7z"/>
									<path class="st4" d="M147.1-34.6l0,0.1c0,0,0,0,0.1,0L147.1-34.6z"/>
									<path class="st4" d="M37.3,28.6C37.3,28.6,37.3,28.6,37.3,28.6C37.1,28.5,37.2,28.6,37.3,28.6z"/>
									<path class="st4" d="M88.7,36.4c-0.6,0,0.9-0.4,0-0.3C88.8,36.2,88,36.5,88.7,36.4z"/>
									<path class="st4" d="M-9.4,4.5l0.3,0C-9.3,4.5-9.3,4.5-9.4,4.5z"/>
									<path class="st4" d="M88.7,36.1L88.7,36.1L88.7,36.1C88.7,36.1,88.7,36.1,88.7,36.1z"/>
									<path class="st4" d="M49.5,34c0,0-0.1-0.1-0.1-0.1C49.4,33.9,49.4,33.9,49.5,34z"/>
									<path class="st4" d="M40.4,29.9l0.2,0.1C40.6,30,40.5,29.9,40.4,29.9z"/>
									<path class="st4" d="M54.4,35.3c0.1,0,0.2,0.1,0.3,0.1c0,0,0,0,0,0C54.7,35.4,54.6,35.4,54.4,35.3z"/>
									<path class="st4" d="M59.7,36.6C59.6,36.6,59.6,36.6,59.7,36.6c-0.1-0.1-0.2-0.1-0.3-0.1C59.5,36.6,59.6,36.6,59.7,36.6z"
										/>
									<path class="st4" d="M140.4-12.3c0.1-0.1,0.1-0.1,0.2-0.2C140.4-12.4,140.7-13.2,140.4-12.3z"/>
									<path class="st4" d="M-9.6,4.5c0,0,0.1,0,0.2,0C-9.5,4.5-9.5,4.5-9.6,4.5C-9.6,4.5-9.6,4.5-9.6,4.5z"/>
									<path class="st4" d="M54.9,34.3l0.8,0.2C55.5,34.5,55.2,34.4,54.9,34.3z"/>
									<path class="st4" d="M119.7,19.3l0.1-0.1C119.8,19.2,119.8,19.2,119.7,19.3z"/>
									<path class="st4" d="M58.2,35.1c0.1,0.1,0.3,0.1,0.4,0.2c0,0,0.1,0,0.1,0L58.2,35.1z"/>
									<path class="st4" d="M140.6-12.5L140.6-12.5L140.6-12.5z"/>
									<path class="st4" d="M142.1-17.8c-0.3,0.8,0,0.4,0.1,0.6c-0.3,0.9-0.3,0.4-0.5,0.7c-0.2,0.6-0.1,1.1-0.3,1.5
										c0,0-0.1,0.1-0.1,0c-0.1,0.6-0.7,1.8-0.7,2.5c0,0-0.1,0.1-0.1,0.1c0.1-0.1,0.2-0.1,0.3,0c-0.1,0.3-0.1,0.7-0.3,0.7
										c0.1-0.2,0-0.2,0.1-0.3l-0.1,0.4c-0.3,0.3,0.1-0.5,0-0.5c-0.2,0.7-0.4,1.6-0.7,2.1c-0.2,0,0.4-1.2,0-0.6l0.4-0.8
										c-0.5,0.5,0.2-0.5-0.3,0c-0.5,1-0.4,1.2-0.9,2.3c0,0.3,0.2,0,0.1,0.2c-0.5,1.6-0.9,1-1.2,2.2c0,0.3,0.1,0.5-0.4,1.3l0-0.3
										c-0.5,1,0,0.7-0.7,1.7c0-0.2,0.3-0.8,0.2-0.7c-0.5,0.6-0.1,0.5-0.4,1.1l-0.2,0c-0.5,1.1-1,2.3-1.6,3.4c0-0.1,0-0.3-0.1-0.1
										c-0.8,1.5-1.7,3.1-2.7,4.3L132,4.4c-0.1,0.1-0.2,0.2-0.1,0c-0.4,0.5,0.1,0.1,0,0.4c-0.2,0.3-0.3,0.3-0.2,0.1
										c-0.5,1-1.5,2.7-2.3,3.6l0.1-0.2c-0.6,0.7-0.4,1-1,1.6l0.1-0.1c-0.6,0.8-1.2,1.6-1.8,2.3c-0.6,0.7-1.2,1.4-1.8,1.9
										c0,0.4-1.4,1.4-1.2,1.7c-0.9,0.7-0.7,0.4-1.8,1.5c-0.3,0.3-0.3,0.6-0.7,0.9L121,18l-0.4,0.6l-0.4,0.1l-0.3,0.4
										c0.1-0.1,0.3-0.2,0.4-0.2c-0.5,0.6-1.4,1.2-1.5,1.1l-1.3,1.3c0-0.1,0.2-0.3,0.4-0.5c-0.6,0.7-0.2,0-0.8,0.7
										c0.1,0,0,0.1,0,0.1c-0.4,0.2-1.1,0.9-1.7,1.3l0-0.2c-1.1,0.8-2.2,1.8-3.4,2.6c0.5-0.3,0.5,0,0.1,0.2l-0.2,0
										c-0.2,0.2,0.4-0.2,0,0.2c-0.5,0.3-0.4,0.1-0.2-0.2l-0.5,0.4c-0.1,0,0.1-0.1,0.1-0.2c-0.2,0.2-1.1,0.5-1.3,0.9l-0.1,0
										c-1.2,0.8-1.8,1.1-2.9,1.8c0,0.1-0.4,0.3-0.6,0.6c-0.8,0.4-1.8,0.7-2.7,1.2c-0.7,0.4-0.1,0.2-0.4,0.4
										c-0.1-0.1-1.1,0.4-0.6,0.1c-1.1,0.6-1.5,0.7-3,1.4c0.2,0,0.4-0.1,0.3,0c-0.3,0.1-0.6,0.2-0.6,0.1l0.1,0
										c-1.6,0.9-4.1,1-5.4,1.7l0.1,0c-0.5,0.2-0.9,0.4-1.4,0.5c-0.7,0.1,0.4-0.2-0.1-0.1c-1.5,0.6-2.5,0.6-3.8,1
										C87.5,35.1,85,36,83.6,36l0.1,0.1c-0.3,0.1-0.4,0-0.7,0c0,0.1,0.4,0,0.2,0.1c-3,0.5-6.3,0.6-9.5,0.5
										c-1.1,0-0.7,0.5-2.1,0.3l0.4-0.2c-1.2,0.1-2.3,0-3.5-0.1c-1.2,0-2.3-0.2-3.5-0.3c0.1,0,0.1-0.1,0.4,0
										c-0.5-0.2-1.8-0.2-1.8-0.1c-0.4-0.1-0.1-0.1-0.3-0.2c-0.5-0.2-1.2-0.1-1.4-0.2c0,0,0.1,0,0.2,0c-0.3,0-1.4-0.3-1.2-0.1
										c-0.8-0.2-1.6-0.2-2.3-0.5c-0.5,0.1-1.4-0.4-1.6-0.2c0.1-0.1-0.3-0.2-0.7-0.3c-0.4-0.1-0.9-0.2-1.2-0.3
										c0.2,0-0.4-0.2-0.2-0.2c-0.6-0.2-1.1-0.3-1.1-0.1c-1-0.5-2.2-0.5-2.7-1c-1.8-0.4-3.4-1-4.9-1.6c0.1-0.2,1.7,0.6,1.7,0.4
										c-1.5-0.5-2.4-0.7-3.8-1.3c-0.4-0.2,0.2,0,0.4,0c-1.5-0.5-2.7-1.3-4.1-1.8c0,0,0.2,0,0.3,0.1c-0.3-0.1-0.6-0.3-0.6-0.2
										l0.3,0.1c0.3,0.3-1.1-0.2-1.2-0.2c0.5,0-1.2-0.7-0.4-0.7c-0.2-0.1-0.4-0.1-0.4,0c-0.2-0.1-0.3-0.2,0-0.2
										c-0.9-0.4-0.6-0.1-1.4-0.6c0,0,0.2,0,0.3,0c-0.4-0.1-0.9-0.3-1.5-0.7c0.1,0,0-0.1,0.2,0c-1.1-0.6-2.1-0.8-3.2-1.6
										c0.5,0-0.4-0.3-0.4-0.5l-0.7-0.3l0.2,0.2c-0.6-0.3-1.2-0.5-1.6-0.9l0.5,0.2l-1.1-0.6l0.6,0.4c-0.6-0.3-0.1,0.2-0.8-0.3
										c0.2,0.1-0.6-0.3-0.8-0.6l0,0c-0.3-0.1-0.6-0.2-1-0.5c-0.1-0.1,0.2-0.1,0.1-0.2c-0.4,0-1.4-0.8-1.8-0.9
										c0.1,0,0.2,0,0.2-0.1l-0.3,0c-0.2-0.2-0.3-0.2-0.2-0.3c-0.8-0.5,0.1,0.4-0.8-0.3c0.1,0,0.1,0,0.2,0.1
										c-0.9-0.6-1.9-1.1-2.7-1.7c-0.2-0.3,0.8,0.4,0.6,0.1c-1.3-0.7-2.7-1.4-3.9-2.2l0.2,0.2c-0.3,0.1-0.8-0.7-1.5-0.9
										c0.2,0.1,0.3,0,0.2,0c-0.8-0.5-1.8-1-3.1-1.6l0.2,0c-0.5-0.4-1.3-0.8-1.8-1.1c-0.2,0-0.5-0.2-0.4,0
										c-1.5-1.3-3.3-1.6-4.7-2.6c0.2,0.1,0.5,0.2,0.3,0.1L7,10c0.1,0.2,0.1,0.1,0.4,0.4c-0.2,0-0.6-0.1-0.9-0.3
										c0.6,0.2,0.1-0.2-0.2-0.4c0,0.1-0.1,0-0.1,0.1C5.6,9.3,6,9.9,5.1,9.4l0.1,0C4.8,9.2,4.5,9.2,4.1,9C4,8.8,4.5,9.1,4.6,9
										C4,8.8,3.4,8.8,3,8.4c0.2,0.1,0.6,0.2,0.8,0.3C3.3,8.3,3.2,8.3,2.9,8.1l0,0L2,7.7l0.2,0.1C1.4,7.9,0.8,7.4-0.2,7.2
										c1,0.1,0.2-0.1,0.3-0.2c-0.2-0.1-0.6-0.3-0.5-0.3c-0.5,0-0.7-0.3-1.4-0.4c0-0.1-0.5-0.2-0.3-0.2C-2.7,6-2,6.3-2.1,6.3
										C-3,6.2-4.2,5.5-5.5,5.4c-1.2-0.2-1.4,0-2.5-0.2c-0.3-0.1,0.3-0.1,0.3-0.1c-0.6-0.2-1-0.3-1.6-0.3c0.1,0,0-0.1-0.2-0.2
										c-0.4,0-0.3,0.1-0.9,0c0.1,0,0.2-0.1,0.5-0.1c-0.5,0-1.1,0-1.6,0c-0.1-0.1,0.3-0.1,0.5-0.1c-0.6,0-1.6-0.1-1.8,0
										c0.1,0,0.3,0,0.4,0.1c-0.2,0-0.1-0.1,0.1-0.1c0.5,0,0.7,0.1,0.8,0.2l-0.4,0c0.4,0.3,1.5,0.2,2.3,0.3l-0.4,0.2
										c0.3,0,0.5-0.1,0.8-0.1C-8.9,4.9-8.8,5.1-9.2,5c0.5,0.2,0.5,0,0.9,0.2c0,0,0,0,0,0l0.5,0c-0.1,0,0.1,0.2-0.3,0.1
										c0.9,0.3,1.6,0.2,1.9,0.4l-0.1,0C-4.8,6-6,5.6-5,5.7l0.6,0.5l0.2-0.1c0.1,0,0.4,0.1,0.3,0.2c0.5,0-0.1-0.1,0.3-0.1
										C-3,6.5-1.9,6.7-1.8,7c0.3,0-0.6-0.3,0.1-0.1c0.1,0.3,0.8,0.2,1.4,0.5c-0.2,0.1-0.8-0.2-0.2,0.1C-0.1,7.4,0.6,8,1.1,8.1
										C1.2,7.9,2.1,8.4,3,8.7c-0.1,0,1.5,0.7,2.2,1.1l0,0c0.2-0.1,1,0.3,1.5,0.5c-0.1,0.1-0.2,0.1-0.5,0l0.5,0.2
										c0.1,0,0.3,0.1,0.7,0.2l-0.2,0.1c0.7,0.3,1.5,0.5,2.3,1.1c0.1-0.1-0.5-0.7,0.4-0.3c0,0.1,0,0.2-0.3,0.1
										c0.1,0,0.3,0.1,0.5,0.2l-0.4-0.1c0.4,0.3,0.3,0,0.6,0.2c-0.1,0.1,0.2,0.2,0.1,0.2c-0.1,0-0.3-0.2-0.4-0.2
										c0.3,0.2,0.7,0.5,0.9,0.6c0-0.1,0.1-0.1,0.3,0c0.7,0.4,0.2,0.2,0.5,0.5c0.2,0,0.6,0.3,0.7,0.2c0.2,0.1,0.2,0.2,0.3,0.3
										c0.4,0.1,1.6,0.9,1.3,0.5l-0.1-0.1c0,0,0,0,0.1,0l0,0l0,0c1.2,0.5,2.3,1.4,3.4,2l0,0c0.7,0.3,1.5,0.9,2,1
										c0.2,0.1,0.4,0.4,0.3,0.4c0.5,0.3,0.6,0.3,1.3,0.8c-0.5-0.2,0.1,0.2-0.5-0.3c0.6,0.4,0.7,0.6,1.5,0.9
										c-0.3,0,0.4,0.4,0.7,0.6L22,19.2c0.4,0.2,0.7,0.4,1,0.6l-0.3,0c1.2,1,2.6,1.2,3.4,2.1c0.4,0.1-0.7-0.5-0.3-0.4
										c0.6,0.4,1.1,1,1.3,1.1c0.8,0.6,0.9,0.3,1.8,0.9c-0.1-0.1-0.1-0.3,0.6,0c0.6,0.4,0.6,0.7,0.2,0.5c-0.2-0.1-0.2-0.1-0.2-0.2
										c-0.2-0.1-0.5-0.2-0.3,0l0.1,0c0.3,0.2,1.1,0.7,0.9,0.7c0.5,0.2,0.2,0-0.1-0.2c0.7,0.6,1.2,0.7,2,1.3
										c-0.1-0.1-0.2-0.2-0.1-0.2c1.2,0.8,0.6,0.2,1.4,0.7c0.4,0.3-0.3,0.1,0.6,0.5c0.5,0.3,0,0.2-0.2,0.1
										c0.8,0.3,1.4,0.8,1.8,1.1l-0.4-0.2c0.3,0.1,0.4,0.2,0.6,0.3l-0.2-0.2c0.2,0.1,0.4,0.3,0.4,0.3c0.3,0.1-0.1-0.3,0.4-0.1
										c0.3,0.2,1,0.4,1,0.6c-1-0.6,0,0.2-0.8-0.2c0.2,0.1,0.4,0.2,0.6,0.3c0,0,0,0-0.1,0c0.9,0.6,0.5,0.1,1.5,0.6
										c-0.2,0,0.2,0.3,0.3,0.3c-0.4-0.2-0.1-0.2,0.3-0.1c0.6,0.4,0.7,0.3,1.1,0.5L40,29.7c0.2,0,0.5,0.1,0.9,0.3
										c0,0.1-0.4-0.2-0.3,0c0.6,0.1,1.1,0.7,1.8,0.9c0.3,0.2,0,0.2,0.2,0.3c0.8,0.2,0.8,0.5,1.7,0.8c-0.2-0.2-0.2-0.2,0.4-0.1
										l-1.4-0.5l0.9,0.2c-0.4-0.2-0.9-0.3-1.1-0.4c0.5,0.1,0.4,0.1,0.2-0.1c0.5,0.4,1.2,0.4,1.8,0.8l-0.1,0.3
										c0.9,0.6,1.8,0.6,3.1,1.2l-0.4-0.2c0.2,0,0.8,0.3,1.2,0.4c-0.1,0.1,0.2,0.2,0.3,0.3c0-0.1,1,0.3,1.1,0.2l0.5,0.3
										c1.1,0.4,1.3,0.2,2.3,0.5c-0.3,0,0.1,0.2-0.6,0.1c0.3,0.1,0.7,0.2,0.7,0.1c0.2,0.1,1,0.1,1.3,0.3c0.2,0,0.2-0.1,0.6,0
										c0,0,0,0,0,0c0,0,0.6,0.1,0.3-0.1c1,0.6,3,0.7,3.9,1.2c0.8,0.1,1.7,0.2,2.4,0.3c0,0,0,0-0.1,0c1,0.3,0.6-0.2,1.7,0.1
										c0.5,0.2-0.6,0-0.3,0.1c0.1,0.3,1.3,0.1,2.1,0.4l-0.2,0c0.6,0.2,1.4,0.1,2.3,0.1c0,0,0,0,0,0c0.7-0.1,1.9-0.1,2.8-0.1
										c-0.3,0.1-0.4,0-0.2,0.2c0.4,0-0.1-0.2,0.7-0.2c0.3,0.1,0.8,0.1,0.9,0.3c-0.3,0-0.5,0-0.8,0c0.4,0.2,1,0,1.4,0L72.3,38
										c1.2,0,1.2-0.2,2.4-0.2l-0.1-0.1c0.7-0.2,0.6,0.1,1.3-0.1l0.2,0.2c0.5-0.1,1.6-0.3,2.4-0.4c-0.4,0.2-1.4,0.3-2,0.4
										c0.5,0,1.5-0.1,1.8-0.2c-0.2,0-0.4,0.1-0.6,0.1c0.5-0.2,1.3-0.3,2.2-0.4c-0.1,0.4,2.3-0.2,3,0c1.6-0.3,3.1-0.4,4.9-0.8
										c-0.7-0.2,0.5-0.1,0.4-0.4c0.4-0.1,0.6-0.1,0.6-0.1L90,36c0.3,0-0.4,0.2-0.3,0.2c0.9-0.2,0.4,0,1,0
										c-0.1-0.1,0.3-0.2,0.8-0.3l-0.8,0c1.2-0.5,1.2,0,2.4-0.5l-0.4,0.2c0.7-0.2,2.4-0.7,3-1.1c0.1,0,0.3,0,0,0.1
										c0.8-0.2,1.6-0.5,2.4-0.9c0.8-0.4,1.5-0.7,2.2-0.9l-0.1,0.1c0.3-0.1,0.4-0.3,0.8-0.4c0,0-0.1,0.1,0,0.1
										c0.1-0.1,0.7-0.4,1.1-0.5l-0.3,0.2c1.5-0.6,2.1-1.2,3.3-1.9c0,0.1,0.4,0,0.7-0.1c0.4-0.1,0.8-0.4,1.1-0.5l0,0
										c1.6-0.9,2.7-1.7,4.1-2.7c0.5-0.2,1.3-0.7,2.1-1.2c0.8-0.6,1.7-1.2,2.4-1.7c-0.2,0.1-0.1-0.2,0.2-0.4
										c0.4-0.2,0.8-0.8,0.9-0.6l-0.1,0.1c0.4,0,1-0.6,1.5-1l-0.1-0.3c1.6-0.8,3.2-3.1,4.1-3.5c0.3-0.3,0.6-0.7,0.8-1l0.1,0.1
										c0.8-0.8,1.2-1.2,2.1-2.2l-0.1,0.3c0.6-0.6,0.3-1,0.8-1.6l0.3,0c0.9-1,1.9-2,2.6-3.2c0,0,0,0.1-0.1,0.3
										c0.4-0.5,1.6-1.9,1.3-1.9c0.2,0.1,0.8-1.2,1.2-1.8l0,0.2c0.2-0.6,0.2-0.7,0.6-1.4c0.1-0.2,0.2-0.1,0,0.1
										c0.5-0.5,0.2-0.5,0.7-1.2l-0.1,0.3c0.4-0.6,0.3-0.6,0.4-1c0.2-0.4,0.7-1.1,0.9-1.1c0-0.1,0.1-0.5,0.3-0.8
										c0.1,0,0,0.1,0,0.2c0.7-1,0.7-1.6,1.3-2.2c0,0,0.1,0,0.1-0.1C135,1.4,134.6,2,134.6,2c0.1,0.1,0.5-0.6,0.4,0
										c0.2-0.6,0.6-1.6,1-2.2c0,0,0.1-0.1,0.1-0.1l0,0.1c0.1-0.1,0.2-0.3,0.2-0.4c0.1-0.2,0.2-0.3,0.3-0.5c0.1,0,0.5-0.7,0.6-1.1
										c-0.1,0,0.1-0.5-0.2-0.1c0,0,0,0.1-0.1,0.3c0,0.1-0.1,0.1-0.1,0.1l0,0c-0.1,0.2-0.3,0.5-0.4,0.8c0.1-0.3,0.2-0.6,0.4-0.9
										c0-0.2,0-0.4,0-0.6c0.4-0.4,0.9-1.2,1.1-1.3c0.4-1.1,1.1-2.5,1.2-3.3c0.1-0.3,0.2-0.3,0.3-0.4c-0.1,0.2-0.1,0.4-0.2,0.5
										c0.2-0.6,0.8-1.8,0.7-2c0.4-0.7,0,0.5,0.4-0.6l0,0.2c1.1-2,0.9-3.5,2.1-5.7c-0.1,0.2-0.1,0.2-0.2,0.3
										c1.1-2.6,1.7-5.6,2.7-8.2c0.3-0.8,0.2-0.9,0.2-1.4l0.2-0.1l0-0.8c0.2-1.2,0.8-1.9,0.9-3.4l-0.1,0.2
										c0.1-0.5,0.3-1.7,0.4-1.6c0-0.1-0.1-0.2,0-0.4l0.1,0l0.1-1.3c0.2-1,0.3,0.2,0.6-1.3c0.1-0.6,0-1.6-0.1-1.4
										c0,0.2-0.1,0.6-0.2,0.6l0-0.5c-0.2-0.1-0.4-0.5-0.7,0.7l0,0.9l-0.2,0.3l0.1-0.7c-0.2,0.4-0.1,0.7-0.1,0.9
										c-0.1,0.1-0.1,0.2-0.2,0.3l0.1,0.9c-0.1,0.1-0.1-0.4-0.3,0.1c0,0.4,0.3-0.3,0.2,0.3c-0.2,0.4-0.2,0.2-0.3,0.7
										c-0.1,0.1-0.1-0.1-0.1-0.2c0,0.4-0.2,1.1-0.1,1.4c-0.2,0.4-0.3,1.4-0.5,1.3c0,0.1,0,0.8-0.1,1.2c-0.1-0.8-0.4,1.4-0.6,1.2
										c0.1,0.6-0.4,1.9-0.5,2.8c0-0.1,0-0.2,0-0.2c-0.2,0.5-0.3,0.6-0.4,0.9c0.2,0.1,0,0.9,0,1.4c-0.4,0.6-0.1-0.4-0.3-0.3
										c0.2,0-0.2,1.1,0,1c-0.3,0.4-0.2,0.4-0.4,0.6c0.2,0.2-0.1,0.5-0.1,0.9c-0.3,0.6-0.3,0.1-0.5,0.9
										C142-17.1,142.1-17.8,142.1-17.8z M135.1-0.5L135.1-0.5c0.1-0.1,0.1-0.3,0.2-0.3C135.2-0.7,135.2-0.6,135.1-0.5z
										 M134.3,0.9c0.1-0.2,0.2-0.4,0.3-0.6c0.1,0,0.1,0.1,0,0.2C134.7,0.4,134.4,0.7,134.3,0.9z M136.8-1.6
										c-0.1,0.2-0.2,0.3-0.2,0.3C136.6-1.4,136.7-1.5,136.8-1.6c0-0.1,0-0.1,0-0.1C136.8-1.6,136.8-1.6,136.8-1.6z"/>
									<path class="st4" d="M136.8-2C136.8-2.1,136.8-2.1,136.8-2C136.8-2.1,136.8-2.1,136.8-2c-0.1,0.1-0.1,0.1-0.1,0.1
										C136.8-2,136.8-2,136.8-2z"/>
									<path class="st4" d="M13.8,14.2L13.8,14.2C13.8,14.2,13.8,14.2,13.8,14.2C13.8,14.2,13.8,14.2,13.8,14.2z"/>
									<polygon class="st4" points="121,18 121,18 121.1,17.9 									"/>
									<path class="st4" d="M6.3,9.7C6.3,9.7,6.3,9.6,6.3,9.7C6.2,9.6,6.3,9.7,6.3,9.7z"/>
									<path class="st4" d="M2.9,8.1L2.4,7.9C2.6,8,2.7,8.1,2.9,8.1z"/>
									<path class="st4" d="M0.2,7C0.1,7,0.1,7,0.2,7L0.2,7L0.2,7z"/>
									<path class="st4" d="M40.7,29c0,0,0.1,0,0.1,0C41,29.1,40.8,29,40.7,29z"/>
									<path class="st4" d="M28.5,22.6c0.1,0.1,0.3,0.1,0.4,0.2C28.8,22.6,28.6,22.5,28.5,22.6z"/>
									<polygon class="st4" points="54.9,34.3 54.9,34.3 54.9,34.3 									"/>
									<path class="st4" d="M29.5,23.1c-0.2-0.1-0.4-0.2-0.5-0.3C29.1,22.9,29.3,23,29.5,23.1z"/>
									<path class="st4" d="M-12.1,4.1l-0.1,0c0,0,0,0,0,0L-12.1,4.1z"/>
									<path class="st4" d="M-12.3,4.1c-0.1,0-0.1,0-0.2,0C-12.4,4.1-12.3,4.1-12.3,4.1z"/>
									<path class="st4" d="M-12.8,4.1l0.3,0C-12.6,4.1-12.7,4.1-12.8,4.1z"/>
									<path class="st4" d="M-8.3,4.7L-8.3,4.7C-8.3,4.7-8.3,4.7-8.3,4.7z"/>
									<path class="st4" d="M-7.2,5c-0.3-0.1-0.7-0.2-1.1-0.3l0,0C-8.1,4.7-7.4,5-7.2,5z"/>
									<path class="st4" d="M-2.6,6.8c-0.3-0.1-0.6-0.2-0.9-0.3c0.1,0.1,0.3,0.2-0.1,0.1C-2.5,7.1-3.8,6.4-2.6,6.8z"/>
									<path class="st4" d="M0.2,7.8C-0.3,7.6,0.2,7.9,0.2,7.8C0.5,8,0.6,8,0.2,7.8z"/>
									<path class="st4" d="M19.6,17.7l-0.1,0.1C19.9,18,19.5,17.8,19.6,17.7z"/>
									<polygon class="st4" points="23.5,19.4 23.2,19.1 23,19.1 									"/>
									<polygon class="st4" points="25.2,21.5 25,21.4 25.6,21.7 									"/>
									<path class="st4" d="M58.7,36.5l-0.1-0.2C58.3,36.3,58.2,36.5,58.7,36.5z"/>
									<path class="st4" d="M74.6,37.8c0.2,0.1,0.6,0.1,0.9,0C75.1,37.9,74.8,37.8,74.6,37.8z"/>
									<polygon class="st4" points="118.7,21.8 118.5,22 118.9,21.6 									"/>
								</g>
							</g>
						</g>
					</g>
				</g>
			</g>
			<g id="lidjBw.tif_1_" class="st1">
				
					<image style="overflow:visible;" width="855" height="627" id="Layer_1_2_" xlink:href="36AA50B0E5F7029D.png"  transform="matrix(0.2903 0 0 0.2909 29.6855 43.2783)">
				</image>
			</g>
		</g>
	</g>
</g>
</svg>
