<?xml version="1.0" encoding="utf-8"?>
<!-- Generator: Adobe Illustrator 23.0.1, SVG Export Plug-In . SVG Version: 6.00 Build 0)  -->
<svg version="1.1" id="Layer_1" xmlns="http://www.w3.org/2000/svg" xmlns:xlink="http://www.w3.org/1999/xlink" x="0px" y="0px"
	 viewBox="0 0 27 27" style="enable-background:new 0 0 27 27;" xml:space="preserve">
<style type="text/css">
	.st0{fill:#FFFFFF;}
</style>
<g id="_x38_GMeuG.tif_1_">
	<g>
		<path class="st0" d="M13.2,25.2c-1-0.5-1.6-1.3-2.2-2.2c-2.4-3.1-4.4-6.4-5.8-10.1C3,7.2,7.2,1.6,12.5,1.1c0.1,0,0.2-0.1,0.3-0.1
			c0.5,0,1.1,0,1.6,0c1,0.3,2,0.5,3,0.9c3.4,1.6,5.5,5.1,5.1,8.8c-0.2,1.4-0.7,2.7-1.3,4c-1.5,3.4-3.5,6.5-5.9,9.3
			c-0.4,0.5-0.9,0.8-1.4,1.2C13.6,25.2,13.4,25.2,13.2,25.2z M13.5,23.9c0.2-0.3,0.3-0.4,0.4-0.5c2.8-3.2,5.1-6.8,6.6-10.9
			c0.5-1.3,0.7-2.6,0.4-3.9c-0.9-4.3-5.1-6.9-9.2-5.9c-4.1,1.1-6.7,5.5-5.2,9.6c1.1,3.1,2.8,5.9,4.7,8.5
			C11.8,21.8,12.6,22.8,13.5,23.9z"/>
		<path class="st0" d="M18.8,10c0,2.8-2.3,5.2-5.2,5.2c-3,0-5.3-2.3-5.3-5.3c0-2.8,2.4-5.2,5.2-5.2C16.4,4.7,18.7,7.1,18.8,10z
			 M17.4,9.9c-0.1-2.2-1.9-3.9-4-3.8C11.3,6.2,9.6,8,9.7,10.1c0.1,2.2,1.8,3.8,4.1,3.8C15.8,13.7,17.4,11.9,17.4,9.9z"/>
	</g>
</g>
</svg>
