<?xml version="1.0" encoding="utf-8"?>
<!-- Generator: Adobe Illustrator 23.0.1, SVG Export Plug-In . SVG Version: 6.00 Build 0)  -->
<svg version="1.1" id="Layer_1" xmlns="http://www.w3.org/2000/svg" xmlns:xlink="http://www.w3.org/1999/xlink" x="0px" y="0px"
	 viewBox="0 0 315.9 362.4" style="enable-background:new 0 0 315.9 362.4;" xml:space="preserve">
<style type="text/css">
	.st0{fill:none;stroke:#1D1E41;stroke-width:0.5;stroke-miterlimit:10;}
	.st1{fill:#F9C553;}
</style>
<path class="st0" d="M88.7,299.1c0,0-62.8-103.1-23-299.1"/>
<path class="st0" d="M227.2,169.5c0,0,31.8-26.5,13.2-169.5"/>
<g>
	<polygon class="st1" points="80.5,246.8 102.7,284.5 140,272.8 113.1,306.5 133.7,337.5 94.2,321.8 70.2,351.4 71.6,308.1 
		37.4,295.4 74.2,286.1 	"/>
	<g>
		<g>
			<g>
				<g>
					<path class="st1" d="M80.8,246.9c0-0.2-0.1-0.1-0.2,0.5l0.1,0.4L80.8,246.9z"/>
					<path class="st1" d="M79.9,250.7c0,0.7,0,1.5,0.2,1.1c-0.1-0.7,0-0.8,0-1.6c0.1-0.6,0.2-1,0.3-0.9c0-0.2,0.2-0.9,0.1-1.2
						c-0.2,0.7-0.4,1.7-0.5,2.7C79.9,251,79.9,250.7,79.9,250.7z"/>
					<path class="st1" d="M53.8,291l0.4-0.1C54,291,53.9,291,53.8,291z"/>
					<path class="st1" d="M54.4,302.1c-0.3-0.1-0.4-0.1-0.4-0.1C54.2,302,54.4,302.1,54.4,302.1z"/>
					<path class="st1" d="M59.9,304.3c-0.1,0-0.2-0.1-0.3-0.1C59.7,304.3,59.8,304.3,59.9,304.3z"/>
					<path class="st1" d="M53.8,291l-0.9,0.2C52.8,291.3,53.3,291.1,53.8,291z"/>
					<path class="st1" d="M79.1,258.5c0-0.2,0-0.4,0-0.5C79.1,258.2,79,258.3,79.1,258.5C79,258.5,79,258.5,79.1,258.5z"/>
					<path class="st1" d="M68.8,287.1l0.3-0.1c0.1,0,0.1-0.1,0.2-0.1L68.8,287.1z"/>
					<path class="st1" d="M74.8,279.7c0,0.3,0.1,0.4,0.1,0.5c0-0.2,0-0.4,0-0.6C74.9,279.6,74.9,279.6,74.8,279.7z"/>
					<path class="st1" d="M78.1,261.1l0-0.3C78.1,260.8,78.1,261,78.1,261.1z"/>
					<path class="st1" d="M60.5,289.2c0,0-0.1,0-0.1,0C60.4,289.2,60.5,289.2,60.5,289.2z"/>
					<path class="st1" d="M86.9,259.1C87,259.1,87,259.1,86.9,259.1C86.9,259,86.9,259,86.9,259.1z"/>
					<path class="st1" d="M80.5,246.8l0.1,0.2c0,0,0.1,0,0.1,0L80.5,246.8z"/>
					<path class="st1" d="M70.2,308.3C70.2,308.3,70.2,308.3,70.2,308.3C69.9,308.2,70,308.3,70.2,308.3z"/>
					<path class="st1" d="M111.2,329.2c-1-0.5,1.8,0.5,0.2-0.2C111.5,329.1,109.9,328.6,111.2,329.2z"/>
					<path class="st1" d="M79,258.8c0,0.2-0.1,0.3-0.1,0.5C78.9,259.1,79,258.9,79,258.8z"/>
					<path class="st1" d="M111.4,328.9L111.4,328.9l-0.2-0.1C111.3,328.9,111.3,328.9,111.4,328.9z"/>
					<path class="st1" d="M70.2,332.2c0-0.1,0-0.2,0.1-0.3C70.3,332,70.3,332.1,70.2,332.2z"/>
					<path class="st1" d="M71,313.3l0,0.5C71,313.6,71,313.5,71,313.3z"/>
					<path class="st1" d="M70.1,342.1c0,0.3,0,0.3,0,0.7c0,0,0-0.1,0-0.1C70.1,342.5,70.1,342.4,70.1,342.1z"/>
					<path class="st1" d="M70.6,351.6c0,0-0.1,0.1-0.2,0.2c-0.1,0.1-0.2,0.3-0.3,0.4L70.6,351.6z"/>
					<path class="st1" d="M104,284.8c-0.2,0-0.4,0-0.5,0c0.1,0-0.4,0.2-0.6,0.3c-0.1,0-0.1,0.1,0.1,0
						C103.1,285,103.4,284.9,104,284.8z"/>
					<path class="st1" d="M79,258.5c0,0.1,0,0.2,0,0.3C79,258.7,79,258.6,79,258.5C79,258.4,79,258.4,79,258.5z"/>
					<path class="st1" d="M71.2,342.5l-0.1,1.6C71.2,343.7,71.2,343.1,71.2,342.5z"/>
					<path class="st1" d="M117.5,300.1l0.2-0.3C117.6,299.9,117.5,300,117.5,300.1z"/>
					<path class="st1" d="M71,349C71,349.1,71,349,71,349c0,0.1-0.1,0.1-0.1,0.1c0,0,0,0.1,0,0.1c0,0,0,0,0,0l0-0.1l0,0
						C71,349,71,349.1,71,349z"/>
					<path class="st1" d="M103.5,284.8C103.5,284.8,103.5,284.8,103.5,284.8C103.5,284.8,103.5,284.8,103.5,284.8z"/>
					<path class="st1" d="M96.9,276.3c0.8,1.3,0.5,0.5,0.8,0.8c1,1.6,0.3,0.8,0.6,1.4c0.6,1,1.2,1.6,1.7,2.4c0,0.1,0.1,0.2-0.1,0.1
						c0.3,0.4,0.7,1.1,1.2,1.8c0.2,0.4,0.4,0.7,0.7,1.1c0.3,0.5,0.6,0.9,0.8,1.3c0.2-0.1,0.5-0.2,0.7-0.3c0.2,0,0.2,0,0.3,0
						c-0.4,0-0.4-0.1-0.3-0.2c0.2-0.1,0.4-0.1,0.5-0.2c0.1-0.1,0.3-0.1,0.4-0.2c0.3-0.1,0.5-0.2,0.6-0.1c-0.4,0.1-0.4,0.2-0.6,0.3
						l0.7-0.3c0.7,0-0.9,0.4-0.9,0.5c1.3-0.5,2.9-1.1,3.9-1.4c0.3,0.1-2.4,0.8-1,0.5l-1.6,0.4c1.3-0.1-1,0.3,0.2,0.2
						c2.1-0.6,2.3-0.8,4.5-1.4c0.4-0.2-0.2-0.1,0.2-0.3c2.9-1.1,2.5-0.3,4.6-1.2c0.5-0.3,0.7-0.6,2.3-0.9l-0.5,0.4
						c2-0.6,1.1-0.6,3.3-1.2c-0.4,0.2-1.6,0.6-1.3,0.5c1.4-0.3,0.9-0.4,2-0.7l0.3,0.1c2.2-0.7,4.5-1.5,6.9-2.4
						c-0.1,0.1-0.5,0.3,0.1,0.1c3-1,6.5-2,9.5-2.8l0.3-0.1l0.1-0.1c0,0,0,0,0,0c0,0,0.1-0.1,0.2-0.1c0.1,0,0.1,0,0,0.1
						c0.2,0,0.1-0.1,0.4-0.3c0.3-0.1,0.1,0.1-0.1,0.2c0.1,0,0.1-0.1,0.2-0.1c0,0.1-0.1,0.2-0.2,0.4l-0.1,0.1c0,0.1-0.1,0.1-0.2,0.3
						c-0.2,0.3-0.4,0.5-0.6,0.8c-0.8,1.1-1.7,2.2-2.4,2.9l0.2-0.4c-1.1,1.3-1,1.7-2.1,2.9l0.2-0.3c-2.4,2.9-4.9,6.2-6.8,8.3
						c-0.2,0.6-2.4,2.8-2.3,3.2c-1.5,1.6-1.1,1.1-3.1,3.4c-0.5,0.6-0.6,1.1-1.2,1.9l-0.1-0.1l-0.7,1.2l-0.6,0.4l-0.6,0.8
						c0.2-0.3,0.5-0.6,0.5-0.5c-0.9,1.2-2.3,2.7-2.4,2.7l-2.1,2.8c0-0.1,0.3-0.6,0.6-0.9c-1,1.5-0.3,0.2-1.3,1.6
						c0.2-0.2,0,0.2,0,0.2c-0.1,0.2-0.4,0.5-0.7,0.8c0.3,0.5,0.7,1.1,1.1,1.8c0.4,0.5,0.7,1.1,1,1.5l-0.2-0.2c1.4,2.2,3,4.5,4.6,6.9
						c-0.5-0.9-0.2-0.8,0.2-0.1l0.1,0.4c0.4,0.4-0.4-0.8,0.3,0.1c0.6,0.9,0.2,0.7-0.1,0.2l0.8,1.1c0,0.1-0.2-0.2-0.3-0.2
						c0.4,0.4,1.1,2,1.7,2.5l0,0.1c1.6,2.4,2.3,3.5,3.7,5.4c0.1,0,0.6,0.7,1.1,1.3c0.9,1.5,1.9,3.1,3,4.8c0.9,1.2,0.3,0.3,0.8,0.8
						c0,0.2,1.1,1.9,0.4,1c0.5,0.7,0.8,1.3,1.2,1.8c0.1,0.2,0.3,0.4,0.5,0.6c0,0-0.2,0-0.5-0.1c0.2,0.1,0.4,0.2,0.4,0.3
						c-0.3-0.1-0.7-0.3-0.6-0.4l0.1,0l-0.1,0l-0.3-0.1c-0.2-0.1-0.4-0.2-0.7-0.2c-0.4-0.2-0.9-0.4-1.3-0.5c-0.9-0.4-1.8-0.8-2.7-1.2
						c-1.8-0.8-3.5-1.6-4.8-2l0.2,0l-2.8-0.9c-1.2-0.5,0.8,0.2-0.1-0.2c-3-1-4.6-1.9-7.1-2.7c-1.7-1.1-6.6-2.6-9.1-3.8l0.1,0.1
						c-0.7-0.2-0.8-0.4-1.2-0.6c0,0.1,0.7,0.4,0.3,0.2c-1.2-0.5-2.5-0.9-3.7-1.4c-1.4-0.6-2.8-1.1-4.2-1.7c-2.3,2.7-4.6,5.5-6.9,8.3
						c-1.4,1.7-0.4,1.3-2.4,3.3l0.4-0.7c-2.7,3.6-5.8,7.1-8.4,10.7c0.1-0.2,0.1-0.3,0.4-0.6c-0.7,0.6-2.2,2.7-2.1,2.7
						c-0.4,0.5-0.2,0.1-0.5,0.4c-0.6,0.7-1.4,1.9-1.8,2.2c-0.1,0.1,0.1-0.2,0.2-0.4c-0.3,0.5-1.8,2.2-1.3,1.8
						c-0.4,0.5-0.4,0.4-0.5,0.6c-0.1,0.1-0.2,0.2-0.2,0.3c0-0.1,0-0.3,0-0.5c0,0-0.1-0.1-0.1-0.2c0-0.3,0-0.6,0-0.9
						c0-0.6,0.1-1.2-0.1-1.3c0.2,0.1,0.3-2.9,0.2-3.9c0.1,0.4,0.1-0.9,0.2-0.5c0-1.2,0-2.3-0.1-2.1c0.3-2.2-0.1-4.4,0.3-5.6
						c0-3.5,0-6.8,0.1-10c0.2,0.1-0.1,3.5,0.2,3.4c0-3-0.1-4.8,0-7.8c0.1-0.8,0.1,0.4,0.1,0.7c0-3,0.2-5.8,0.2-8.5c0,0,0,0.3,0,0.6
						c0-0.5,0.1-1.2,0-1.2l0,0.5c-0.2,0.8-0.2-2.1-0.3-2.2c0.1,0.5,0.2-0.2,0.2-0.8c0-0.5,0.1-1.3,0.3-0.4c0-0.2,0-0.5,0-0.7
						c0-0.2,0-0.3-0.1-0.3c0,0,0-0.1,0-0.1c-0.6-0.3-0.9-0.4,0-0.1c-0.3-0.1-0.6-0.2-0.9-0.3c-0.2,0-0.3-0.1-0.4-0.1
						c-0.2-0.1-0.4-0.1-0.5-0.1c-0.3-0.1-0.5-0.1-1.3-0.4c0,0,0.4,0.1,0.5,0.1c-0.8-0.2-1.7-0.4-3-1c0.1,0-0.1-0.1,0.4,0.1
						c-2.3-0.9-4.1-1.2-6.6-2.3c0.8,0.1-0.8-0.4-0.9-0.6l-1.4-0.5l0.5,0.3c-1.2-0.5-2.3-0.7-3.3-1.2l0.9,0.3l-2.3-0.8l1.3,0.5
						c-1.3-0.4,0,0.3-1.5-0.4c0.3,0.1-1.2-0.5-1.8-0.8l0,0c-0.6-0.2-1.3-0.3-2.1-0.7c-0.2-0.1,0.3-0.1,0.1-0.2
						c-0.6-0.1-2.8-1-3.6-1.1c0.3,0.1,0.3,0,0.2-0.1l-0.5-0.1c-0.5-0.2-0.6-0.3-0.5-0.3c-1.7-0.6,0.5,0.4-1.5-0.4
						c0.2,0,0.1,0,0.4,0.1c-1-0.4-2-0.7-2.9-1.1c-0.5-0.2-0.9-0.3-1.4-0.5c-0.3-0.1-0.7-0.3-1-0.4c0.1-0.2,1.1,0.4,0.9,0.1
						c-0.3-0.1-0.7-0.2-1-0.3l0.8-0.2l0.5-0.1l0.8-0.2c1.1-0.3,2.1-0.6,3.2-0.8l-0.5,0.1c0.3-0.3,2-0.4,3.3-0.8
						c-0.3,0.1-0.4,0.3-0.3,0.2c1.8-0.4,3.7-1,6.4-1.8l-0.3,0.2c1.1-0.2,2.8-0.7,4-0.9c0.3-0.2,1-0.3,0.6-0.3
						c3.7-0.5,6.8-1.9,10-2.4c-0.4,0.1-0.9,0.3-0.6,0.2l2.7-0.7c-0.2-0.1-0.4,0-1,0.1c0.3-0.2,1.1-0.4,1.7-0.6
						c-1.2,0.4,0.1,0.2,0.6,0.1c-0.1,0,0.1-0.1,0-0.1c1.5-0.2,0.2-0.3,2.1-0.6l-0.1,0.1c0.5-0.2,1-0.3,1.6-0.5
						c0-0.2,0.1-0.4,0.1-0.6c0.1-0.2,0,0.3,0,0.7c-0.2,0.1-0.3,0.1-0.3,0.1l0.3-0.1c0.1-0.7,0.1-1.1,0.1-1.6c0-0.5,0.1-1,0.2-1.4
						c-0.1,0.5-0.1,1.2-0.2,1.6c0.3-1.1,0.3-1.2,0.5-2l0,0.1l0.4-1.9l-0.1,0.5c-0.1-1.4,0.4-2.8,0.5-4.8c-0.1,1.9,0.1,0.3,0.2,0.5
						c0.1-0.5,0.3-1.2,0.3-1c0-0.9,0.3-1.5,0.4-2.7c0.1,0,0.2-0.9,0.2-0.7c0.1-1.2-0.1,0.3-0.2,0.2c0.1-1.8,0.9-4.1,1-6.7
						c0.3-2.2,0.2-2.7,0.4-4.7c0.2-0.7,0.1,0.6,0.1,0.6c0.2-1.1,0.4-1.9,0.5-3c0,0.2,0.1,0,0.2-0.3c0.1-0.8-0.1-0.6,0.2-1.7
						c0,0.2,0.1,0.5,0.1,0.9c0.1-1,0.2-2,0.3-3c0.1-0.3,0,0.6,0,1c0.1-1.2,0.4-3,0.3-3.4l-0.2,0.7c0.1-0.4,0.1-0.2,0.1,0.1
						c-0.1,1-0.3,1.4-0.3,1.5l0.1-0.7c-0.4,0.7-0.4,2.9-0.7,4.4l-0.1-0.6l-0.1,1.5c-0.1,0.3-0.3,0.5-0.2-0.2c-0.3,1-0.1,0.9-0.3,1.8
						c0,0.1,0,0.1,0,0l-0.1,1c0-0.2-0.2,0.1,0-0.5c-0.4,1.8-0.3,3-0.6,3.7l0-0.2c-0.3,2.6,0.1,0.3,0,2.2l-0.6,1.2l0.1,0.3
						c0,0.3-0.1,0.8-0.2,0.7c-0.1,1,0.1-0.2,0.1,0.4c-0.3,1.3-0.5,3.5-0.8,3.8c0,0.5,0.3-1.2,0.1,0.2c-0.3,0.3-0.2,1.6-0.5,2.7
						c-0.1-0.4,0.2-1.5-0.1-0.3c0.1,0.7-0.4,2.3-0.5,3.3c0.2,0.1-0.3,2.1-0.5,3.8c0,0-0.1,0.3-0.2,0.8c-0.1,0.5-0.2,1.1-0.3,1.7
						c-0.6,0.1-1.3,0.3-1.7,0.4l0,0c-0.2,0.3-1.8,0.6-2.9,0.9c0-0.1,0.2-0.2,0.8-0.4l-1.1,0.3c-0.2,0.1-0.6,0.2-1.2,0.4l0.2-0.2
						c-1.4,0.4-2.8,0.9-4.7,1.2c-0.1,0.1,1.5,0-0.4,0.5c-0.1,0-0.2-0.1,0.3-0.3c-0.2,0.1-0.6,0.2-0.9,0.3l0.7-0.3
						c-0.8,0.2-0.4,0.2-1.1,0.4c0-0.1-0.5,0.1-0.4,0c0.2-0.1,0.6-0.1,0.8-0.2c-0.8,0.2-1.7,0.3-2,0.3c0.1,0,0,0.1-0.5,0.3
						c-1.4,0.4-0.5,0-1.4,0.2c-0.3,0.2-1.2,0.3-1.2,0.5c-0.4,0.1-0.5,0.1-0.7,0.1c-0.7,0.2-3.4,0.9-2.6,0.8l0.2,0c0,0-0.1,0-0.1,0
						c0,0,0,0,0,0l0,0c-2.4,0.7-5,1.2-7.4,1.8l0,0c-1.4,0.4-3.2,0.8-4.1,1.2c-0.4,0.1-1,0.2-0.8,0.1c-0.5,0.2-0.8,0.2-1.2,0.4
						c-0.4,0.1-0.7,0.2-1.8,0.4c0.7-0.2,0.6-0.2,0.5-0.2c0,0,0,0,0.1,0c0.1,0,0.3-0.1,0.8-0.2c-0.9,0.2-1.4,0.3-2,0.4
						c-0.6,0.1-1.3,0.3-2,0.5c0.1,0,0.3,0.1,0.5,0.2c-0.5-0.1-0.3,0,0.3,0.2c0.6,0.2,1.4,0.6,1.9,0.7l-1.3-0.6
						c0.5,0.2,1,0.4,1.5,0.5c0.4,0.1,0.8,0.3,1.1,0.4l-0.4,0c2.7,1.2,5.2,1.6,7.2,2.7c0.8,0.2-1.5-0.6-0.8-0.5
						c1.3,0.5,2.5,1.2,2.9,1.4c1.7,0.7,1.7,0.4,3.5,1.1c-0.2-0.1-0.4-0.4,1,0.1c1.3,0.5,1.5,0.8,0.7,0.6C54.1,302,54,302,54,302
						c-0.4-0.1-1-0.3-0.5-0.1l0.2,0c0.6,0.3,2.4,0.9,1.9,0.9c1,0.3,0.4,0.1-0.3-0.2c1.6,0.7,2.6,1,4.3,1.6c-0.3-0.1-0.5-0.3-0.2-0.2
						c2.5,1,1.1,0.3,2.8,0.9c0.9,0.4-0.4,0.1,1.3,0.6c1,0.4,0.2,0.2-0.3,0.1c1.6,0.5,2.9,1.1,3.7,1.5l-0.8-0.3
						c0.5,0.2,0.9,0.3,1.3,0.5l-0.4-0.3c0.5,0.2,0.9,0.3,0.9,0.4c0.5,0.1-0.3-0.3,0.7-0.1c0.6,0.3,2,0.7,2.1,0.9
						c-2-0.8,0.2,0.2-1.5-0.4c0.3,0.1,0.7,0.3,1.2,0.5c0.1,0-0.1,0-0.2,0c0.3,0.1,0.5,0.2,0.6,0.3c0,0,0,0,0.1,0c0,0,0.1,0,0.1,0.1
						c0,0.2,0.1,0.6,0,1.2c-0.1-0.3-0.2,0.5-0.2,0.8c0-0.9,0.2-0.4,0.2,0.4c-0.1,1.4,0,1.5,0,2.2l0.1-0.8c0.1,0.3,0,1,0,1.9
						c-0.1,0.1,0-0.9-0.1-0.5c0.1,1.1-0.2,2.4-0.2,3.8c-0.1,0.7-0.2,0.1-0.2,0.7c0.1,1.7-0.2,1.8-0.1,3.5c0.1-0.5,0.1-0.6,0.2,0.6
						l0-2.8l0.1,1.8c0-0.9,0-1.8,0-2.3c0.1,0.9,0,0.8,0.2,0.4c-0.2,1.2,0,2.3-0.1,3.7l-0.3-0.1c-0.2,2,0,3.6-0.1,6.3l0.1-0.9
						c0.1,0.4,0,1.6,0,2.5c-0.1-0.1-0.1,0.5-0.2,0.8c0.1,0-0.1,1.9,0.1,2.2l-0.2,1.2c-0.1,2.1,0.2,2.5,0.1,4.5
						c-0.1-0.6-0.2,0.3-0.2-1.1c0,0.7-0.1,1.3,0,1.3c-0.1,0.4,0.1,1.9,0,2.5c0,0.3,0.1,0.4,0.1,1.2c0,0.1,0,0,0,0c0,0,0,1.2,0.2,0.5
						c-0.3,2-0.2,4.7-0.4,8c0.2-0.2,0.4-0.4,0.6-0.6c1.1-1.4,2.4-3,3.4-4.3c0,0.1,0,0-0.1,0.2c1.3-1.4,0.5-1.1,1.9-2.7
						c0.8-0.7-0.6,0.9-0.2,0.4c0.4,0,1.6-2,2.6-3l-0.2,0.3c0.8-0.8,1.6-2.2,2.7-3.5c0,0,0,0.1,0,0c0.6-1.1,2.1-2.9,3.1-4.3
						c-0.2,0.5-0.4,0.7-0.1,0.5c0.5-0.6-0.3,0,0.6-1.2c0.4-0.3,1.1-1.2,1.3-1.2l-0.9,1.1c0.6-0.5,1.2-1.5,1.7-2l0,0.1
						c1.4-1.8,1.3-1.9,2.8-3.8l-0.2,0.2c0.7-1.1,0.8-0.8,1.5-1.9l0.4-0.2c0.5-0.7,1.8-2.5,2.7-3.7c-0.4,0.8-1.5,2.2-2.2,3.2
						c0.5-0.7,1.8-2.3,2-2.7c-0.2,0.3-0.4,0.7-0.7,0.9c0.2-0.3,0.4-0.7,0.7-1.1c0.3-0.4,0.6-0.8,0.8-1.1c0.2,0.1,0.3,0.1,0.5,0.2
						c0.2,0.1,0.4,0.2,0.7,0.3c-0.4,0.2,4.1,1.7,5.2,2.5c2.9,1,5.6,2.3,8.8,3.6c-1.1-0.7,1,0.4,0.9,0c0.8,0.3,1.1,0.4,1.1,0.5
						l2.2,1.1c0.5,0.3-0.8-0.2-0.7-0.1c1.7,0.7,0.7,0.4,1.7,0.9c-0.2-0.2,0.6,0.1,1.6,0.5l-1.3-0.7c2.4,0.8,1.9,1,4.3,1.8l-0.8-0.2
						c1.2,0.4,4.5,1.8,5.7,2c0.2,0.1,0.5,0.3-0.1,0.1c1.4,0.6,3.1,1.2,4.6,1.7c0.8,0.3,1.5,0.6,2.2,0.8c1,0.4,2.1,0.8,3.1,1.3
						l-0.2,0c0.5,0.2,0.8,0.3,1.2,0.4c-0.3-0.4-0.5-0.8-0.8-1.2c0.1,0.1,0.4,0.4,0.1,0c-0.2-0.2-0.6-0.8-1-1.5
						c-0.2-0.3-0.4-0.6-0.7-0.9c-0.1-0.2-0.3-0.4-0.3-0.5l0.4,0.5c-1.6-2.6-2.7-3.8-4.2-5.9c0.2-0.1-1.1-2.1-1.7-3.2l0,0
						c-1.9-3-3.5-4.9-5.3-7.6c-0.9-1.8-3.7-5.8-5.4-8.6c0.2,0.4-0.2,0-0.5-0.4c-0.4-0.7-1.3-1.7-1.1-1.7l0.1,0.2
						c-0.1-0.2-0.2-0.5-0.4-0.8c-0.1-0.2-0.3-0.4-0.4-0.6c0.2-0.2,0.3-0.4,0.5-0.6l-0.1-0.3c2.3-2.3,5.1-6.7,6.5-7.8
						c0.4-0.6,1-1.4,1.5-2l0.1,0.1c1.4-1.7,2.1-2.5,3.7-4.6l-0.3,0.5c0.9-1.2,0.9-1.7,1.7-2.8l0.4-0.2c1.6-2,3.4-4,4.9-6.1
						c0,0.1,0,0.2-0.3,0.5c0.8-1,3.1-3.6,2.6-3.5c0.2,0.1,1.7-2.1,2.5-3.2l0,0.3c0.3-0.5,0.4-0.8,0.6-1.1c0.1-0.2,0.2-0.3,0.4-0.6
						c0.2-0.3,0.5-0.6,0.8-1.1c0.4-0.4,0.5-0.5,0,0.2c1-1.2,0.9-1.2,1.4-1.8c-0.3,0.1-0.7,0.2-1.1,0.3l1-0.4c-1.9,0.6-1.9,0.6-2.9,1
						c-0.1,0-0.3,0.1-0.4,0.2c-0.1,0-0.3,0.1-0.4,0.1c-0.3,0.1-0.6,0.2-0.8,0.2c-0.5,0.1-1,0.2-1.1,0.2c-0.2,0.1-0.8,0.4-1.6,0.7
						c-0.1,0,0.2-0.1,0.3-0.2c-2.2,0.6-3.2,1.2-4.7,1.5c0,0-0.1,0-0.3,0c1.7-0.5,3.1-1,3-0.9c0-0.1-1.4,0.3-0.4-0.2
						c-1.1,0.4-2.9,1.2-4.3,1.6c-0.1,0-0.1,0-0.2,0l0.1-0.1c-0.3,0.1-0.6,0.2-0.8,0.3c-0.4,0.1-0.7,0.2-1.1,0.3
						c-0.2-0.1-1.6,0.4-2.3,0.7c0.1,0.1-0.8,0.4,0.1,0.2c-0.1,0,0.1-0.1,0.6-0.2c0.1,0,0.2-0.1,0.3-0.1c0,0,0,0,0,0
						c0.5-0.1,1-0.3,1.7-0.5c-0.5,0.2-1.1,0.5-1.9,0.6c-0.3,0.2-0.7,0.4-0.9,0.5c-1,0.1-2.9,0.6-3.1,0.5c-2.1,0.7-4.9,1.6-6.2,2.3
						c-0.6,0.2-0.7,0.1-0.9,0.2c0.3-0.1,0.8-0.3,0.9-0.4c-1.2,0.4-3.5,1.1-3.8,1.4c-1.5,0.4,0.8-0.4-1.3,0.3l0.3-0.1
						c-1.1,0.3-2.1,0.6-3.1,0.9c-0.5,0.2-0.9,0.3-1.4,0.5l-0.7,0.3l-0.5,0.2l-0.2-0.3c-0.1-0.2-0.2-0.3-0.3-0.5
						c-0.2-0.4-0.5-0.7-0.7-1.1c-0.5-0.8-0.9-1.6-1.4-2.6c0.1,0.3,0.2,0.4,0.2,0.5c-2.6-4.7-5.8-9.5-8.3-14.2
						c-0.7-1.3-0.9-1.4-1.5-2.2l0-0.4l-1-1.3c-1.2-1.9-1.7-3.5-3.3-5.9l0.1,0.4c-0.5-0.9-1.7-2.8-1.5-2.7c-0.1-0.1-0.3-0.2-0.4-0.6
						l0.1-0.1l-1.4-2.1c-0.9-1.7,0.4,0.1-1-2.3c-0.6-0.9-1.7-2.5-1.6-2.1c0.2,0.4,0.5,1,0.5,1l-0.5-0.8c-0.3,0-0.9-0.5,0.2,1.6
						l1,1.3l0.2,0.5l-0.7-1.2c0.3,0.7,0.6,1.1,1,1.6c0,0.1,0.1,0.4,0.2,0.7l1,1.3c0,0.2-0.5-0.5,0,0.4c0.5,0.6-0.2-0.7,0.5,0.3
						c0.3,0.7,0.1,0.6,0.7,1.3c0,0.1-0.1,0-0.3-0.3c0.5,0.7,1.1,1.9,1.5,2.2c0.3,0.8,1.4,2.4,1.2,2.4c0.2,0.2,0.9,1.2,1.3,1.8
						c-0.9-1.1,1.4,2.4,1,2.3c0.7,0.8,2,3.1,3,4.6c-0.1-0.1-0.2-0.2-0.3-0.4c0.5,0.9,0.6,1.2,0.9,1.8c0.2,0,1.1,1.4,1.6,2
						c0.5,1.2-0.6-0.5-0.5-0.1c0.1-0.1,1.2,1.8,1.1,1.4c0.4,0.9,0.4,0.7,0.5,1.2c0.3,0,0.5,0.7,1,1.4c0.6,1.3,0,0.4,0.8,1.7
						C97.7,277.4,96.9,276.3,96.9,276.3z M127.7,277.1L127.7,277.1c-0.3,0.1-0.5,0.2-0.7,0.2C127.2,277.3,127.4,277.2,127.7,277.1z
						 M130.6,276.2c-0.4,0.1-0.8,0.2-1.3,0.4c-0.1,0,0-0.1,0.3-0.2C129.5,276.5,130.2,276.3,130.6,276.2z M124.2,277.2
						c0.5-0.2,0.6-0.2,0.7-0.2c-0.2,0.1-0.5,0.2-0.8,0.3c0,0,0,0,0,0C124.1,277.2,124.1,277.2,124.2,277.2z"/>
					<path class="st1" d="M123.4,277.6c-0.1,0-0.1,0-0.2,0.1C123.3,277.6,123.4,277.6,123.4,277.6c0.1,0,0.2-0.1,0.2-0.1
						C123.6,277.5,123.5,277.6,123.4,277.6z"/>
					<path class="st1" d="M54.2,290.9L54.2,290.9C54.2,291,54.2,290.9,54.2,290.9C54.2,290.9,54.2,290.9,54.2,290.9z"/>
					<polygon class="st1" points="119.5,297.4 119.6,297.4 119.7,297.2 					"/>
					<path class="st1" d="M70.5,287.3c0,0,0.1,0,0.2,0C70.8,287.3,70.7,287.3,70.5,287.3z"/>
					<path class="st1" d="M75.1,282.9l0.2-1C75.2,282.3,75.1,282.6,75.1,282.9z"/>
					<path class="st1" d="M76,277.4c0-0.1,0-0.1,0-0.1l0,0L76,277.4z"/>
					<path class="st1" d="M72,313c0,0.1,0,0.1,0,0.2C72,313.7,72,313.4,72,313z"/>
					<path class="st1" d="M51.6,300.5c0.3,0.1,0.5,0.2,0.8,0.2C52,300.5,51.6,300.4,51.6,300.5z"/>
					<path class="st1" d="M71.2,342.3L71.2,342.3c0,0.1,0,0.1,0,0.2L71.2,342.3z"/>
					<path class="st1" d="M53.5,301.1c-0.4-0.2-0.8-0.3-1.1-0.4C52.8,300.8,53.2,301,53.5,301.1z"/>
					<path class="st1" d="M79.8,253.6l0-0.3c0,0,0,0,0,0L79.8,253.6z"/>
					<path class="st1" d="M79.9,253.3l0-0.3C79.9,253.2,79.9,253.3,79.9,253.3z"/>
					<path class="st1" d="M80,252.4l-0.1,0.6C79.9,252.8,80,252.5,80,252.4z"/>
					<path class="st1" d="M78.6,260.9L78.6,260.9C78.7,260.9,78.6,260.9,78.6,260.9z"/>
					<path class="st1" d="M78.3,263.1c0.1-0.5,0.3-1.3,0.4-2l0-0.1C78.7,261.3,78.3,262.6,78.3,263.1z"/>
					<path class="st1" d="M76.2,272.2l0.3-1.8c-0.1,0.3-0.2,0.7-0.1-0.1C75.9,272.5,76.6,269.8,76.2,272.2z"/>
					<path class="st1" d="M75.2,277.9c0.1-1-0.1,0-0.1-0.1C75.1,278.5,75,278.6,75.2,277.9z"/>
					<path class="st1" d="M41.5,294l0.1-0.1C40.8,294.1,41.5,293.9,41.5,294z"/>
					<polygon class="st1" points="40.9,296.4 40.3,296 39.9,296 					"/>
					<polygon class="st1" points="45.1,298.9 44.7,298.8 46,299.2 					"/>
					<path class="st1" d="M69.7,351.4l0.2-0.6C69.9,350.1,69.7,350,69.7,351.4z"/>
					<path class="st1" d="M89,328.7c0.3-0.2,0.8-0.8,1.1-1.3C89.7,327.9,89.2,328.4,89,328.7z"/>
					<polygon class="st1" points="115.5,304.5 115.1,305 115.8,304.1 					"/>
				</g>
			</g>
		</g>
	</g>
</g>
<g>
	<polygon class="st1" points="268.2,116.4 260.8,159.6 296.8,174.8 254.5,183 250.1,219.9 230.1,182.4 192.7,189.5 221.8,157.4 
		203.9,125.5 238,142.3 	"/>
	<g>
		<g>
			<g>
				<g>
					<path class="st1" d="M268.4,116.7c0.1-0.2,0-0.2-0.5,0.2l-0.2,0.4L268.4,116.7z"/>
					<path class="st1" d="M265.3,119c-0.5,0.5-1,1.1-0.5,1c0.4-0.6,0.6-0.6,1-1.2c0.4-0.4,0.8-0.6,0.8-0.5c0.1-0.2,0.7-0.6,0.9-0.8
						c-0.7,0.4-1.4,1-2.1,1.8C265.1,119.2,265.3,119,265.3,119z"/>
					<path class="st1" d="M219.3,132.8l0.3,0.2C219.5,133,219.4,132.9,219.3,132.8z"/>
					<path class="st1" d="M212.6,141.6c-0.1-0.2-0.2-0.3-0.2-0.3C212.5,141.5,212.6,141.7,212.6,141.6z"/>
					<path class="st1" d="M215.3,147c-0.1-0.1-0.1-0.2-0.2-0.3C215.2,146.8,215.3,146.9,215.3,147z"/>
					<path class="st1" d="M219.3,132.8l-0.8-0.5C218.4,132.4,218.9,132.6,219.3,132.8z"/>
					<path class="st1" d="M259.6,124.4c0.1-0.1,0.3-0.3,0.4-0.4L259.6,124.4C259.6,124.4,259.6,124.4,259.6,124.4z"/>
					<path class="st1" d="M233.3,139.6l0.3,0.1c0.1,0,0.2,0,0.2,0L233.3,139.6z"/>
					<path class="st1" d="M242.7,137.8c-0.2,0.2-0.2,0.3-0.2,0.5c0.1-0.1,0.2-0.3,0.4-0.5C242.8,137.8,242.8,137.8,242.7,137.8z"/>
					<path class="st1" d="M257.2,125.7l0.2-0.2C257.4,125.5,257.2,125.6,257.2,125.7z"/>
					<path class="st1" d="M225.6,135.8C225.6,135.8,225.6,135.7,225.6,135.8C225.5,135.7,225.6,135.7,225.6,135.8z"/>
					<path class="st1" d="M265.2,129.9C265.2,129.9,265.2,129.9,265.2,129.9C265.2,129.9,265.2,129.8,265.2,129.9z"/>
					<path class="st1" d="M268.3,116.4l0,0.2c0,0,0,0,0.1,0.1L268.3,116.4z"/>
					<path class="st1" d="M220.6,156.7C220.6,156.6,220.6,156.6,220.6,156.7C220.4,156.4,220.5,156.5,220.6,156.7z"/>
					<path class="st1" d="M238.3,199c-0.4-1.1,1,1.6,0.3,0C238.7,199.2,237.7,197.7,238.3,199z"/>
					<path class="st1" d="M259.3,124.6l-0.4,0.3C259.1,124.8,259.2,124.7,259.3,124.6z"/>
					<path class="st1" d="M238.6,199L238.6,199l-0.1-0.2C238.6,198.9,238.6,199,238.6,199z"/>
					<path class="st1" d="M205.1,174.9c0.1,0,0.1-0.1,0.2-0.2C205.3,174.7,205.3,174.8,205.1,174.9z"/>
					<path class="st1" d="M218,161l-0.3,0.3C217.8,161.2,217.9,161.1,218,161z"/>
					<path class="st1" d="M198.7,182.3c-0.2,0.2-0.3,0.2-0.5,0.5c0,0,0.1,0,0.1-0.1C198.4,182.6,198.5,182.5,198.7,182.3z"/>
					<path class="st1" d="M192.9,189.9c-0.1,0-0.1,0-0.2,0c-0.2,0-0.3,0.1-0.5,0.1L192.9,189.9z"/>
					<path class="st1" d="M261.6,160.5c-0.2-0.1-0.3-0.2-0.4-0.3c0.1,0.1-0.4-0.1-0.6-0.2c-0.1,0-0.1,0,0,0
						C260.7,160.2,261,160.3,261.6,160.5z"/>
					<path class="st1" d="M259.5,124.3c0,0.1-0.1,0.1-0.2,0.2C259.4,124.5,259.5,124.4,259.5,124.3
						C259.6,124.3,259.6,124.3,259.5,124.3z"/>
					<path class="st1" d="M199.2,183.4l-1.1,1.2C198.4,184.2,198.8,183.8,199.2,183.4z"/>
					<path class="st1" d="M261.9,181l0.4-0.1C262.2,180.9,262,181,261.9,181z"/>
					<path class="st1" d="M194.9,188.1C194.8,188.2,194.8,188.2,194.9,188.1c-0.1,0.1-0.1,0.1-0.1,0.1c0,0-0.1,0-0.1,0.1
						c0,0,0,0,0,0l0.1-0.1L194.9,188.1C194.8,188.2,194.8,188.2,194.9,188.1z"/>
					<path class="st1" d="M261.2,160.2C261.2,160.2,261.2,160.2,261.2,160.2C261.2,160.2,261.2,160.2,261.2,160.2z"/>
					<path class="st1" d="M261.7,149.5c-0.3,1.5,0.1,0.7,0.1,1.1c-0.3,1.8-0.3,0.8-0.5,1.4c-0.1,1.1-0.1,2-0.3,2.9
						c0,0.1-0.1,0.2-0.1,0c0,0.6-0.2,1.3-0.3,2.2c-0.1,0.4-0.1,0.8-0.2,1.2c-0.1,0.5-0.1,1.1-0.2,1.5c0.2,0.1,0.5,0.2,0.7,0.2
						c0.1,0.1,0.2,0.1,0.2,0.2c-0.3-0.2-0.2-0.3-0.1-0.3c0.2,0.1,0.4,0.2,0.5,0.2c0.1,0.1,0.3,0.1,0.4,0.1c0.3,0.1,0.4,0.2,0.5,0.3
						c-0.4-0.2-0.4-0.1-0.6-0.2l0.7,0.2c0.5,0.4-0.9-0.3-1-0.2c1.3,0.5,2.9,1,3.9,1.5c0.1,0.2-2.4-0.9-1.1-0.2l-1.5-0.7
						c1.1,0.7-0.9-0.4,0,0.3c2,0.9,2.3,0.9,4.3,1.8c0.5,0.1-0.1-0.2,0.4-0.1c3,1.1,2.1,1.4,4.3,2c0.6,0.1,0.9,0,2.4,0.8l-0.6,0
						c2,0.9,1.2,0.2,3.2,1.2c-0.4-0.1-1.6-0.6-1.3-0.4c1.3,0.7,1,0.3,2,0.7l0.1,0.2c2.1,0.8,4.5,1.8,6.8,2.7c-0.1,0-0.6-0.1,0,0.2
						c3,1.2,6.3,2.7,9,4l0.3,0.1l0.1,0c0,0,0,0,0,0c0.1,0,0.1,0,0.2,0c0.1,0,0,0.1-0.1,0.1c0.1,0.1,0.2,0,0.4,0
						c0.3,0.1,0,0.1-0.2,0.1c0.1,0,0.2,0,0.2,0.1c0,0-0.2,0.1-0.4,0.2l-0.2,0.1c-0.1,0-0.1,0-0.3,0.1c-0.3,0.1-0.7,0.1-1,0.2
						c-1.4,0.3-2.7,0.5-3.7,0.7l0.4-0.1c-1.7,0.3-1.9,0.7-3.5,0.8l0.3-0.1c-3.7,0.7-7.8,1.6-10.6,1.9c-0.5,0.3-3.7,0.6-3.9,1
						c-2.1,0.3-1.5,0.1-4.5,0.6c-0.8,0.1-1.1,0.4-2.1,0.6l-0.1-0.1l-1.3,0.4l-0.7,0l-0.9,0.2c0.4-0.1,0.8-0.1,0.7,0
						c-1.4,0.3-3.5,0.6-3.6,0.5l-3.4,0.8c0.1-0.1,0.6-0.2,1.1-0.3c-1.8,0.5-0.4-0.1-2,0.4c0.2,0-0.1,0.1-0.1,0.2
						c-0.2,0-0.6,0.1-1.1,0.2c-0.1,0.6-0.2,1.3-0.3,2.1c-0.1,0.6-0.1,1.3-0.2,1.8l-0.1-0.3c-0.3,2.5-0.6,5.4-0.9,8.2
						c0.2-1,0.3-0.8,0.2,0.1l-0.2,0.3c0,0.6,0.2-0.9,0.2,0.3c-0.1,1.1-0.3,0.7-0.2,0.1l-0.1,1.3c-0.1,0.1,0-0.2-0.1-0.3
						c0,0.5-0.4,2.2-0.4,3l-0.1,0.1c-0.3,2.9-0.5,4.2-0.7,6.5c0.1,0.1,0,1,0,1.7c-0.3,1.7-0.6,3.6-0.8,5.7c-0.1,1.5,0.1,0.4,0.1,1.1
						c-0.1,0.1-0.4,2.2-0.3,1.1c-0.1,0.9-0.2,1.5-0.2,2.1c0,0.2,0,0.5-0.1,0.8c0,0-0.1-0.2-0.3-0.4c0,0.2,0.1,0.4,0.1,0.4
						c-0.2-0.3-0.3-0.7-0.2-0.7l0,0l-0.1-0.1l-0.2-0.3c-0.1-0.2-0.2-0.4-0.3-0.6c-0.2-0.4-0.4-0.8-0.7-1.3c-0.4-0.9-0.9-1.8-1.3-2.7
						c-0.8-1.8-1.7-3.4-2.4-4.6l0.1,0.1l-1.5-2.5c-0.6-1.2,0.5,0.7,0.1-0.2c-1.7-2.7-2.3-4.4-3.7-6.6c-0.6-2-3.4-6.3-4.4-8.8l0,0.2
						c-0.4-0.6-0.4-0.8-0.6-1.2c0,0.1,0.3,0.7,0,0.3c-0.6-1.1-1.3-2.3-1.9-3.5c-0.7-1.3-1.4-2.7-2.1-4c-3.5,0.6-7.1,1.2-10.6,1.8
						c-2.2,0.4-1.2,0.7-4,1l0.8-0.3c-4.4,1-9,1.7-13.3,2.7c0.3-0.1,0.2-0.1,0.7-0.2c-0.9,0.1-3.4,0.6-3.4,0.7
						c-0.7,0.1-0.2-0.1-0.6,0c-0.9,0.1-2.3,0.6-2.8,0.6c-0.1,0,0.3-0.1,0.4-0.1c-0.6,0.2-2.8,0.5-2.2,0.5c-0.7,0.1-0.6,0.1-0.7,0.1
						c-0.1,0-0.3,0.1-0.4,0.1c0.1-0.1,0.2-0.2,0.3-0.3c0,0,0-0.1,0.1-0.2c0.2-0.2,0.4-0.5,0.6-0.7c0.4-0.5,0.8-0.9,0.8-1.1
						c0.1,0.2,2.1-2,2.7-2.9c-0.2,0.3,0.7-0.6,0.5-0.3c0.8-0.9,1.5-1.7,1.3-1.6c1.7-1.4,2.8-3.4,3.9-4.1c2.3-2.7,4.4-5.2,6.5-7.6
						c0.1,0.2-2.3,2.6-2.1,2.7c2-2.3,3-3.7,5-5.9c0.5-0.6-0.2,0.4-0.4,0.6c2-2.3,3.9-4.3,5.6-6.4c0,0-0.2,0.2-0.3,0.5
						c0.4-0.4,0.9-0.9,0.7-0.9l-0.3,0.4c-0.7,0.5,1.2-1.8,1.2-1.9c-0.2,0.4,0.3,0,0.7-0.5c0.4-0.4,0.9-0.9,0.5-0.1
						c0.1-0.2,0.3-0.4,0.4-0.6c0.1-0.2,0.2-0.3,0.1-0.2c0,0,0.1-0.1,0.1-0.1c-0.3-0.6-0.4-0.8,0.1-0.1c-0.2-0.3-0.3-0.6-0.5-0.8
						c-0.1-0.1-0.2-0.3-0.2-0.4c-0.1-0.2-0.2-0.3-0.3-0.4c-0.2-0.2-0.3-0.4-0.7-1.2c0,0,0.2,0.3,0.4,0.4c-0.5-0.7-1-1.4-1.7-2.7
						c0.1,0.1,0-0.1,0.2,0.3c-1.2-2.2-2.3-3.6-3.6-6c0.6,0.6-0.4-0.8-0.3-1.1l-0.8-1.3l0.2,0.6c-0.6-1.1-1.3-2.1-1.8-3l0.5,0.8
						l-1.2-2.1l0.6,1.2c-0.7-1.1-0.1,0.2-0.9-1.3c0.2,0.3-0.6-1.1-0.9-1.8l0,0c-0.4-0.5-0.7-1.1-1.2-1.9c-0.1-0.2,0.3,0.1,0.2-0.1
						c-0.4-0.5-1.5-2.6-2-3.2c0.2,0.2,0.3,0.2,0.2,0.1l-0.4-0.4c-0.3-0.5-0.3-0.6-0.2-0.6c-0.9-1.6,0.1,0.6-0.9-1.3
						c0.1,0.1,0.1,0.1,0.3,0.4c-0.5-0.9-1-1.8-1.5-2.7c-0.2-0.4-0.5-0.8-0.7-1.3c-0.2-0.3-0.4-0.6-0.5-0.9c0.2-0.1,0.6,1,0.6,0.7
						c-0.2-0.3-0.4-0.6-0.5-0.9l0.7,0.3l0.4,0.2l0.7,0.3c1,0.5,2,0.9,2.9,1.4l-0.4-0.2c0.5-0.1,1.8,1,3.1,1.5
						c-0.3-0.1-0.5-0.1-0.4-0.1c1.7,0.9,3.5,1.6,6.1,2.8l-0.3-0.1c1,0.5,2.6,1.3,3.7,1.9c0.3,0.1,1,0.4,0.6,0.1
						c3.1,2,6.4,2.9,9.2,4.7c-0.4-0.2-0.9-0.4-0.6-0.2l2.5,1.2c-0.1-0.2-0.3-0.2-0.8-0.6c0.3,0.1,1.1,0.4,1.7,0.7
						c-1.2-0.5-0.1,0.2,0.4,0.5c-0.1-0.1,0.1,0,0.1-0.1c1.2,0.8,0.3-0.1,2,0.9l-0.1,0c0.5,0.2,1,0.4,1.6,0.7
						c0.1-0.1,0.3-0.2,0.4-0.4c0.2-0.1-0.1,0.2-0.4,0.5c-0.2-0.1-0.3-0.1-0.3-0.1l0.3,0.2c0.5-0.5,0.8-0.8,1.2-1.2
						c0.3-0.4,0.7-0.7,1.1-0.9c-0.4,0.3-0.8,0.8-1.2,1.1c0.9-0.6,1-0.7,1.7-1.2l-0.1,0.1l1.5-1.2l-0.4,0.3c0.8-1.2,2.1-1.9,3.4-3.3
						c-1.3,1.4-0.2,0.3-0.2,0.5c0.4-0.3,1-0.7,0.9-0.6c0.6-0.7,1.2-0.9,2-1.9c0.1,0,0.7-0.6,0.7-0.4c0.9-0.8-0.3,0.1-0.2,0
						c1.3-1.3,3.3-2.6,5.2-4.5c1.6-1.5,1.8-1.9,3.4-3.3c0.6-0.4-0.3,0.5-0.3,0.5c0.9-0.7,1.5-1.2,2.3-2c-0.1,0.2,0.1,0.1,0.3-0.1
						c0.6-0.6,0.3-0.5,1.2-1.2c-0.1,0.2-0.2,0.4-0.5,0.7c0.7-0.7,1.4-1.4,2.2-2.1c0.3-0.1-0.4,0.5-0.6,0.8c0.9-0.8,2.2-2,2.4-2.4
						l-0.6,0.5c0.3-0.3,0.2-0.1,0,0.2c-0.7,0.7-1.1,0.9-1.2,0.9l0.5-0.5c-0.8,0.3-2.2,2-3.4,2.9l0.3-0.6l-1,1.1
						c-0.3,0.2-0.5,0.2,0-0.3c-0.9,0.6-0.7,0.7-1.4,1.2c-0.1,0.1-0.1,0,0-0.1l-0.8,0.7c0.1-0.2-0.2,0,0.3-0.4
						c-1.5,1.1-2.2,2.1-2.8,2.4l0.1-0.1c-1.9,1.7-0.1,0.3-1.5,1.7l-1.2,0.6l-0.1,0.3c-0.2,0.2-0.6,0.5-0.6,0.4
						c-0.7,0.7,0.2-0.1-0.2,0.4c-1.1,0.7-2.7,2.4-3,2.4c-0.3,0.4,1-0.7,0,0.2c-0.5,0.1-1.2,1.1-2.2,1.7c0.2-0.3,1.1-1,0.1-0.3
						c-0.4,0.6-1.8,1.5-2.5,2.1c0.1,0.2-1.6,1.5-2.8,2.6c0,0-0.3,0.2-0.7,0.5c-0.4,0.3-0.9,0.7-1.4,1.1c-0.6-0.3-1.1-0.6-1.6-0.8
						l0.1,0c-0.4,0-1.8-0.7-2.8-1.2c0.1-0.1,0.3,0,0.9,0.2l-1-0.5c-0.3-0.1-0.6-0.2-1.2-0.5l0.3,0c-1.3-0.6-2.7-1.2-4.4-2.1
						c-0.2,0.1,1.2,1-0.6,0.2c0-0.1,0-0.2,0.4,0c-0.2-0.1-0.6-0.2-0.9-0.4l0.8,0.2c-0.7-0.4-0.4-0.1-1.1-0.4
						c0.1-0.1-0.4-0.3-0.3-0.3c0.2,0.1,0.5,0.3,0.8,0.4c-0.7-0.4-1.5-0.8-1.7-1c0,0.1-0.1,0.1-0.6-0.1c-1.3-0.6-0.4-0.3-1.1-0.7
						c-0.3-0.1-1.2-0.6-1.2-0.4c-0.4-0.2-0.4-0.3-0.6-0.4c-0.7-0.3-3.2-1.5-2.5-1l0.2,0.1c0,0-0.1,0-0.1,0c0,0,0,0,0,0l0,0
						c-2.3-1-4.6-2.4-6.8-3.4l0,0c-1.3-0.6-2.9-1.4-3.9-1.8c-0.4-0.2-0.9-0.5-0.7-0.5c-0.5-0.2-0.8-0.4-1.1-0.5
						c-0.4-0.2-0.6-0.3-1.6-0.9c0.7,0.3,0.6,0.2,0.5,0.2c0,0,0,0,0.1,0c0.1,0,0.3,0.1,0.7,0.3c-0.8-0.4-1.3-0.7-1.8-1
						c-0.6-0.3-1.2-0.6-1.9-0.9c0.1,0.1,0.2,0.3,0.3,0.4c-0.3-0.5-0.2-0.2,0.1,0.3c0.3,0.5,0.7,1.4,1,1.8l-0.6-1.3
						c0.3,0.5,0.5,0.9,0.8,1.4c0.2,0.4,0.4,0.7,0.6,1.1l-0.3-0.2c1.3,2.7,2.9,4.5,3.7,6.7c0.5,0.6-0.7-1.5-0.3-0.9
						c0.7,1.2,1.1,2.6,1.3,2.9c0.8,1.7,1.1,1.4,2,3.2c-0.1-0.2,0-0.5,0.7,0.7c0.7,1.2,0.6,1.6,0.1,0.9c-0.2-0.3-0.2-0.4-0.2-0.4
						c-0.2-0.4-0.5-0.9-0.3-0.4l0.1,0.1c0.3,0.6,1.2,2.3,0.9,1.9c0.6,0.9,0.3,0.3,0-0.3c0.8,1.6,1.3,2.4,2.2,4
						c-0.1-0.3-0.2-0.5,0-0.3c1.2,2.4,0.7,1,1.6,2.5c0.4,0.9-0.4-0.2,0.6,1.3c0.5,1,0,0.3-0.3-0.1c0.9,1.4,1.4,2.7,1.9,3.6l-0.5-0.7
						c0.3,0.4,0.5,0.8,0.7,1.2l-0.1-0.5c0.2,0.5,0.4,0.8,0.4,0.8c0.3,0.4,0-0.4,0.6,0.4c0.3,0.6,1.1,1.8,1,2.1c-1-1.9,0,0.3-0.9-1.3
						c0.2,0.3,0.4,0.7,0.6,1.1c0,0.1-0.1,0-0.1-0.2c0.1,0.3,0.2,0.5,0.3,0.6c0,0,0,0,0.1,0c0,0,0,0.1,0,0.1c-0.1,0.2-0.3,0.5-0.8,1
						c0.1-0.3-0.5,0.3-0.7,0.5c0.6-0.6,0.4-0.2-0.1,0.4c-1,1-1,1.1-1.4,1.7l0.6-0.6c-0.1,0.3-0.6,0.8-1.2,1.5
						c-0.1,0,0.5-0.7,0.3-0.4c-0.6,0.9-1.7,1.7-2.6,2.8c-0.5,0.5-0.2-0.1-0.6,0.4c-1,1.3-1.3,1.2-2.4,2.6c0.4-0.3,0.5-0.4-0.3,0.6
						l1.8-2.2l-1.1,1.5c0.6-0.6,1.2-1.4,1.5-1.8c-0.5,0.7-0.5,0.6-0.1,0.4c-0.9,0.8-1.5,1.8-2.5,2.7l-0.2-0.2
						c-1.5,1.4-2.3,2.8-4.2,4.7l0.6-0.6c-0.2,0.3-1.1,1.2-1.6,1.9c0-0.1-0.4,0.2-0.7,0.5c0.1,0-1.3,1.4-1.3,1.7l-0.9,0.8
						c-1.5,1.6-1.4,2-2.8,3.5c0.3-0.5-0.3,0.1,0.5-1c-0.5,0.5-0.9,1-0.8,1c-0.3,0.3-1.2,1.5-1.7,1.9c-0.2,0.2-0.1,0.4-0.7,0.9
						c-0.1,0,0,0,0,0c0,0-0.8,0.9-0.2,0.5c-1.5,1.3-3.2,3.5-5.5,5.8c0.3,0,0.6-0.1,0.8-0.1c1.7-0.3,3.8-0.8,5.4-1.1
						c-0.1,0,0,0-0.3,0.1c1.9-0.3,1.1-0.5,3.2-0.8c1.1,0-1.1,0.3-0.4,0.2c0.4,0.3,2.5-0.5,4-0.6l-0.3,0.1c1.1-0.1,2.6-0.6,4.4-0.9
						c0,0-0.1,0,0,0.1c1.2-0.4,3.5-0.9,5.1-1.2c-0.5,0.2-0.8,0.2-0.4,0.3c0.8-0.2-0.3-0.2,1.3-0.5c0.5,0,1.6-0.2,1.8-0.1l-1.4,0.3
						c0.8,0,1.9-0.4,2.6-0.5l-0.1,0.1c2.2-0.4,2.2-0.6,4.5-1.1l-0.3,0c1.3-0.4,1.1-0.1,2.4-0.5l0.4,0.1c0.8-0.2,2.9-0.8,4.5-1.1
						c-0.8,0.3-2.6,0.7-3.7,1c0.8-0.2,2.9-0.6,3.3-0.7c-0.3,0.1-0.8,0.2-1.1,0.2c0.4-0.1,0.8-0.2,1.2-0.4c0.4-0.1,1-0.2,1.3-0.3
						c0.1,0.2,0.2,0.3,0.3,0.5c0.1,0.2,0.2,0.4,0.3,0.6c-0.5-0.1,2,4,2.3,5.2c1.5,2.6,2.8,5.3,4.4,8.4c-0.3-1.2,0.5,0.9,0.7,0.6
						c0.4,0.7,0.5,1,0.6,1.1l1,2.3c0.2,0.6-0.4-0.7-0.5-0.6c0.8,1.6,0.2,0.7,0.7,1.8c0-0.3,0.4,0.5,0.9,1.4l-0.6-1.3
						c1.3,2.1,0.8,2,2.1,4.2l-0.5-0.7c0.7,1.1,2.3,4.2,3.1,5.2c0.1,0.2,0.1,0.5-0.1,0c0.7,1.4,1.6,2.9,2.4,4.3
						c0.4,0.7,0.8,1.4,1.2,2.1c0.5,1,1.1,2,1.5,2.9l-0.2-0.2c0.3,0.5,0.5,0.7,0.7,1.1c0-0.5,0.1-0.9,0.2-1.4c0,0.1,0,0.6,0.1,0.1
						c0-0.3,0.1-1,0.1-1.8c0-0.4,0.1-0.8,0.1-1.1c0-0.2,0.1-0.4,0.1-0.6l0,0.7c0.5-3,0.4-4.7,0.6-7.2c0.2,0,0.6-2.3,0.8-3.5l0,0
						c0.4-3.5,0.5-6,0.8-9.2c0.5-2,0.9-6.8,1.4-10c-0.1,0.5-0.2-0.1-0.1-0.7c0.1-0.8,0.1-2.1,0.3-2l0,0.3c0.1-0.2,0.2-0.5,0.2-0.9
						c0-0.2,0.1-0.5,0.1-0.7c0.2,0,0.5-0.1,0.7-0.1l0.1-0.3c3.2-0.2,8.2-1.8,10-1.8c0.7-0.2,1.7-0.4,2.4-0.6l0,0.1
						c2.1-0.4,3.2-0.6,5.8-1.1l-0.5,0.2c1.5-0.3,1.8-0.8,3.1-1l0.4,0.1c2.6-0.5,5.2-0.8,7.7-1.5c0,0-0.1,0.1-0.5,0.2
						c1.2-0.2,4.7-0.8,4.2-1c0.1,0.2,2.6-0.5,4-0.9l-0.2,0.2c0.6-0.2,0.9-0.3,1.2-0.4c0.2-0.1,0.3-0.1,0.7-0.2
						c0.3-0.1,0.8-0.2,1.3-0.3c0.6-0.1,0.7,0-0.1,0.1c1.5-0.2,1.4-0.3,2.2-0.5c-0.3-0.1-0.6-0.3-1.1-0.5l1,0.3
						c-1.8-0.8-1.8-0.7-2.9-1.1c-0.1-0.1-0.3-0.1-0.4-0.2c-0.1-0.1-0.2-0.1-0.4-0.2c-0.3-0.1-0.5-0.2-0.8-0.4
						c-0.5-0.2-0.9-0.5-1-0.6c-0.2,0-0.9-0.2-1.6-0.5c-0.1-0.1,0.2,0,0.3,0c-2-1-3.2-1.2-4.5-1.9c0-0.1-0.1-0.1-0.2-0.2
						c1.7,0.7,3,1.3,2.9,1.2c0.1-0.1-1.3-0.7-0.1-0.4c-1.1-0.4-3-0.9-4.3-1.5c-0.1,0-0.1-0.1-0.2-0.1l0.1,0
						c-0.3-0.1-0.6-0.2-0.8-0.3c-0.4-0.2-0.7-0.3-1.1-0.5c-0.1-0.2-1.5-0.7-2.2-1c0,0.2-0.9-0.2-0.1,0.2c-0.1-0.1,0.1,0,0.6,0.2
						c0.1,0,0.2,0.1,0.3,0.1c0,0,0,0-0.1,0c0.4,0.2,1,0.4,1.7,0.7c-0.6-0.2-1.1-0.3-1.8-0.7c-0.4-0.1-0.8-0.1-1-0.2
						c-0.8-0.6-2.5-1.4-2.7-1.6c-2.1-0.8-4.8-2-6.2-2.3c-0.6-0.2-0.6-0.4-0.8-0.5c0.3,0.1,0.7,0.3,0.9,0.3c-1.2-0.4-3.4-1.4-3.8-1.4
						c-1.4-0.7,0.9,0.2-1.1-0.6l0.3,0.1c-1-0.5-2-0.9-2.9-1.3c-0.5-0.2-0.9-0.3-1.4-0.5l-0.7-0.2l-0.5-0.2l0-0.4
						c0-0.2,0.1-0.4,0.1-0.6c0.1-0.4,0.1-0.9,0.2-1.3c0.1-0.9,0.3-1.8,0.6-2.9c-0.1,0.3-0.1,0.5-0.2,0.5c1.1-5.3,1.7-11,2.9-16.2
						c0.3-1.5,0.2-1.7,0.3-2.6l0.2-0.3l0.1-1.6c0.3-2.2,1-3.8,1.3-6.6l-0.2,0.3c0.2-1,0.5-3.2,0.6-3c0-0.1,0-0.3,0.1-0.7l0.1,0
						l0.3-2.5c0.4-1.9,0.3,0.4,0.8-2.4c0.1-1,0.3-3,0.2-2.6c-0.1,0.4-0.2,1.1-0.3,1.1l0.1-1c-0.2-0.2-0.3-1-0.9,1.3l-0.1,1.6
						l-0.2,0.5l0.2-1.4c-0.2,0.8-0.2,1.3-0.3,1.8c-0.1,0.1-0.2,0.3-0.2,0.7l-0.1,1.6c-0.1,0.2-0.1-0.7-0.3,0.3
						c0,0.8,0.3-0.7,0.2,0.6c-0.2,0.8-0.3,0.5-0.4,1.4c-0.1,0.1-0.1-0.1,0-0.4c-0.1,0.8-0.3,2.2-0.3,2.6c-0.3,0.8-0.4,2.7-0.6,2.6
						c0,0.3-0.1,1.5-0.2,2.2c0-1.4-0.5,2.8-0.7,2.4c0.1,1-0.5,3.7-0.7,5.5c0-0.1,0-0.3,0-0.5c-0.2,1-0.3,1.3-0.5,1.9
						c0.2,0.2-0.1,1.7-0.1,2.6c-0.4,1.2-0.1-0.8-0.3-0.4c0.2,0-0.2,2.2,0,1.8c-0.3,0.9-0.2,0.8-0.4,1.3c0.2,0.2-0.1,0.9-0.1,1.7
						c-0.4,1.3-0.3,0.3-0.5,1.8C261.6,150.9,261.7,149.5,261.7,149.5z M284.7,170.1L284.7,170.1c-0.3-0.1-0.5-0.2-0.7-0.3
						C284.1,169.8,284.3,169.9,284.7,170.1z M287.4,171.2c-0.3-0.1-0.8-0.3-1.2-0.5c-0.1-0.1,0-0.1,0.3,0
						C286.4,170.7,287,171,287.4,171.2z M281.9,167.8c0.5,0.2,0.6,0.3,0.6,0.3c-0.2-0.1-0.5-0.2-0.8-0.3c0,0,0,0-0.1,0
						C281.8,167.8,281.8,167.8,281.9,167.8z"/>
					<path class="st1" d="M281,167.7c-0.1,0-0.1,0-0.2-0.1C280.9,167.7,281,167.7,281,167.7c0.1,0.1,0.2,0.1,0.2,0.1
						C281.2,167.7,281.1,167.7,281,167.7z"/>
					<path class="st1" d="M219.6,133L219.6,133C219.6,133,219.7,133.1,219.6,133C219.7,133.1,219.7,133.1,219.6,133z"/>
					<polygon class="st1" points="265.2,180.3 265.3,180.3 265.5,180.2 					"/>
					<path class="st1" d="M234.4,140.9c0,0,0.1,0.1,0.2,0.1C234.6,141,234.5,140.9,234.4,140.9z"/>
					<path class="st1" d="M240.8,140.4l0.8-0.6C241.2,140,241,140.2,240.8,140.4z"/>
					<path class="st1" d="M245,136.8c0-0.1,0-0.1,0-0.1l0,0L245,136.8z"/>
					<path class="st1" d="M218.9,161.4c0,0.1-0.1,0.1-0.1,0.2C218.5,161.9,218.7,161.7,218.9,161.4z"/>
					<path class="st1" d="M211.5,138.6c0.2,0.2,0.3,0.5,0.5,0.7C211.7,138.9,211.6,138.6,211.5,138.6z"/>
					<path class="st1" d="M199.3,183.2L199.3,183.2c0,0-0.1,0.1-0.1,0.1L199.3,183.2z"/>
					<path class="st1" d="M212.5,140.4c-0.2-0.4-0.4-0.8-0.6-1.1C212.1,139.6,212.3,140,212.5,140.4z"/>
					<path class="st1" d="M263.3,121.2l0.2-0.2c0,0,0,0,0,0L263.3,121.2z"/>
					<path class="st1" d="M263.6,121l0.2-0.2C263.7,120.9,263.6,120.9,263.6,121z"/>
					<path class="st1" d="M264.2,120.3l-0.5,0.4C263.9,120.6,264.1,120.5,264.2,120.3z"/>
					<path class="st1" d="M257.7,125.9L257.7,125.9C257.7,126,257.7,125.9,257.7,125.9z"/>
					<path class="st1" d="M256,127.4c0.4-0.3,1.1-0.8,1.6-1.3l0-0.1C257.5,126.3,256.4,127,256,127.4z"/>
					<path class="st1" d="M248.5,133l1.4-1.2c-0.3,0.2-0.7,0.4,0-0.2C248.1,133,250.4,131.4,248.5,133z"/>
					<path class="st1" d="M244.1,136.7c0.7-0.7-0.1-0.1,0-0.1C243.6,137,243.5,137.2,244.1,136.7z"/>
					<path class="st1" d="M207.9,127.2l0.1-0.1C207.4,126.8,208.1,127.1,207.9,127.2z"/>
					<polygon class="st1" points="206,128.6 205.7,127.9 205.4,127.6 					"/>
					<polygon class="st1" points="207.5,133.2 207.4,132.9 208,134 					"/>
					<path class="st1" d="M192.3,189.2l0.5-0.4C193.3,188.3,193.2,188.1,192.3,189.2z"/>
					<path class="st1" d="M221.7,184.4c0.3,0,1.2-0.1,1.7-0.3C222.8,184.2,222.1,184.3,221.7,184.4z"/>
					<polygon class="st1" points="257.6,183.1 257,183.2 258.1,183 					"/>
				</g>
			</g>
		</g>
	</g>
</g>
<g>
	<path class="st1" d="M137,83.2c0,0-67.2,20.6-61.7,88s74.2,71.2,90.9,68.9c0,0-14.9-11.3-30.3-28.4c-31.9-35.5-32.7-89.7-1.3-125.8
		C135.4,85,136.2,84.1,137,83.2z"/>
	<g>
		<g>
			<g>
				<g>
					<path class="st1" d="M137.2,83.4c0.1-0.2,0-0.2-0.4,0.3l-0.2,0.4L137.2,83.4z"/>
					<path class="st1" d="M134.3,86.3c-0.4,0.6-0.8,1.3-0.4,1.1c0.3-0.7,0.5-0.7,0.9-1.5c0.4-0.5,0.8-0.8,0.7-0.7
						c0.1-0.2,0.7-0.7,0.8-1c-0.6,0.5-1.3,1.3-1.9,2.2C134.1,86.6,134.2,86.4,134.3,86.3z"/>
					<path class="st1" d="M111.5,141.4l0-0.4C111.5,141.1,111.5,141.2,111.5,141.4z"/>
					<path class="st1" d="M116.2,178.4c-0.1-0.3-0.2-0.4-0.2-0.4C116.1,178.3,116.2,178.5,116.2,178.4z"/>
					<path class="st1" d="M118.3,184.5c0-0.1-0.1-0.2-0.1-0.4C118.2,184.3,118.2,184.4,118.3,184.5z"/>
					<path class="st1" d="M111.5,141.4l-0.1,1C111.5,142.4,111.5,141.9,111.5,141.4z"/>
					<path class="st1" d="M129.4,93.1c0.1-0.2,0.2-0.3,0.3-0.5C129.6,92.8,129.5,92.9,129.4,93.1C129.4,93.1,129.4,93.1,129.4,93.1z
						"/>
					<path class="st1" d="M113.9,125l0.1-0.3c0-0.1,0-0.2,0-0.3L113.9,125z"/>
					<path class="st1" d="M117.8,112.8c-0.1,0.3,0,0.4,0,0.5c0-0.2,0.1-0.4,0.1-0.6C117.9,112.7,117.8,112.8,117.8,112.8z"/>
					<path class="st1" d="M127.4,95.1l0.2-0.3C127.5,94.9,127.4,95,127.4,95.1z"/>
					<path class="st1" d="M112.2,133.9c0,0,0,0.1-0.1,0.1C112.1,134,112.1,134,112.2,133.9z"/>
					<path class="st1" d="M123.2,88.4C123.2,88.4,123.2,88.4,123.2,88.4C123.3,88.4,123.3,88.4,123.2,88.4z"/>
					<path class="st1" d="M137,83.2l-0.2,0.1c0,0,0,0.1,0,0.1L137,83.2z"/>
					<path class="st1" d="M123.3,195.2C123.3,195.2,123.3,195.2,123.3,195.2C123.1,194.9,123.2,195,123.3,195.2z"/>
					<path class="st1" d="M121.8,233.3c1.1,0.5-1.9-0.5-0.2,0.2C121.5,233.4,123.2,233.9,121.8,233.3z"/>
					<path class="st1" d="M129.2,93.4l-0.3,0.4C129.1,93.6,129.2,93.5,129.2,93.4z"/>
					<path class="st1" d="M121.6,233.5L121.6,233.5l0.2,0.1C121.7,233.6,121.7,233.6,121.6,233.5z"/>
					<path class="st1" d="M139.8,216.7c0-0.1-0.1-0.1-0.1-0.2C139.6,216.5,139.6,216.5,139.8,216.7z"/>
					<path class="st1" d="M127.1,201l0.3,0.4C127.3,201.2,127.2,201.1,127.1,201z"/>
					<path class="st1" d="M147.2,224c0.2,0.2,0.2,0.3,0.5,0.5c0,0,0-0.1-0.1-0.1C147.6,224.3,147.5,224.2,147.2,224z"/>
					<path class="st1" d="M155.2,231.4c0,0-0.1-0.1-0.1-0.2c-0.1-0.1-0.2-0.2-0.3-0.2L155.2,231.4z"/>
					<path class="st1" d="M96.6,108.1c0.2-0.1,0.3-0.2,0.4-0.3C96.9,107.9,97.9,106.7,96.6,108.1z"/>
					<path class="st1" d="M129.4,93.1c0,0.1,0,0.2-0.1,0.3C129.3,93.3,129.4,93.2,129.4,93.1C129.4,93,129.4,93,129.4,93.1z"/>
					<path class="st1" d="M148.3,223.5l1.2,1.2C149.2,224.4,148.8,223.9,148.3,223.5z"/>
					<path class="st1" d="M76,180.7l-0.1-0.4C76,180.5,76,180.6,76,180.7z"/>
					<path class="st1" d="M153.3,228.2c0.2,0.2,0.4,0.5,0.7,0.7c0.1,0,0.1,0.1,0.2,0.1L153.3,228.2z"/>
					<path class="st1" d="M97.1,107.8L97.1,107.8L97.1,107.8z"/>
					<path class="st1" d="M105.3,99.9c-1.3,1-0.5,0.6-0.7,0.9c-1.5,1.3-0.8,0.5-1.4,0.8c-0.9,0.9-1.5,1.6-2.2,2.2
						c-0.1,0-0.2,0.1-0.1,0c-0.9,1-2.8,2.7-3.7,3.9c-0.1,0.1-0.1,0.1-0.2,0.1c0.2-0.1,0.3-0.1,0.3,0c-0.5,0.5-0.9,1.1-1.1,1.2
						c0.3-0.3,0.3-0.4,0.4-0.6l-0.5,0.6c-0.6,0.4,0.7-0.8,0.6-0.9c-1,1.2-2.1,2.5-2.9,3.4c-0.3,0.1,1.7-2.1,0.6-1
						c0.4-0.4,0.8-0.9,1.3-1.3c-1.1,0.8,0.8-0.8-0.3-0.1c-1.7,1.7-1.7,2-3.3,3.8c-0.3,0.5,0.2,0-0.1,0.4c-1.9,2.8-2,1.8-3.3,3.9
						c-0.3,0.6-0.2,0.9-1.3,2.3l0.2-0.6c-1.3,1.9-0.5,1.2-1.9,3.2c0.2-0.4,0.9-1.6,0.7-1.3c-0.9,1.3-0.5,1-1.1,2l-0.3,0.1
						c-0.3,0.5-0.6,1.1-0.9,1.6c-0.3,0.6-0.6,1.2-0.9,1.7c-0.6,1.2-1.2,2.4-1.7,3.6c0-0.2,0.2-0.6-0.1,0c-0.6,1.6-1.4,3.2-2,4.9
						c-0.3,0.8-0.7,1.7-1,2.5c-0.3,0.8-0.6,1.6-0.8,2.4l-0.2,1.2c-0.1,0.3-0.2,0.5-0.2,0.2c-0.4,1.2,0.1,0.1,0,0.7
						c-0.2,0.7-0.4,0.9-0.3,0.4c-0.4,2.2-1.2,6.3-1.6,8.7l0-0.5c-0.3,1.8-0.1,2.1-0.3,3.8l0-0.3c-0.1,1-0.2,2-0.3,3.1
						c-0.1,1-0.2,2.1-0.2,3.1c0,2-0.1,3.9-0.2,5.4c0.2,0.6,0.1,4,0.4,4.2c0,1.2,0,1.6,0,2.1c0,0.5,0.1,1.2,0.2,2.8
						c0.1,0.9,0.3,1.3,0.5,2.3l-0.1,0c0.1,0.5,0.3,0.9,0.4,1.4l0,0.8l0.2,1c-0.1-0.4-0.1-0.8,0-0.8c0.2,0.8,0.3,1.7,0.4,2.5
						c0.1,0.8,0.1,1.3,0.1,1.4l1,3.6c-0.1-0.1-0.3-0.7-0.4-1.1c0.6,1.9-0.1,0.4,0.5,2.1c0-0.2,0.1,0.1,0.2,0.1
						c0.1,0.9,0.8,2.8,1.3,4.3l-0.2-0.2c0.2,0.7,0.4,1.3,0.7,2c0.3,0.7,0.6,1.3,0.9,2c0.3,0.7,0.6,1.4,0.9,2.1
						c0.3,0.7,0.7,1.4,1,2.1c-0.5-1-0.2-0.9,0.2-0.1l0,0.4c0.4,0.5-0.4-0.9,0.3,0.1c0.5,1,0.2,0.8-0.2,0.2l0.7,1.2
						c0,0.1-0.2-0.2-0.3-0.2c0.2,0.2,0.4,0.8,0.7,1.4c0.3,0.6,0.6,1.2,0.9,1.5l0,0.1c1.5,2.7,2.5,3.8,3.9,5.8c0.1,0,0.7,0.8,1.3,1.3
						c0.6,0.7,1.2,1.5,1.8,2.3c0.6,0.8,1.4,1.6,2.1,2.4c1.1,1.1,0.4,0.2,0.9,0.7c0,0.2,1.6,1.7,0.7,1c2,1.8,2.5,2.3,5.2,4.4
						c-0.3-0.3-0.6-0.5-0.4-0.4c0.5,0.4,1,0.9,0.9,0.9l-0.1-0.1c3.1,2.1,7,5.4,9.8,6.5l-0.2-0.1c0.9,0.5,1.9,0.9,2.8,1.3
						c1.3,0.6-0.8-0.3,0.1,0.2c1.6,0.6,2.8,1.2,3.9,1.7c1.2,0.5,2.2,1,3.6,1.4c1.9,1.2,7.2,2.5,10,3.4l-0.1-0.1
						c0.7,0.1,0.9,0.3,1.4,0.4c-0.1-0.1-0.8-0.3-0.3-0.2c6.2,1.5,12.8,2.8,19.3,3.3c2.4,0.2,1.4-0.4,4.4,0l-0.9,0.1
						c0.9,0,1.9,0,2.8,0c0.9,0,1.9,0,2.8-0.1c0.9,0,1.9-0.1,2.8-0.1l0.7-0.1c0.3,0,0.8-0.1,1.2-0.1c0.8-0.1,1.6-0.2,2.4-0.3
						c-1.3-1-2.6-2-3.8-2.9c0.2,0.1,0.3,0.1,0.6,0.4c-0.7-0.7-2.8-2.3-2.9-2.2c-0.6-0.5-0.1-0.2-0.4-0.5c-0.7-0.7-2-1.5-2.3-1.9
						c-0.1-0.1,0.2,0.2,0.4,0.3c-0.5-0.4-2.3-2-1.9-1.5c-1.3-1.2-2.6-2.2-3.5-3.2c-0.8-0.5-2.2-2.1-2.5-2.1c0.2-0.1-2.1-2.2-3-2.9
						c0.3,0.2-0.6-0.7-0.3-0.5c-0.9-0.9-1.8-1.7-1.7-1.4c-1.5-1.8-3.5-3.2-4.1-4.3c-2.7-2.6-5.1-5.1-7.4-7.6c0.1,0,0.7,0.7,1.3,1.4
						c0.6,0.7,1.2,1.3,1.2,1.2c-1.1-1.1-2-2.1-2.8-3c-0.4-0.5-0.8-0.9-1.3-1.4c-0.4-0.5-0.9-1.1-1.3-1.7c-0.5-0.7,0.4,0.3,0.6,0.5
						c-1-1.2-2-2.4-2.8-3.7c-0.9-1.2-1.7-2.4-2.5-3.6c0,0,0.2,0.2,0.4,0.5c-0.3-0.5-0.7-1.1-0.7-1l0.3,0.4c0.4,0.8-1.5-1.7-1.6-1.8
						c0.7,0.7-1.4-2.5-0.3-1.3c-0.2-0.3-0.5-0.7-0.5-0.6c-0.3-0.5-0.3-0.7,0-0.2c-1-1.7-0.8-1-1.7-2.6c0,0,0.2,0.3,0.4,0.4
						c-0.5-0.8-1-1.5-1.7-2.9c0.1,0.1,0-0.1,0.2,0.3c-0.6-1.2-1.1-2.2-1.7-3.2c-0.3-0.5-0.5-1-0.8-1.6c-0.3-0.6-0.5-1.2-0.7-1.9
						c0.5,0.7-0.3-0.9-0.2-1.2c-0.2-0.5-0.4-0.9-0.6-1.4c0,0.2,0.1,0.4,0.1,0.6c-0.5-1.3-1-2.4-1.3-3.5l0.4,0.9
						c-0.3-0.8-0.6-1.6-0.9-2.4c0.1,0.5,0.2,0.9,0.4,1.4c-0.5-1.3-0.2,0.2-0.7-1.5c0.1,0.3-0.4-1.3-0.5-2l0,0
						c-0.3-0.6-0.5-1.3-0.7-2.3c0-0.3,0.3,0.2,0.2,0c-0.3-0.6-0.9-3.1-1.2-3.9c0.1,0.3,0.2,0.3,0.2,0.2l-0.2-0.5
						c-0.1-0.6-0.1-0.7,0-0.6c-0.4-1.9-0.1,0.6-0.5-1.6c0,0.2,0,0.1,0.1,0.4c-0.2-1.1-0.4-2.2-0.6-3.2c-0.2-1.1-0.4-2.1-0.5-3.1
						c0.1-0.6,0.3,1.8,0.3,1.1c-0.2-1.5-0.4-3-0.7-4.6c-0.2-1.5-0.4-3.1-0.4-4.5l0,0.5c-0.3-0.4,0.1-2.2-0.1-3.6
						c0,0.4,0.2,0.5,0.1,0.4c0-1,0-2,0-3.2c0-0.6,0-1.2,0-1.8c0-0.7,0-1.3,0.1-2.1l0,0.4c0.1-0.6,0.1-1.4,0.2-2.1
						c0.1-0.8,0.2-1.6,0.2-2.2c0-0.4,0.1-1.1-0.1-0.7c0.3-1.9,0.6-3.8,0.8-5.6c0.3-1.8,0.5-3.5,1-5.2c-0.1,0.4-0.2,1-0.1,0.7
						l0.6-2.9c-0.2,0.2-0.2,0.4-0.4,0.9c0-0.4,0.2-1.2,0.3-1.9c-0.2,1.3,0.2,0,0.4-0.5c-0.1,0.1,0-0.1-0.1-0.1
						c0.6-1.4-0.2-0.3,0.6-2.3l0,0.1c0.2-0.8,0.3-1.5,0.6-2.3c0.2-0.3-0.2,0.8-0.1,0.9c0.4-1.1,0.5-2.3,1-3.3
						c-0.1,0.5-0.3,1.2-0.5,1.7c0.5-1.1,0.5-1.2,0.8-2l0,0.1c0.2-0.6,0.5-1.2,0.8-1.9l-0.2,0.5c0.2-1.5,1-2.9,1.6-4.8
						c-0.6,1.9,0,0.3,0.1,0.5c0.2-0.5,0.6-1.2,0.6-0.9c0.3-0.9,0.7-1.4,1.1-2.7c0.1,0,0.5-0.9,0.5-0.7c0.5-1.1-0.2,0.2-0.2,0.1
						c0.7-1.8,2.2-3.9,3.4-6.4c1.2-2.1,1.2-2.5,2.4-4.4c0.5-0.6-0.2,0.6-0.2,0.6c0.7-0.9,1.2-1.7,1.8-2.7c-0.1,0.2,0.1,0,0.3-0.2
						c0.5-0.7,0.2-0.6,1-1.5c-0.1,0.2-0.2,0.5-0.4,0.8c0.6-0.9,1.2-1.8,1.8-2.7c0.2-0.2-0.3,0.6-0.5,1c0.7-1,1.9-2.6,2.1-2.9
						l-0.5,0.6c0.3-0.4,0.2-0.1,0,0.2c-0.6,0.9-1,1.2-1.1,1.2c0.2-0.2,0.3-0.4,0.5-0.6c-0.7,0.5-1.9,2.5-2.8,3.8
						c0.1-0.2,0.1-0.4,0.2-0.7c-0.3,0.5-0.5,1-0.8,1.4c-0.2,0.3-0.5,0.4-0.1-0.3c-0.7,0.9-0.5,0.9-1.2,1.6c-0.1,0.1-0.1,0,0-0.1
						l-0.6,1c0.1-0.2-0.2,0.1,0.2-0.5c-1.2,1.6-1.6,2.8-2.1,3.4l0.1-0.1c-1.4,2.4,0,0.3-0.9,2.2l-1,1l0,0.3
						c-0.1,0.2-0.4,0.7-0.4,0.6c-0.4,1,0.1-0.1-0.1,0.5c-0.8,1.1-1.6,3.4-2,3.6c-0.1,0.5,0.7-1.1,0.1,0.2c-0.4,0.3-0.7,1.6-1.3,2.7
						c0-0.4,0.6-1.5,0-0.4c-0.1,0.8-1.1,2.2-1.4,3.2c0.2,0.1-0.8,2.2-1.3,3.9c0-0.1-1.2,3.1-1.7,4.7l0-0.1c0.1,0.4-0.4,2-0.7,3.2
						c-0.1-0.1-0.1-0.3,0-1c-0.1,0.4-0.2,0.8-0.3,1.1c0,0.3-0.1,0.6-0.2,1.4l-0.1-0.3c-0.2,0.8-0.3,1.5-0.5,2.4
						c-0.1,0.8-0.3,1.7-0.5,2.7c0.1,0.1,0.6-1.5,0.3,0.6c-0.1,0.1-0.2,0.1-0.1-0.4c0,0.2-0.1,0.6-0.2,1l0-0.9
						c-0.2,0.9,0,0.5-0.1,1.2c-0.1,0-0.1,0.5-0.2,0.4c0-0.2,0.1-0.6,0.1-0.9c-0.2,0.8-0.3,1.8-0.5,2.1c0.1-0.1,0.1,0,0.1,0.6
						c-0.2,1.5-0.2,0.5-0.4,1.4c0,0.4-0.1,1.4,0,1.4c0,0.5-0.1,0.5-0.2,0.7c0,0.4-0.1,1.3-0.2,2.1c-0.1,0.7,0,1.2,0.1,0.8l0-0.2
						c0,0,0,0.1,0,0.1c0,0,0,0,0,0l0,0c0,1.3-0.1,2.7-0.2,4.1c0,1.4-0.1,2.7-0.1,4l0,0c0.1,1.6,0.1,3.5,0.3,4.6c0,0.5,0,1.1-0.1,0.9
						c0.1,1.2,0.2,1.3,0.3,3c-0.2-1.2,0,0.4-0.2-1.2c0.1,1.6,0.1,1.9,0.4,3.6c-0.2-0.5,0,1.2,0.1,1.9l0-1.1c0.1,0.8,0.2,1.5,0.3,2.3
						l-0.2-0.4c0.3,3.2,1.4,5.6,1.6,8c0.2,0.4,0.1,0,0-0.5c-0.1-0.4-0.1-0.9,0-0.5c0.3,1.4,0.5,3,0.6,3.4c0.4,2,0.8,1.7,1.3,3.8
						c0-0.3,0.1-0.6,0.6,0.9c0.4,1.4,0.4,1.8,0,0.9c-0.1-0.3-0.2-0.5-0.1-0.5c-0.2-0.4-0.4-1-0.3-0.5l0.1,0.2
						c0.1,0.7,0.9,2.6,0.6,2.2c0.4,1,0.3,0.4,0-0.4c0.5,1.8,1,2.8,1.7,4.6c-0.1-0.3-0.1-0.6,0-0.3c1,2.7,0.5,1.1,1.4,2.9
						c0.4,1-0.4-0.3,0.5,1.5c0.4,1.1,0,0.3-0.3-0.1c0.4,0.8,0.7,1.5,1,2.2c0.3,0.7,0.6,1.3,0.8,1.7l-0.5-0.8
						c0.3,0.5,0.5,0.9,0.7,1.3l-0.1-0.5c0.2,0.5,0.4,0.9,0.4,0.9c0.3,0.5,0-0.5,0.6,0.5c0.3,0.7,1.1,1.9,1.1,2.2c-1.1-2,0,0.3-1-1.4
						c0.2,0.3,0.4,0.7,0.7,1.2c0,0.1-0.1-0.1-0.1-0.2c1,2,0.7,0.8,1.8,2.7c-0.2-0.2,0.1,0.5,0.4,0.8c-0.5-0.8-0.1-0.4,0.4,0.2
						c0.7,1.3,0.9,1.3,1.3,1.9l-0.4-0.7c0.2,0.2,0.6,0.8,1.2,1.6c0,0.1-0.6-0.7-0.4-0.4c0.8,0.8,1.3,2.2,2.3,3.4
						c0.4,0.6-0.1,0.2,0.3,0.7c1.2,1.3,1.1,1.6,2.3,3c-0.2-0.5-0.3-0.5,0.6,0.4c-0.7-0.8-1.3-1.6-2-2.3l1.3,1.4
						c-0.6-0.7-1.2-1.5-1.6-1.9c0.6,0.7,0.6,0.6,0.4,0.2c0.6,1.1,1.6,1.9,2.4,3.1l-0.3,0.2c0.7,0.9,1.3,1.6,2,2.4
						c0.7,0.8,1.5,1.5,2.5,2.6l-0.6-0.7c0.3,0.2,1.2,1.3,1.9,1.9c-0.1,0,0.2,0.4,0.5,0.8c0-0.1,1.4,1.5,1.7,1.6l0.8,1
						c1.6,1.7,2,1.7,3.6,3.2c-0.5-0.4,0.1,0.4-1-0.6c0.5,0.5,1,1,1,1c0.3,0.3,1.5,1.3,2,1.9c0.3,0.2,0.4,0.2,1,0.8c0.1,0.1,0,0,0,0
						c0,0,1,0.8,0.5,0.3c1.4,1.8,4.6,4.3,5.9,5.8c1.2,1,2.7,2.3,3.8,3.2c-0.1,0,0,0-0.2-0.2c1.5,1.4,1.1,0.6,2.8,2.1
						c0.8,0.9-1-0.7-0.5-0.2c0,0.5,2.1,1.7,3.2,2.8l-0.3-0.2c0.1,0.1,0.3,0.2,0.4,0.4c0.1,0,0.1,0.1,0.2,0.1
						c0.2,0.1,0.4,0.2,0.6,0.4c-0.1,0-0.3,0.1-0.4,0.1l-0.3,0c-0.1,0-0.2,0-0.4,0c0,0,0.1,0,0,0c-1.3,0.3-3.7,0.4-5.6,0.5
						c0.6-0.1,0.8-0.1,0.5-0.2c-0.8,0,0.2,0.2-1.4,0.2c-0.5-0.1-1.7-0.2-1.9-0.3l1.5,0c-0.8-0.2-2,0-2.8-0.1l0.1-0.1
						c-2.4-0.1-2.4,0.1-5-0.1l0.3,0.1c-1.4,0.1-1.2-0.2-2.6-0.2l-0.4-0.2c-0.9,0-3.2-0.2-4.9-0.4c0.9,0,2.9,0.2,4.1,0.3
						c-0.9-0.1-3.1-0.4-3.5-0.4c0.4,0,0.8,0,1.2,0.1c-1.1,0-2.6-0.2-4.4-0.5c0.4-0.3-4.6-1-5.8-1.7c-3.2-0.6-6.1-1.7-9.6-2.9
						c1.1,0.7-1-0.4-0.9,0c-0.8-0.3-1.1-0.4-1.2-0.5c-0.8-0.4-1.6-0.7-2.4-1.2c-0.5-0.3,0.8,0.3,0.7,0.2c-1.7-0.8-0.7-0.4-1.8-1
						c0.2,0.2-0.7-0.1-1.6-0.6c0.4,0.3,0.9,0.5,1.3,0.7c-2.5-0.9-2-1.2-4.5-2.2l0.8,0.3c-0.6-0.3-1.8-0.9-2.9-1.5
						c-1.1-0.6-2.2-1.2-2.9-1.4c-0.2-0.2-0.4-0.4,0.1-0.1c-1.4-0.9-3-1.8-4.4-2.8c-0.7-0.5-1.4-0.9-2.1-1.4c-0.6-0.5-1.2-1-1.6-1.4
						l0.2,0.1c-0.5-0.4-0.9-0.6-1.5-1.1c0.1,0,0.2,0.1,0-0.1c-0.3-0.2-1.3-1-1.9-1.6L98,219c-2.3-2.2-3.6-3.3-5.5-5.2
						c0.2-0.1-1.4-2.1-2.1-3.1l0.1,0c-1.1-1.5-2-2.8-3-4c-0.9-1.3-1.7-2.5-2.6-4c-0.4-1-1.2-2.6-2.1-4.4c-0.8-1.8-1.6-3.8-2.1-5.4
						c0.1,0.5-0.2,0-0.4-0.6c-0.2-0.8-0.8-2.1-0.6-2l0.1,0.3c0-0.6-0.6-2.2-0.9-3.5l-0.3-0.1c-0.6-3.4-2-8.7-1.9-10.6
						c-0.2-0.8-0.3-1.8-0.4-2.6l0.1,0c-0.1-1.1-0.2-2-0.3-2.9c0-0.9-0.1-1.9-0.2-3.3l0.1,0.6c-0.1-1.6-0.5-2-0.6-3.4l0.2-0.4
						c0-1.4,0.1-2.8,0.1-4.2l0-1l0.1-1c0-0.7,0.1-1.4,0.1-2.1c0,0,0.1,0.1,0.1,0.6c0.1-0.6,0.2-1.9,0.3-2.9c0.1-1,0.2-1.8,0-1.6
						c0.2,0,0.4-2.8,0.6-4.3L77,148c0.1-1.3,0.1-1.3,0.4-3c0.1-0.4,0.2-0.3,0,0.2c0.4-1.3,0.1-1.1,0.6-2.7c0,0.2-0.1,0.4-0.1,0.6
						c0.4-1.4,0.3-1.3,0.5-2.1c0.2-0.9,0.8-2.6,1-2.8c0-0.2,0.2-1,0.5-1.8c0.1-0.1,0,0.2,0,0.4c0.9-2.2,1-3.4,1.9-4.8
						c0.1,0,0.1-0.1,0.2-0.2c-0.8,1.7-1.3,3.2-1.3,3c0.1,0,0.7-1.4,0.4-0.2c0.1-0.3,0.2-0.6,0.3-1c0.1-0.4,0.3-0.8,0.4-1.2
						c0.3-0.8,0.6-1.7,1-2.3c0-0.1,0.1-0.1,0.1-0.2l0,0.1c0.2-0.3,0.3-0.6,0.4-0.9c0.2-0.4,0.4-0.7,0.6-1.1c0.2-0.1,0.9-1.5,1.2-2.2
						c-0.2,0,0.3-0.9-0.2-0.1c0.1-0.1-0.1,0.1-0.3,0.6c0,0.1-0.1,0.2-0.1,0.3c0,0,0,0,0-0.1c-0.2,0.4-0.5,1-0.9,1.7
						c0.2-0.6,0.5-1.2,0.9-1.9c0.1-0.4,0.2-0.8,0.3-1.1c0.6-0.8,1.8-2.5,2.1-2.7c0.3-0.5,0.6-1.1,0.9-1.6c0.4-0.5,0.7-1.1,1.1-1.6
						c0.7-1.1,1.3-2.1,1.6-2.7c0.4-0.5,0.5-0.6,0.7-0.7c-0.2,0.3-0.5,0.7-0.6,0.9c0.8-1.1,2.4-3.1,2.5-3.5c1.2-1.2-0.5,0.8,1-0.9
						l-0.2,0.3c0.8-0.8,1.5-1.6,2.1-2.3c0.7-0.7,1.3-1.4,1.9-2.2c0.6-0.7,1.3-1.4,2-2.2c0.7-0.7,1.6-1.5,2.6-2.2
						c-0.3,0.2-0.4,0.3-0.5,0.3c4.4-3.7,9.1-7.6,14-10.4c1.4-0.8,1.5-1,2.3-1.6l0.4,0c0.4-0.3,0.9-0.7,1.4-1c2-1.3,3.8-1.7,6.4-3.2
						l-0.4,0.1c1-0.5,3.1-1.5,3-1.3c0.1-0.1,0.3-0.2,0.7-0.4l0.1,0.1c0.8-0.4,1.6-0.8,2.4-1.2c1.9-0.7-0.2,0.4,2.6-0.7
						c1-0.4,2.9-1.3,2.5-1.2c-0.4,0.1-1.1,0.3-1.2,0.3l1-0.4c0.1-0.3,0.8-0.8-1.7-0.1c-0.5,0.3-1.1,0.5-1.6,0.8L133,84l1.4-0.5
						c-0.8,0.2-1.3,0.5-1.8,0.8c-0.2,0-0.4,0.1-0.7,0.2c-0.5,0.3-1,0.6-1.5,0.9c-0.2,0,0.6-0.5-0.4-0.1c-0.7,0.4,0.8-0.1-0.4,0.5
						c-0.8,0.2-0.6,0.1-1.5,0.6c-0.2,0,0-0.1,0.4-0.3c-0.8,0.4-2.1,1-2.5,1.3c-0.8,0.3-2.6,1.4-2.7,1.1c-0.2,0.2-1.3,0.9-2,1.3
						c1.2-1-2.6,1.5-2.4,1c-0.8,0.8-3.3,2.1-4.9,3.3c0.1-0.1,0.2-0.2,0.4-0.3c-0.9,0.6-1.2,0.7-1.8,1c0,0.2-1.4,1.2-2.1,1.9
						c-1.2,0.6,0.5-0.6,0.1-0.6c0.1,0.1-1.8,1.5-1.3,1.3c-0.9,0.5-0.7,0.5-1.3,0.7c0,0.3-0.7,0.6-1.3,1.2c-1.2,0.8-0.4,0.1-1.7,1.1
						C104.2,100.9,105.3,99.9,105.3,99.9z M81.7,130.1L81.7,130.1c0.1-0.3,0.2-0.6,0.3-0.7C82,129.6,81.9,129.8,81.7,130.1z
						 M80.4,133.1c0.2-0.4,0.4-0.8,0.6-1.3c0.1-0.1,0.1,0,0,0.3C81,132,80.6,132.7,80.4,133.1z M84.2,127.3
						c-0.2,0.5-0.3,0.6-0.4,0.6c0.1-0.2,0.2-0.5,0.4-0.8c0,0,0,0,0-0.1C84.2,127.2,84.2,127.2,84.2,127.3z"/>
					<path class="st1" d="M84.4,126.4c0-0.1,0-0.1,0.1-0.2C84.5,126.3,84.4,126.4,84.4,126.4c-0.1,0.1-0.1,0.2-0.1,0.2
						C84.3,126.6,84.4,126.5,84.4,126.4z"/>
					<path class="st1" d="M111.6,140.9L111.6,140.9C111.6,140.9,111.6,140.9,111.6,140.9C111.6,140.9,111.6,140.9,111.6,140.9z"/>
					<polygon class="st1" points="75.3,177.2 75.4,177.1 75.3,176.9 					"/>
					<path class="st1" d="M115,123.5c0,0,0.1-0.1,0.1-0.2C115.1,123.3,115,123.4,115,123.5z"/>
					<path class="st1" d="M117.3,116.2c0.1-0.3,0.3-0.7,0.4-1C117.5,115.6,117.4,115.9,117.3,116.2z"/>
					<path class="st1" d="M119.5,110.7c0-0.1,0-0.1,0-0.1l0,0L119.5,110.7z"/>
					<path class="st1" d="M127.7,200.1c0,0.1,0.1,0.1,0.1,0.2C128.1,200.7,127.9,200.4,127.7,200.1z"/>
					<path class="st1" d="M115.7,175.1c0.1,0.3,0.2,0.6,0.3,0.8C115.9,175.4,115.8,175.1,115.7,175.1z"/>
					<path class="st1" d="M148.2,223.4L148.2,223.4c0,0,0.1,0.1,0.1,0.1L148.2,223.4z"/>
					<path class="st1" d="M116.4,177.2c-0.1-0.5-0.2-0.9-0.4-1.2C116.1,176.3,116.3,176.8,116.4,177.2z"/>
					<path class="st1" d="M132.6,88.9l0.2-0.2c0,0,0,0,0,0L132.6,88.9z"/>
					<path class="st1" d="M132.8,88.7l0.2-0.3C132.9,88.6,132.8,88.7,132.8,88.7z"/>
					<path class="st1" d="M133.4,87.9l-0.4,0.5C133.1,88.3,133.3,88.1,133.4,87.9z"/>
					<path class="st1" d="M127.9,95.2l0,0.1C128,95.2,128,95.2,127.9,95.2z"/>
					<path class="st1" d="M126.6,97.2c0.3-0.5,0.9-1.1,1.3-1.8l0-0.1C127.8,95.6,126.8,96.6,126.6,97.2z"/>
					<path class="st1" d="M121.2,105.5c0.3-0.6,0.6-1.2,0.9-1.8c-0.2,0.3-0.5,0.7-0.1-0.2C120.8,105.7,122.4,103.1,121.2,105.5z"/>
					<path class="st1" d="M118.6,111.1C119,110.1,118.5,111,118.6,111.1C118.3,111.6,118.2,111.8,118.6,111.1z"/>
					<path class="st1" d="M111.5,154.9l-0.1-0.1C111.4,155.6,111.4,154.8,111.5,154.9z"/>
					<polygon class="st1" points="113.1,163.3 113.1,162.5 112.9,162.1 					"/>
					<polygon class="st1" points="113.2,168.4 113.1,168 113.4,169.4 					"/>
					<path class="st1" d="M153.7,230.2l-0.1-0.3C153.2,229.6,153,229.6,153.7,230.2z"/>
					<path class="st1" d="M149.7,239.8c-0.3-0.1-1.2-0.2-1.8-0.2C148.6,239.6,149.3,239.8,149.7,239.8z"/>
					<polygon class="st1" points="78.2,185.3 78.5,185.9 78.1,184.8 					"/>
				</g>
			</g>
		</g>
	</g>
</g>
</svg>
