<?xml version="1.0" encoding="utf-8"?>
<!-- Generator: Adobe Illustrator 23.0.1, SVG Export Plug-In . SVG Version: 6.00 Build 0)  -->
<svg version="1.1" id="Layer_1" xmlns="http://www.w3.org/2000/svg" xmlns:xlink="http://www.w3.org/1999/xlink" x="0px" y="0px"
	 viewBox="0 0 27 27" style="enable-background:new 0 0 27 27;" xml:space="preserve">
<style type="text/css">
	.st0{fill:#FAC7C3;}
</style>
<g id="_x34_pxxTr.tif">
	<g>
		<path class="st0" d="M27,13.4c0,1.2,0,2.4,0,3.6c0,0.8,0,1.6-0.1,2.5c-0.1,1.1-0.3,2.1-0.7,3.1c-0.8,1.7-2.1,3-3.9,3.6
			c-0.6,0.2-1.3,0.4-2,0.5c-0.6,0.1-1.1,0.1-1.7,0.1c-2.3,0.1-4.7,0-7,0.1c-0.7,0-1.4,0-2.1,0c-0.6,0-1.3,0-1.9-0.1
			c-1.1-0.1-2.1-0.3-3-0.7c-0.8-0.3-1.4-0.8-2-1.4c-0.6-0.6-1.1-1.3-1.5-2.1c-0.3-0.7-0.5-1.4-0.6-2.1c-0.1-0.7-0.2-1.4-0.2-2.1
			c-0.1-2.9-0.1-5.7,0-8.6c0-0.7,0-1.5,0.1-2.2c0.1-1,0.2-1.9,0.5-2.8c0.5-1.5,1.5-2.7,2.9-3.5c0.6-0.4,1.3-0.6,1.9-0.8
			c0.5-0.1,1-0.2,1.5-0.3C8.2,0,9.4,0,10.5,0c2,0,3.9,0,5.9,0c0.9,0,1.8,0,2.8,0.1c0.9,0,1.8,0.2,2.7,0.5c0.9,0.3,1.7,0.7,2.4,1.3
			c1,0.9,1.7,2,2.2,3.2c0.2,0.6,0.3,1.3,0.4,1.9C27,8,27,8.9,27,9.9C27,11.1,27,12.3,27,13.4C27,13.4,27,13.4,27,13.4z M13.6,2.4
			C13.6,2.4,13.6,2.4,13.6,2.4c-0.9,0-1.8,0-2.7,0c-1.1,0-2.3,0-3.4,0.1C6.9,2.6,6.3,2.7,5.7,2.9c-1.2,0.5-2,1.3-2.5,2.4
			C2.8,6.1,2.7,6.9,2.6,7.7c0,0.8-0.1,1.6-0.1,2.4c0,2.5,0,4.9,0,7.4c0,0.7,0,1.5,0.1,2.2c0.1,0.6,0.2,1.1,0.4,1.6
			c0.4,1,1,1.7,1.8,2.2c0.7,0.4,1.4,0.6,2.2,0.7c0.5,0.1,1.1,0.1,1.6,0.1c0.9,0,1.8,0,2.7,0.1c1.1,0,2.2,0,3.4,0c1.5,0,3,0,4.5-0.1
			c0.6,0,1.2-0.1,1.8-0.3c1.6-0.5,2.6-1.4,3.2-3c0.2-0.6,0.3-1.3,0.4-2c0-0.8,0.1-1.7,0.1-2.5c0-2,0-4.1,0-6.1c0-1,0-2.1-0.1-3.1
			c-0.1-0.6-0.2-1.3-0.4-1.9c-0.5-1.2-1.3-2-2.4-2.5c-0.8-0.3-1.6-0.5-2.4-0.5c-0.7,0-1.5-0.1-2.2-0.1C15.9,2.4,14.7,2.4,13.6,2.4z"
			/>
		<path class="st0" d="M6.7,13.4c0-3.8,3.1-6.9,6.9-6.9c3.8,0,6.9,3.1,6.9,6.9c0,3.8-3.1,6.9-6.9,6.9C9.7,20.4,6.6,17.3,6.7,13.4z
			 M13.6,9c-2.5,0-4.5,2-4.5,4.5c0,2.5,2,4.5,4.5,4.5c2.5,0,4.5-2,4.5-4.5C18,11,16,9,13.6,9z"/>
		<path class="st0" d="M22.4,6.3c0,0.9-0.7,1.6-1.6,1.6c-0.9,0-1.6-0.7-1.6-1.6c0-0.9,0.7-1.6,1.6-1.6C21.6,4.7,22.4,5.4,22.4,6.3z"
			/>
	</g>
</g>
</svg>
