<?xml version="1.0" encoding="utf-8"?>
<!-- Generator: Adobe Illustrator 23.0.1, SVG Export Plug-In . SVG Version: 6.00 Build 0)  -->
<svg version="1.1" id="Layer_1" xmlns="http://www.w3.org/2000/svg" xmlns:xlink="http://www.w3.org/1999/xlink" x="0px" y="0px"
	 viewBox="0 0 21.1 20.4" style="enable-background:new 0 0 21.1 20.4;" xml:space="preserve">
<style type="text/css">
	.st0{fill:#FFFFFF;}
</style>
<g id="jLKbyN.tif_1_">
	<g>
		<path class="st0" d="M18.8,20.4c-5.5,0-11,0-16.5,0c-0.1,0-0.3,0-0.4-0.1c-0.9-0.2-1.7-0.9-1.9-1.7c0-0.1,0-0.3-0.1-0.4
			c0-4.8,0-9.6,0-14.5c0,0,0,0,0-0.1c0.1-0.5,0.3-1,0.6-1.4c0.5-0.5,1.1-0.7,1.8-0.7c0.5,0,1,0,1.5,0c0,0,0,0,0.1,0c0,0,0,0.1,0,0.1
			c0,0.5,0,1,0,1.5c0,0.1,0,0.2,0,0.3c0.2,1,1.3,1.6,2.3,1.1C7,4.3,7.3,3.8,7.3,3.2c0-0.5,0-1,0-1.5c0,0,0-0.1,0-0.1
			c2.2,0,4.3,0,6.5,0c0,0,0,0.1,0,0.1c0,0.5,0,1,0,1.4c0,0.3,0.1,0.6,0.2,0.8c0.4,0.7,1.4,1,2.2,0.6C16.7,4.2,17,3.7,17,3.1
			c0-0.5,0-1,0-1.5c0,0,0-0.1,0-0.1c0,0,0.1,0,0.1,0c0.5,0,1,0,1.5,0c0.2,0,0.4,0,0.6,0.1c0.9,0.2,1.7,0.9,1.9,1.8
			c0,0.1,0,0.2,0.1,0.4c0,4.8,0,9.6,0,14.4c0,0.1,0,0.2,0,0.3c-0.1,0.9-0.9,1.7-1.9,1.9C19,20.4,18.9,20.4,18.8,20.4z M1.6,7.1
			C1.6,7.1,1.6,7.1,1.6,7.1c0,3.7,0,7.3,0,10.9c0,0,0,0.1,0,0.1c0,0.2,0.1,0.5,0.3,0.6c0.2,0.1,0.4,0.1,0.5,0.1c5.4,0,10.7,0,16.1,0
			c0,0,0,0,0.1,0c0.2,0,0.4-0.1,0.6-0.2c0.2-0.2,0.2-0.4,0.2-0.6c0-3.6,0-7.3,0-10.9c0,0,0,0,0-0.1C13.5,7.1,7.6,7.1,1.6,7.1z"/>
		<path class="st0" d="M5.8,0C5.9,0,5.9,0,6,0.1c0.3,0.1,0.4,0.4,0.5,0.7c0,0,0,0.1,0,0.1c0,0.8,0,1.5,0,2.3c0,0.1,0,0.3-0.1,0.4
			C6.3,3.7,6.1,3.9,5.8,3.9c-0.3,0-0.6,0-0.8-0.3C4.9,3.5,4.9,3.3,4.9,3.1c0-0.8,0-1.6,0-2.4c0-0.3,0.1-0.5,0.3-0.7
			C5.3,0.1,5.4,0,5.5,0c0,0,0,0,0.1,0C5.6,0,5.7,0,5.8,0z"/>
		<path class="st0" d="M15.5,0c0.1,0,0.1,0,0.2,0.1c0.3,0.1,0.5,0.4,0.5,0.7c0,0.5,0,1.1,0,1.6c0,0.3,0,0.5,0,0.8
			c0,0.5-0.4,0.8-0.9,0.8c-0.3,0-0.5-0.2-0.6-0.4c0-0.1-0.1-0.2-0.1-0.3c0-0.8,0-1.6,0-2.4c0-0.4,0.3-0.7,0.7-0.7c0,0,0,0,0,0
			C15.4,0,15.4,0,15.5,0z"/>
	</g>
</g>
</svg>
