<?xml version="1.0" encoding="utf-8"?>
<!-- Generator: Adobe Illustrator 23.0.1, SVG Export Plug-In . SVG Version: 6.00 Build 0)  -->
<svg version="1.1" id="Layer_1" xmlns="http://www.w3.org/2000/svg" xmlns:xlink="http://www.w3.org/1999/xlink" x="0px" y="0px"
	 viewBox="0 0 638.9 302.3" style="enable-background:new 0 0 638.9 302.3;" xml:space="preserve">
<style type="text/css">
	.st0{opacity:0.76;fill:#A1D1C7;}
	.st1{fill:#F3F0EE;}
	.st2{fill:#E2472F;}
	.st3{fill:#FAC8C4;}
	.st4{font-family:'AlvaniaRegular';}
	.st5{font-size:13.2804px;}
	.st6{font-size:13.2803px;}
</style>
<rect x="7.6" y="9.6" class="st0" width="624.1" height="284.2"/>
<polygon class="st1" points="142.5,7.6 119.1,293.4 130.8,293.4 151.2,7.6 "/>
<polygon class="st1" points="149.9,26 240.9,7.6 267.8,7.6 148.6,32 "/>
<polygon class="st1" points="141,26.2 26.7,7.6 9.3,7.6 141,33.5 "/>
<polygon class="st1" points="128,184.7 9.3,181.7 9.3,189.6 128,191.9 "/>
<polygon class="st1" points="138.1,191.9 251.3,171.3 326.2,133 355.8,92.1 393.2,79 399.3,84.2 358.4,99 332.3,137.3 253.9,177.4 
	137.4,200.8 "/>
<polygon class="st1" points="190.8,190.1 221.7,282.7 226.9,281 196.3,189 "/>
<polygon class="st1" points="230.4,181.7 261.8,270.5 267,268.8 235.6,181.1 "/>
<polygon class="st1" points="260.7,173.9 300.9,256.6 306.1,254 267,170.7 "/>
<polygon class="st1" points="186,296.6 306.1,254 311.4,258.3 342.7,245.3 289.8,159.1 296.5,155.6 347.1,242.7 364.5,235.7 
	332.3,137.3 337.8,129.2 375.8,240.9 310.5,265.3 303.5,267 300.9,263.6 199.1,296.6 "/>
<polygon class="st1" points="349.7,7.6 369.7,57.3 399.3,84.2 482.9,216.6 529,277.5 547.3,287.9 547.3,294 563.2,293.4 
	558.6,278.4 534.2,267 409.7,76.4 381.9,49.4 364.5,7.6 "/>
<path class="st1" d="M378.6,41.6"/>
<polygon class="st1" points="520.3,8.5 378.4,41.6 381.9,49.4 522.9,17.2 "/>
<polygon class="st1" points="510.7,7.6 556.8,146.9 562.9,142.6 522.9,7.6 "/>
<polygon class="st1" points="451.6,33.5 478.5,92.1 533.8,77.3 533.8,70.5 482.9,80.8 461,31.3 "/>
<polygon class="st1" points="429.2,106.2 450.6,94.7 504.6,126 510.7,118.2 547.3,106.9 550.8,116.5 516.8,126 513.3,133.9 
	517.7,170.4 510.7,173.9 502.9,133.9 450.6,103.4 432.8,113.7 "/>
<polygon class="st1" points="478.5,181.7 540.3,160.8 623.9,88.6 631.7,92.1 631.7,99.9 623.9,94.7 547.3,165.2 550.8,181.7 
	555.1,198.3 500.7,215.7 "/>
<polygon class="st1" points="536.8,204.1 548.1,276.6 559.9,282.7 545.5,198.3 "/>
<polygon class="st1" points="375.8,240.9 380.1,256.6 399.3,266.2 482.9,210.5 490,222.2 399.3,282.7 399.3,293.4 349.7,294 
	375.8,280.1 365.2,244.9 "/>
<polygon class="st1" points="303.5,267 315.9,293.4 322.2,293.4 310.5,265.3 "/>
<polygon class="st1" points="513.2,256.6 454.1,293.8 472.6,293.8 519.8,265.3 "/>
<polygon class="st1" points="567.1,146.9 576,155.6 582.1,175.6 550.8,185.2 555.1,198.3 631.7,173 631.7,146.9 594.3,161.7 
	574.7,139.9 "/>
<polygon class="st1" points="583.3,189 615.2,273.1 572.4,293.4 631.7,293.4 631.7,265.3 597.9,184.2 "/>
<polygon class="st1" points="205.6,234.5 161.6,256.6 161.6,294 166.1,294 166,259.2 207.6,240.4 "/>
<polygon class="st1" points="7.6,177.9 52,177.9 52,211.2 175.3,211.2 175.3,216.1 129.7,216.1 129.7,293.8 7.6,293.8 "/>
<polygon class="st2" points="332,137.2 296.2,155.7 346.8,243.2 364,235.8 "/>
<polygon class="st3" points="287.5,152.8 261.7,110 323.3,80.4 355.4,91.5 325.8,133.5 "/>
<path class="st2" d="M429.4,54.9c0,10.2-8.6,13.3-14.8,13.3s-8.6-4-8.6-10.9c0-6.9,1.6-12.5,7.8-12.5
	C420.1,44.7,429.4,48,429.4,54.9z"/>
<text transform="matrix(1 0 0 1 414.3984 62.9381)" class="st1 st4 st5">5</text>
<path class="st2" d="M451.4,89.4c9.4,3.7,9.2,12.9,6.9,18.7s-6.9,6.5-13.3,4c-6.4-2.5-11-6.1-8.7-11.9S445,86.8,451.4,89.4z"/>
<text transform="matrix(1 0 0 1 445.2353 107.3434)" class="st1 st4 st5">6</text>
<path class="st2" d="M66.6,241.1c9.4,3.7,9.2,12.9,6.9,18.7c-2.3,5.8-6.9,6.5-13.3,4c-6.4-2.5-11-6.1-8.7-11.9
	S60.1,238.6,66.6,241.1z"/>
<text transform="matrix(1 0 0 1 57.9257 259.0602)" class="st1 st4 st5">11</text>
<path class="st2" d="M496,127.8c2.6-9.8,11.7-10.7,17.7-9.1c6,1.6,7.3,6.1,5.5,12.8s-4.5,9.7-10.7,10.1
	C499.7,142.1,494.3,134.4,496,127.8z"/>
<text transform="matrix(1 0 0 1 504.4414 135.7135)" class="st1 st4 st5">7</text>
<path class="st2" d="M491.1,191.9c2.6-9.8,11.7-10.7,17.7-9.1c6,1.6,7.3,6.1,5.5,12.8s-4.5,9.7-10.7,10.1
	C494.8,206.2,489.3,198.6,491.1,191.9z"/>
<text transform="matrix(1 0 0 1 499.5078 199.8541)" class="st1 st4 st5">8</text>
<path class="st2" d="M482.7,231.3c-10.2-0.3-12.7-5.3-12.5-11.6c0.2-6.3,5.4-11.3,12.3-11.1c6.9,0.2,9.3,3.9,11.1,9.9
	C496.1,227,489.6,231.5,482.7,231.3z"/>
<text transform="matrix(1 0 0 1 478.539 225.7565)" class="st1 st4 st5">9</text>
<path class="st2" d="M590.2,149.9c-6-8.2-1-15.8,4-19.5c5-3.7,9.3-1.9,13.4,3.7c4.1,5.5,4.8,9.6,1.2,14.7
	C603.8,155.9,594.4,155.4,590.2,149.9z"/>
<text transform="matrix(1 0 0 1 593.2509 146.8141)" class="st1 st4 st5">10</text>
<path class="st2" d="M387.5,86.6c0,10.2-2.5,17.3-14.8,14.9c-6.1-1.2-8.6-4-8.6-10.9c0-6.9,1.6-12.5,7.8-12.5
	C378.1,78,387.5,79.7,387.5,86.6z"/>
<text transform="matrix(1 0 0 1 372.4599 96.2418)" class="st1 st4 st5">3</text>
<path class="st2" d="M387.5,145.8c0,10.2-2.5,12.3-14.8,14.9c-6.1,1.3-8.6-8-8.6-14.9s4.9-7.4,7.8-8.5
	C377.7,134.9,387.5,138.9,387.5,145.8z"/>
<text transform="matrix(1 0 0 1 372.4599 155.4488)" class="st1 st4 st5">4</text>
<path class="st1" d="M341.8,177.9c0,10.2-2.5,12.3-14.8,14.9c-6.1,1.3-8.6-8-8.6-14.9s4.9-7.4,7.8-8.5
	C332,167,341.8,171,341.8,177.9z"/>
<text transform="matrix(0.9989 -4.742000e-02 4.742000e-02 0.9989 326.9201 186.5009)" class="st2 st4 st6">2</text>
<path class="st1" d="M325.8,108.8c0,10.2,0,16-16.1,14.9c-6.2-0.4-8.6-4-8.6-10.9s1.6-12.5,7.8-12.5S325.8,101.9,325.8,108.8z"/>
<text transform="matrix(1 0 0 1 310.7871 118.4449)" class="st2 st4 st5">1</text>
<g>
	<polygon class="st1" points="564.5,155.7 562.6,155.7 562,175.4 565.1,175.4 	"/>
	<polygon class="st1" points="568.2,163.7 568.2,161.2 557.7,161.8 558.3,163.7 	"/>
</g>
</svg>
