<?xml version="1.0" encoding="utf-8"?>
<!-- Generator: Adobe Illustrator 23.0.1, SVG Export Plug-In . SVG Version: 6.00 Build 0)  -->
<svg version="1.1" id="Layer_1" xmlns="http://www.w3.org/2000/svg" xmlns:xlink="http://www.w3.org/1999/xlink" x="0px" y="0px"
	 viewBox="0 0 27 27" style="enable-background:new 0 0 27 27;" xml:space="preserve">
<style type="text/css">
	.st0{fill:#FFFFFF;}
</style>
<g id="OcY684_7_">
	<g>
		<path class="st0" d="M5.7,26.7c-0.4-0.3-0.4-0.7-0.2-1.1c0.6-1,1.2-2.1,1.8-3.1c-2.7-2.3-4-5.3-3.6-8.8C4,11.1,5.2,9,7.1,7.3
			c3.9-3.4,9.9-3,13.5,0.8c3.6,3.9,3.7,10.4-1,14.4c0.6,1,1.2,2.1,1.8,3.1c0.3,0.6,0.3,0.7-0.2,1.1c-0.1,0-0.1,0-0.2,0
			c-0.2-0.2-0.4-0.4-0.5-0.6c-0.6-1-1.2-2-1.7-3c-3.5,2-7,2-10.5,0c-0.6,1-1.2,2-1.8,3.1c-0.1,0.2-0.3,0.4-0.5,0.5
			C5.9,26.7,5.8,26.7,5.7,26.7z M13.4,23.6c4.8,0,8.8-3.9,8.8-8.7c0-4.8-3.9-8.7-8.7-8.7c-4.8,0-8.8,3.9-8.8,8.6
			C4.8,19.6,8.6,23.5,13.4,23.6z"/>
		<path class="st0" d="M23.7,5.1c-0.2,0.5-0.3,1-0.5,1.5c-0.2,0.5-0.5,0.5-0.9,0.3c-2-1.1-4-2.3-5.9-3.4c-0.4-0.3-0.5-0.5-0.2-1
			c0.6-1,1.6-1.6,2.7-1.8c0.1,0,0.2-0.1,0.3-0.1c0.2,0,0.5,0,0.7,0c0.1,0,0.2,0.1,0.3,0.1c1.7,0.3,2.7,1.3,3.3,2.8
			c0.1,0.3,0.1,0.5,0.2,0.8C23.7,4.5,23.7,4.8,23.7,5.1z M17.3,2.7c1.7,1,3.4,2,5.1,2.9c0.5-1.3,0-2.8-1.2-3.6
			C19.9,1.3,18.3,1.6,17.3,2.7z"/>
		<path class="st0" d="M7.8,0.5C8.6,0.8,9.3,1.1,10,1.5c0.4,0.2,0.7,0.7,1,1c0.3,0.3,0.2,0.7-0.2,0.9c-2,1.2-4,2.3-6,3.5
			C4.3,7.1,4,7,3.9,6.6C3.6,6.1,3.5,5.6,3.3,5.1c0-0.2,0-0.5,0-0.7c0-0.1,0.1-0.2,0.1-0.3c0.3-1.7,1.3-2.8,2.9-3.3
			c0.3-0.1,0.6-0.1,0.8-0.2C7.4,0.5,7.6,0.5,7.8,0.5z M9.7,2.7C8.8,1.6,7.2,1.3,5.9,2.1C4.7,2.8,4.1,4.4,4.7,5.7
			C6.3,4.7,8,3.7,9.7,2.7z"/>
		<path class="st0" d="M14.6,11.7c0,1.1,0,2.2,0,3.3c0,0.4-0.1,0.7-0.5,0.9c-1.3,0.9-2.7,1.9-4,2.8c-0.3,0.2-0.7,0.4-0.9,0
			c-0.3-0.4,0-0.7,0.3-0.9c1.2-0.9,2.4-1.7,3.6-2.6c0.3-0.2,0.4-0.4,0.4-0.7c0-2,0-4,0-6.1c0-0.1,0-0.2,0-0.4c0-0.4,0.2-0.6,0.5-0.6
			c0.4,0,0.6,0.3,0.6,0.6c0,0.8,0,1.6,0,2.5C14.6,11,14.6,11.4,14.6,11.7z"/>
	</g>
</g>
</svg>
