<?xml version="1.0" encoding="utf-8"?>
<!-- Generator: Adobe Illustrator 23.0.1, SVG Export Plug-In . SVG Version: 6.00 Build 0)  -->
<svg version="1.1" id="Layer_1" xmlns="http://www.w3.org/2000/svg" xmlns:xlink="http://www.w3.org/1999/xlink" x="0px" y="0px"
	 viewBox="0 0 102.3 113.7" style="enable-background:new 0 0 102.3 113.7;" xml:space="preserve">
<style type="text/css">
	.st0{fill:#A1D1C7;}
	.st1{fill:#272762;}
	.st2{fill:#E2472F;}
	.st3{fill:#F1B2AF;}
	.st4{font-family:'AlvaniaRegular';}
	.st5{font-size:10.1977px;}
</style>
<g>
	<polygon class="st0" points="12.2,2 13.1,52.3 19,52.3 20.6,2 	"/>
	<path class="st1" d="M21.7,64v45.5c0,0-18.8,1.3-18.5-11.2s14.2-9.9,14.2-9.9S2.9,88.1,3.2,73.9S21.7,64,21.7,64z"/>
	<path class="st2" d="M48,44.4h6.5c0,0,0.7-15.6-12.3-16.6c-13-1.1-15.2,21.7-4.3,25.7s12.7,22.1,2.9,21.7s-8.3-9.8-8.3-9.8
		l-5.4-0.4c0,0-1.4,15.9,13.7,15.9s12.3-17,12.3-17s-0.2-10.1-7.6-12.7c-11.6-4-9.8-19.5-1.1-17.7C50.1,34.8,48,44.4,48,44.4z"/>
	<text transform="matrix(1 0 0 1 30.9774 96.375)"><tspan x="0" y="0" class="st3 st4 st5">24 - 26 </tspan><tspan x="0" y="14.9" class="st3 st4 st5">augustus 2018</tspan></text>
</g>
</svg>
