<?xml version="1.0" encoding="utf-8"?>
<!-- Generator: Adobe Illustrator 23.0.1, SVG Export Plug-In . SVG Version: 6.00 Build 0)  -->
<svg version="1.1" id="Layer_1" xmlns="http://www.w3.org/2000/svg" xmlns:xlink="http://www.w3.org/1999/xlink" x="0px" y="0px"
	 viewBox="0 0 102.3 113.7" style="enable-background:new 0 0 102.3 113.7;" xml:space="preserve">
<style type="text/css">
	.st0{fill:#A1D1C7;}
	.st1{fill:#272762;}
	.st2{fill:#E2472F;}
	.st3{enable-background:new    ;}
	.st4{fill:#F1B2AF;}
</style>
<g>
	<polygon class="st0" points="12.2,2 13.1,52.3 19,52.3 20.6,2 	"/>
	<path class="st1" d="M21.7,64v45.5c0,0-18.8,1.3-18.5-11.2s14.2-9.9,14.2-9.9S2.9,88.1,3.2,73.9S21.7,64,21.7,64z"/>
	<path class="st2" d="M48,44.4h6.5c0,0,0.7-15.6-12.3-16.6c-13-1.1-15.2,21.7-4.3,25.7s12.7,22.1,2.9,21.7s-8.3-9.8-8.3-9.8L27.1,65
		c0,0-1.4,15.9,13.7,15.9s12.3-17,12.3-17s-0.2-10.1-7.6-12.7c-11.6-4-9.8-19.5-1.1-17.7C50.1,34.8,48,44.4,48,44.4z"/>
	<g class="st3">
		<path class="st4" d="M35.6,90.1c0,0.1-0.1,0.3-0.3,0.6C34.7,91.8,34,93,34,93c-0.6,1-1.1,1.9-1.1,1.9c0,0-0.1,0.1,0,0.1l2.5-0.1
			c0.1,0,0.2,0.1,0.2,0.2v0.9c0,0.2-0.1,0.2-0.2,0.2l-4.1,0c-0.1,0-0.2-0.1-0.2-0.2l0-1c0-0.1,0.1-0.2,0.1-0.2c0-0.1,2.8-4.6,3-5
			c0,0,0.1-0.2,0-0.4c0-0.1,0-0.1-0.1-0.2c0,0,0,0,0,0c-0.5-0.5-1.7,0.2-1.7,0.2c-0.3,0.2-0.5-0.1-0.5-0.1s-0.2-0.5-0.4-0.7
			c-0.2-0.4,0.2-0.7,1.5-1C35,87.5,36,89.2,35.6,90.1z"/>
		<path class="st4" d="M41.6,88v8.1c0,0.1-0.1,0.3-0.3,0.3l-1.2,0c-0.2,0-0.3-0.1-0.3-0.3l0.1-3.1c0,0,0-0.1-0.1-0.1l-3.1-0.2
			c-0.1,0-0.2-0.1-0.2-0.2l0-4.4c0-0.1,0.1-0.3,0.3-0.3l1,0c0.2,0,0.3,0.1,0.3,0.3L38,91.3c0,0.1,0,0.1,0.1,0.1l1.8,0
			c0.1,0,0.1,0,0.1-0.1l0-3.2c0-0.2,0.1-0.3,0.3-0.3l1.1,0C41.5,87.8,41.6,87.9,41.6,88z"/>
		<path class="st4" d="M48.7,90.8c0.1,0.1,0.1,0.3,0.1,0.5v0.1c0,0.5-0.3,0.5-0.6,0.5h-2.8c-0.1,0-0.1,0-0.1-0.1
			c-0.1-0.1-0.1-0.4-0.1-0.7V91c0-0.2,0.2-0.4,0.4-0.4c0,0,0.1,0,0.1,0c0,0,2.3,0.1,2.7,0.1C48.5,90.8,48.6,90.8,48.7,90.8z"/>
		<path class="st4" d="M56.9,90.1c0,0.1-0.1,0.3-0.3,0.6C56,91.8,55.3,93,55.3,93c-0.6,1-1.1,1.9-1.1,1.9c0,0-0.1,0.1,0,0.1l2.5-0.1
			c0.1,0,0.2,0.1,0.2,0.2v0.9c0,0.2-0.1,0.2-0.2,0.2l-4.1,0c-0.1,0-0.2-0.1-0.2-0.2l0-1c0-0.1,0.1-0.2,0.1-0.2c0-0.1,2.8-4.6,3-5
			c0,0,0.1-0.2,0-0.4c0-0.1,0-0.1-0.1-0.2c0,0,0,0,0,0c-0.5-0.5-1.7,0.2-1.7,0.2c-0.3,0.2-0.5-0.1-0.5-0.1s-0.2-0.5-0.4-0.7
			c-0.2-0.4,0.2-0.7,1.5-1C56.4,87.5,57.3,89.2,56.9,90.1z"/>
		<path class="st4" d="M62.9,93.8c0,2-1.5,2.6-2.5,2.6c-1.6,0-2.3-1.4-2.4-2.1c-0.1-0.8-0.1-2.2,0.2-3.3c0.8-2.8,2.9-3.5,3.5-3.5
			c0.1,0,0.2,0.1,0.2,0.2l0,1.2c0,0.1-0.1,0.2-0.2,0.2c-0.7,0.1-1.4,0.7-2.1,1.9c-0.1,0.1,0,0.2,0.1,0.2
			C60.6,91.1,62.9,91.5,62.9,93.8z M61.4,93.8c0-0.7-0.4-1.3-1-1.3c-0.5,0-1,0.5-1,1.3c0,0.6,0.3,1.4,1,1.4
			C61,95.2,61.4,94.4,61.4,93.8z"/>
	</g>
	<g class="st3">
		<path class="st4" d="M36.5,110.8c0,0.2-0.1,0.4-0.3,0.4l-1,0c-0.2,0-0.3-0.1-0.3-0.3l-0.3-1.4c0-0.1-0.1-0.2-0.2-0.1l-1.4,0
			c-0.1,0-0.2,0.1-0.2,0.2l-0.2,1.4c0,0.2-0.2,0.3-0.4,0.3l-1,0c-0.2,0-0.3-0.2-0.2-0.4l1.6-8.3c0-0.1,0.2-0.3,0.3-0.3h1.3
			c0.1,0,0.3,0.1,0.3,0.2L36.5,110.8z M34.3,107.9l-0.6-3c0-0.1-0.2-0.1-0.2,0L33,108c0,0.1,0,0.1,0.1,0.1l1.1-0.1
			C34.3,108.1,34.4,108,34.3,107.9z"/>
		<path class="st4" d="M42.3,106.6c0,2.7-0.2,4.6-2.5,4.6c-2.1,0-2.5-2.2-2.5-4.2c0-1.1,0-3.5,0-4.4c0-0.2,0.2-0.3,0.4-0.3l0.9,0
			c0.2,0,0.3,0.2,0.3,0.4c0,0.8,0,3,0,4.4c0,1.8,0.4,2.6,1,2.6c0.8,0,1-0.9,1-2c0-0.7-0.1-4-0.1-5.1c0-0.2,0.2-0.3,0.3-0.3l0.9,0
			c0.2,0,0.4,0.1,0.4,0.4C42.2,103.5,42.3,105.3,42.3,106.6z"/>
		<path class="st4" d="M45.3,111.1c-1.1-0.4-2.7-1.9-2.2-4.7c0.6-3.3,3.5-4.2,4.6-3.9c0.9,0.2,1.3,0.6,1.4,0.8c0,0.1,0,0.2-0.1,0.3
			l-0.8,0.7c-0.1,0.1-0.2,0.1-0.3,0c-0.1-0.1-0.3-0.1-0.6-0.2c-0.3,0-2.2-0.1-2.6,2.6c-0.4,2.4,1.3,3,1.5,3c0.3,0,0.9,0,1.4-0.2
			c0.2-0.1,0.2-0.1,0.2-0.3l0-1.1c0-0.1-0.1-0.2-0.2-0.2l-1.4,0c-0.1,0-0.3-0.1-0.3-0.2v-1c0-0.1,0.1-0.3,0.2-0.3c0.8,0,2,0,2.8,0
			c0.5,0,0.4,0.4,0.4,0.7c0,0.8,0,1.8,0,2.5C49.4,111.3,46.4,111.6,45.3,111.1z"/>
		<path class="st4" d="M55.4,106.6c0,2.7-0.2,4.6-2.5,4.6c-2.1,0-2.5-2.2-2.5-4.2c0-1.1,0-3.5,0-4.4c0-0.2,0.2-0.3,0.4-0.3l0.9,0
			c0.2,0,0.3,0.2,0.3,0.4c0,0.8,0,3,0,4.4c0,1.8,0.4,2.6,1,2.6c0.8,0,1-0.9,1-2c0-0.7-0.1-4-0.1-5.1c0-0.2,0.2-0.3,0.3-0.3l0.9,0
			c0.2,0,0.4,0.1,0.4,0.4C55.4,103.5,55.4,105.3,55.4,106.6z"/>
		<path class="st4" d="M61.1,108.6c0,2-1.8,2.7-2.8,2.7c-1.4,0-2.2-1.3-2.2-1.3s-0.2-0.2,0-0.4c0.3-0.3,0.9-0.5,0.9-0.5
			s0.2-0.1,0.3,0c0.2,0.2,0.4,0.6,1,0.6c0.6,0.1,1.4-0.4,1.4-1.3s-0.7-1.4-1.9-2.1c-0.8-0.4-1.4-1-1.4-2.1c0-1.1,0.9-2.1,2.3-1.9
			c1.2,0.1,1.6,0.5,1.4,0.8c-0.1,0.2-0.4,0.7-0.4,0.7s-0.1,0.3-0.6,0c0,0-0.4-0.2-0.8-0.2s-0.6,0.4-0.6,0.6c0,0.4,0.2,0.8,1.5,1.5
			C60.5,106.5,61.1,107.3,61.1,108.6z"/>
		<path class="st4" d="M65.8,102.7v0.9c0,0.1,0,0.3-0.3,0.3l-0.9,0c-0.1,0-0.2,0.1-0.2,0.2l0,7.1c0,0.1-0.1,0.2-0.2,0.2h-1.1
			c-0.2,0-0.2-0.1-0.2-0.2l0-7c0-0.1-0.1-0.2-0.2-0.2h-1c-0.2,0-0.3-0.1-0.3-0.3v-0.9c0-0.1,0.1-0.2,0.2-0.2h3.8
			C65.8,102.4,65.8,102.5,65.8,102.7z"/>
		<path class="st4" d="M71.5,106.6c0,2.7-0.2,4.6-2.5,4.6c-2.1,0-2.5-2.2-2.5-4.2c0-1.1,0-3.5,0-4.4c0-0.2,0.2-0.3,0.4-0.3l0.9,0
			c0.2,0,0.3,0.2,0.3,0.4c0,0.8,0,3,0,4.4c0,1.8,0.4,2.6,1,2.6c0.8,0,1-0.9,1-2c0-0.7-0.1-4-0.1-5.1c0-0.2,0.2-0.3,0.3-0.3l0.9,0
			c0.2,0,0.4,0.1,0.4,0.4C71.5,103.5,71.5,105.3,71.5,106.6z"/>
		<path class="st4" d="M77.2,108.6c0,2-1.8,2.7-2.8,2.7c-1.4,0-2.2-1.3-2.2-1.3s-0.2-0.2,0-0.4c0.3-0.3,0.9-0.5,0.9-0.5
			s0.2-0.1,0.3,0c0.2,0.2,0.4,0.6,1,0.6c0.6,0.1,1.4-0.4,1.4-1.3s-0.7-1.4-1.9-2.1c-0.8-0.4-1.4-1-1.4-2.1c0-1.1,0.9-2.1,2.3-1.9
			c1.2,0.1,1.6,0.5,1.4,0.8c-0.1,0.2-0.4,0.7-0.4,0.7s-0.1,0.3-0.6,0c0,0-0.4-0.2-0.8-0.2s-0.6,0.4-0.6,0.6c0,0.4,0.2,0.8,1.5,1.5
			C76.7,106.5,77.2,107.3,77.2,108.6z"/>
		<path class="st4" d="M85.4,105c0,0.1-0.1,0.3-0.3,0.6c-0.6,1.1-1.3,2.3-1.3,2.3c-0.6,1-1.1,1.9-1.1,1.9c0,0-0.1,0.1,0,0.1l2.5-0.1
			c0.1,0,0.2,0.1,0.2,0.2v0.9c0,0.2-0.1,0.2-0.2,0.2l-4.1,0c-0.1,0-0.2-0.1-0.2-0.2l0-1c0-0.1,0.1-0.2,0.1-0.2c0-0.1,2.8-4.6,3-5
			c0,0,0.1-0.2,0-0.4c0-0.1,0-0.1-0.1-0.2c0,0,0,0,0,0c-0.5-0.5-1.7,0.2-1.7,0.2c-0.3,0.2-0.5-0.1-0.5-0.1s-0.2-0.5-0.4-0.7
			c-0.2-0.4,0.2-0.7,1.5-1C84.8,102.4,85.8,104.1,85.4,105z"/>
		<path class="st4" d="M91.9,107c-0.1,2.4-1.5,4.3-3.1,4.2c-1.6-0.1-2.8-2-2.7-4.4c0.1-2.4,1.5-4.3,3.1-4.2
			C90.8,102.7,92,104.6,91.9,107z M89.2,104c-0.8,0-1.6,1.1-1.7,2.7c-0.1,1.6,0.6,3,1.4,3c0.8,0,1.6-1.2,1.7-2.8
			C90.6,105.4,89.9,104.1,89.2,104z"/>
		<path class="st4" d="M93.8,104.6l-1.1,0.2c-0.2,0-0.3-0.1-0.3-0.3v-0.8c0-0.1,0.1-0.3,0.3-0.3l2.5-0.7c0.1,0,0.2,0.1,0.2,0.2l0,8
			c0,0.1-0.1,0.3-0.3,0.3l-1,0c-0.2,0-0.3-0.1-0.3-0.3l0.2-6.2C93.9,104.7,93.9,104.6,93.8,104.6z"/>
		<path class="st4" d="M101.6,108.6c0,1.7-1.3,2.6-2.8,2.6c-1.3,0-2.8-0.9-2.8-2.6c0-1.2,0.3-1.9,1.3-2.5c0,0,0-0.1,0-0.1
			c-0.2-0.1-0.7-0.7-0.7-1.6c0-1.1,0.9-1.9,2.1-1.8c1.3-0.1,2.1,0.8,2.1,1.8c0,0.9-0.5,1.4-0.7,1.6c0,0,0,0.1,0,0.1
			C101.4,106.8,101.6,107.6,101.6,108.6z M100.3,108.6c0-0.6-0.4-1.5-1.4-1.5c-0.9,0-1.4,0.8-1.4,1.5c0,0.7,0.6,1.4,1.4,1.4
			C99.6,109.9,100.3,109.4,100.3,108.6z M98,104.6c0,0.4,0.2,0.9,0.8,0.9c0.5,0,0.8-0.5,0.8-0.9c0-0.4-0.3-0.9-0.8-0.9
			C98.4,103.8,98,104.1,98,104.6z"/>
	</g>
</g>
</svg>
